G04 EAGLE Gerber RS-274X export*
G75*
%MOMM*%
%FSLAX34Y34*%
%LPD*%
%INBottom Copper*%
%IPPOS*%
%AMOC8*
5,1,8,0,0,1.08239X$1,22.5*%
G01*
%ADD10P,1.429621X8X292.500000*%
%ADD11P,1.732040X8X112.500000*%
%ADD12C,1.600200*%
%ADD13P,1.732040X8X292.500000*%
%ADD14C,1.320800*%
%ADD15C,1.208000*%
%ADD16R,1.676400X1.676400*%
%ADD17P,1.814519X8X22.500000*%
%ADD18R,3.116000X3.116000*%
%ADD19P,1.429621X8X112.500000*%
%ADD20P,4.058962X8X202.500000*%
%ADD21P,4.058962X8X112.500000*%
%ADD22P,1.429621X8X22.500000*%
%ADD23C,2.705100*%
%ADD24P,1.429621X8X202.500000*%
%ADD25P,1.539592X8X292.500000*%
%ADD26P,1.649562X8X112.500000*%
%ADD27R,1.006400X1.006400*%
%ADD28C,0.406400*%
%ADD29C,0.609600*%

G36*
X839745Y10162D02*
X839745Y10162D01*
X839754Y10161D01*
X839946Y10182D01*
X840136Y10201D01*
X840145Y10203D01*
X840154Y10204D01*
X840337Y10262D01*
X840521Y10319D01*
X840529Y10323D01*
X840538Y10326D01*
X840707Y10419D01*
X840875Y10511D01*
X840882Y10516D01*
X840890Y10521D01*
X841038Y10646D01*
X841185Y10768D01*
X841190Y10775D01*
X841197Y10781D01*
X841317Y10933D01*
X841437Y11082D01*
X841441Y11090D01*
X841447Y11097D01*
X841534Y11270D01*
X841622Y11439D01*
X841625Y11448D01*
X841629Y11456D01*
X841681Y11641D01*
X841734Y11826D01*
X841735Y11835D01*
X841737Y11844D01*
X841751Y12036D01*
X841767Y12228D01*
X841766Y12236D01*
X841766Y12245D01*
X841742Y12437D01*
X841720Y12627D01*
X841717Y12636D01*
X841716Y12645D01*
X841655Y12827D01*
X841595Y13010D01*
X841591Y13018D01*
X841588Y13026D01*
X841491Y13194D01*
X841397Y13361D01*
X841391Y13368D01*
X841387Y13375D01*
X841172Y13628D01*
X840959Y13841D01*
X840959Y18597D01*
X860218Y18597D01*
X860236Y18599D01*
X860253Y18597D01*
X860436Y18618D01*
X860618Y18637D01*
X860636Y18642D01*
X860653Y18644D01*
X860828Y18701D01*
X861003Y18755D01*
X861019Y18763D01*
X861036Y18769D01*
X861196Y18859D01*
X861357Y18947D01*
X861371Y18958D01*
X861387Y18967D01*
X861526Y19087D01*
X861667Y19204D01*
X861678Y19218D01*
X861691Y19230D01*
X861804Y19375D01*
X861919Y19518D01*
X861927Y19534D01*
X861938Y19548D01*
X862020Y19713D01*
X862105Y19875D01*
X862109Y19892D01*
X862117Y19909D01*
X862165Y20087D01*
X862216Y20262D01*
X862217Y20280D01*
X862222Y20297D01*
X862249Y20628D01*
X862249Y22661D01*
X862251Y22661D01*
X862251Y20628D01*
X862253Y20610D01*
X862251Y20592D01*
X862273Y20410D01*
X862291Y20227D01*
X862296Y20210D01*
X862298Y20193D01*
X862355Y20018D01*
X862409Y19842D01*
X862417Y19827D01*
X862423Y19810D01*
X862513Y19650D01*
X862601Y19488D01*
X862612Y19475D01*
X862621Y19459D01*
X862741Y19320D01*
X862858Y19179D01*
X862872Y19168D01*
X862884Y19155D01*
X863029Y19042D01*
X863172Y18927D01*
X863188Y18919D01*
X863202Y18908D01*
X863367Y18826D01*
X863530Y18741D01*
X863547Y18736D01*
X863563Y18728D01*
X863741Y18681D01*
X863916Y18630D01*
X863934Y18628D01*
X863951Y18624D01*
X864282Y18597D01*
X883541Y18597D01*
X883541Y13841D01*
X883328Y13628D01*
X883322Y13621D01*
X883315Y13616D01*
X883196Y13467D01*
X883073Y13317D01*
X883069Y13309D01*
X883063Y13302D01*
X882975Y13133D01*
X882884Y12961D01*
X882882Y12952D01*
X882878Y12945D01*
X882825Y12761D01*
X882769Y12575D01*
X882769Y12566D01*
X882766Y12558D01*
X882751Y12367D01*
X882733Y12174D01*
X882734Y12165D01*
X882733Y12156D01*
X882756Y11967D01*
X882776Y11774D01*
X882779Y11765D01*
X882780Y11757D01*
X882840Y11574D01*
X882898Y11390D01*
X882902Y11382D01*
X882905Y11374D01*
X883000Y11205D01*
X883093Y11038D01*
X883099Y11031D01*
X883103Y11023D01*
X883230Y10877D01*
X883353Y10731D01*
X883360Y10725D01*
X883366Y10718D01*
X883519Y10600D01*
X883669Y10481D01*
X883677Y10477D01*
X883684Y10472D01*
X883858Y10385D01*
X884028Y10299D01*
X884037Y10296D01*
X884045Y10292D01*
X884233Y10242D01*
X884416Y10191D01*
X884425Y10190D01*
X884433Y10188D01*
X884764Y10161D01*
X1016508Y10161D01*
X1016526Y10163D01*
X1016544Y10161D01*
X1016726Y10182D01*
X1016909Y10201D01*
X1016926Y10206D01*
X1016943Y10208D01*
X1017118Y10265D01*
X1017294Y10319D01*
X1017309Y10327D01*
X1017326Y10333D01*
X1017486Y10423D01*
X1017648Y10511D01*
X1017661Y10522D01*
X1017677Y10531D01*
X1017816Y10651D01*
X1017957Y10768D01*
X1017968Y10782D01*
X1017982Y10794D01*
X1018094Y10939D01*
X1018209Y11082D01*
X1018217Y11098D01*
X1018228Y11112D01*
X1018310Y11277D01*
X1018395Y11439D01*
X1018400Y11456D01*
X1018408Y11472D01*
X1018455Y11651D01*
X1018506Y11826D01*
X1018508Y11844D01*
X1018512Y11861D01*
X1018539Y12192D01*
X1018539Y119394D01*
X1018538Y119403D01*
X1018539Y119412D01*
X1018518Y119604D01*
X1018499Y119795D01*
X1018497Y119803D01*
X1018496Y119812D01*
X1018438Y119995D01*
X1018381Y120180D01*
X1018377Y120188D01*
X1018374Y120196D01*
X1018281Y120364D01*
X1018189Y120534D01*
X1018184Y120541D01*
X1018179Y120548D01*
X1018055Y120695D01*
X1017932Y120843D01*
X1017925Y120849D01*
X1017919Y120855D01*
X1017768Y120974D01*
X1017618Y121095D01*
X1017610Y121099D01*
X1017603Y121105D01*
X1017430Y121193D01*
X1017261Y121281D01*
X1017252Y121283D01*
X1017244Y121287D01*
X1017058Y121339D01*
X1016874Y121392D01*
X1016865Y121393D01*
X1016856Y121395D01*
X1016663Y121409D01*
X1016472Y121425D01*
X1016464Y121424D01*
X1016455Y121425D01*
X1016262Y121400D01*
X1016073Y121378D01*
X1016064Y121375D01*
X1016055Y121374D01*
X1015872Y121313D01*
X1015690Y121253D01*
X1015682Y121249D01*
X1015674Y121246D01*
X1015508Y121151D01*
X1015339Y121055D01*
X1015332Y121050D01*
X1015325Y121045D01*
X1015072Y120831D01*
X1013158Y118917D01*
X995942Y118917D01*
X983767Y131092D01*
X983767Y148308D01*
X995942Y160483D01*
X1013158Y160483D01*
X1015072Y158569D01*
X1015079Y158564D01*
X1015084Y158557D01*
X1015234Y158437D01*
X1015383Y158314D01*
X1015391Y158310D01*
X1015398Y158305D01*
X1015568Y158216D01*
X1015739Y158126D01*
X1015748Y158123D01*
X1015755Y158119D01*
X1015940Y158066D01*
X1016125Y158011D01*
X1016134Y158010D01*
X1016142Y158008D01*
X1016333Y157992D01*
X1016526Y157975D01*
X1016535Y157976D01*
X1016544Y157975D01*
X1016733Y157997D01*
X1016926Y158018D01*
X1016935Y158021D01*
X1016943Y158022D01*
X1017125Y158081D01*
X1017310Y158140D01*
X1017318Y158144D01*
X1017326Y158147D01*
X1017495Y158242D01*
X1017662Y158334D01*
X1017669Y158340D01*
X1017677Y158345D01*
X1017823Y158470D01*
X1017969Y158595D01*
X1017975Y158602D01*
X1017982Y158608D01*
X1018099Y158759D01*
X1018219Y158911D01*
X1018223Y158919D01*
X1018228Y158926D01*
X1018314Y159098D01*
X1018401Y159270D01*
X1018404Y159278D01*
X1018408Y159286D01*
X1018458Y159472D01*
X1018509Y159658D01*
X1018510Y159666D01*
X1018512Y159675D01*
X1018539Y160006D01*
X1018539Y267208D01*
X1018537Y267226D01*
X1018539Y267244D01*
X1018518Y267426D01*
X1018499Y267609D01*
X1018494Y267626D01*
X1018492Y267643D01*
X1018435Y267818D01*
X1018381Y267994D01*
X1018373Y268009D01*
X1018367Y268026D01*
X1018277Y268186D01*
X1018189Y268348D01*
X1018178Y268361D01*
X1018169Y268377D01*
X1018049Y268516D01*
X1017932Y268657D01*
X1017918Y268668D01*
X1017906Y268682D01*
X1017761Y268794D01*
X1017618Y268909D01*
X1017602Y268917D01*
X1017588Y268928D01*
X1017423Y269010D01*
X1017261Y269095D01*
X1017244Y269100D01*
X1017228Y269108D01*
X1017049Y269155D01*
X1016874Y269206D01*
X1016856Y269208D01*
X1016839Y269212D01*
X1016508Y269239D01*
X1013347Y269239D01*
X1012091Y269760D01*
X1012061Y269769D01*
X1012033Y269783D01*
X1011868Y269827D01*
X1011706Y269876D01*
X1011675Y269879D01*
X1011644Y269887D01*
X1011314Y269914D01*
X1007092Y269914D01*
X1007034Y269930D01*
X1006867Y269981D01*
X1006840Y269983D01*
X1006814Y269990D01*
X1006640Y270002D01*
X1006466Y270019D01*
X1006439Y270016D01*
X1006413Y270018D01*
X1006239Y269995D01*
X1006066Y269977D01*
X1006040Y269969D01*
X1006013Y269966D01*
X1005853Y269914D01*
X1000742Y269914D01*
X1000684Y269930D01*
X1000517Y269981D01*
X1000490Y269983D01*
X1000465Y269990D01*
X1000289Y270002D01*
X1000116Y270019D01*
X1000090Y270016D01*
X1000063Y270018D01*
X999889Y269995D01*
X999716Y269977D01*
X999690Y269969D01*
X999664Y269966D01*
X999503Y269914D01*
X995286Y269914D01*
X995255Y269911D01*
X995224Y269913D01*
X995055Y269891D01*
X994886Y269874D01*
X994856Y269865D01*
X994825Y269861D01*
X994509Y269760D01*
X993253Y269239D01*
X886034Y269239D01*
X886025Y269238D01*
X886016Y269239D01*
X885826Y269219D01*
X885634Y269199D01*
X885625Y269197D01*
X885616Y269196D01*
X885433Y269138D01*
X885249Y269081D01*
X885241Y269077D01*
X885232Y269074D01*
X885064Y268981D01*
X884895Y268889D01*
X884888Y268884D01*
X884880Y268879D01*
X884732Y268754D01*
X884585Y268632D01*
X884580Y268625D01*
X884573Y268619D01*
X884453Y268467D01*
X884333Y268318D01*
X884329Y268310D01*
X884323Y268303D01*
X884235Y268129D01*
X884148Y267961D01*
X884145Y267952D01*
X884141Y267944D01*
X884089Y267758D01*
X884036Y267574D01*
X884035Y267565D01*
X884033Y267556D01*
X884019Y267364D01*
X884003Y267172D01*
X884004Y267164D01*
X884004Y267155D01*
X884028Y266963D01*
X884050Y266773D01*
X884053Y266764D01*
X884054Y266755D01*
X884115Y266573D01*
X884175Y266390D01*
X884179Y266382D01*
X884182Y266374D01*
X884279Y266206D01*
X884373Y266039D01*
X884379Y266032D01*
X884383Y266025D01*
X884541Y265839D01*
X884541Y260759D01*
X864968Y260759D01*
X864950Y260757D01*
X864933Y260759D01*
X864750Y260738D01*
X864568Y260719D01*
X864551Y260714D01*
X864533Y260712D01*
X864358Y260655D01*
X864183Y260601D01*
X864167Y260593D01*
X864150Y260587D01*
X863990Y260497D01*
X863829Y260409D01*
X863815Y260398D01*
X863799Y260389D01*
X863660Y260269D01*
X863519Y260152D01*
X863508Y260138D01*
X863495Y260126D01*
X863382Y259981D01*
X863267Y259838D01*
X863259Y259822D01*
X863248Y259808D01*
X863247Y259806D01*
X863213Y259868D01*
X863202Y259881D01*
X863193Y259897D01*
X863073Y260036D01*
X862955Y260177D01*
X862942Y260188D01*
X862930Y260202D01*
X862785Y260314D01*
X862642Y260429D01*
X862626Y260437D01*
X862612Y260448D01*
X862447Y260530D01*
X862284Y260615D01*
X862267Y260620D01*
X862251Y260628D01*
X862073Y260675D01*
X861898Y260726D01*
X861880Y260728D01*
X861863Y260732D01*
X861532Y260759D01*
X841959Y260759D01*
X841959Y265840D01*
X842035Y265934D01*
X842157Y266083D01*
X842161Y266091D01*
X842167Y266098D01*
X842255Y266268D01*
X842346Y266439D01*
X842348Y266448D01*
X842352Y266455D01*
X842405Y266639D01*
X842461Y266825D01*
X842461Y266834D01*
X842464Y266842D01*
X842479Y267033D01*
X842497Y267226D01*
X842496Y267235D01*
X842497Y267244D01*
X842474Y267433D01*
X842454Y267626D01*
X842451Y267635D01*
X842450Y267643D01*
X842390Y267826D01*
X842332Y268010D01*
X842328Y268018D01*
X842325Y268026D01*
X842231Y268193D01*
X842137Y268362D01*
X842131Y268369D01*
X842127Y268377D01*
X842001Y268522D01*
X841877Y268669D01*
X841870Y268675D01*
X841864Y268682D01*
X841713Y268799D01*
X841561Y268919D01*
X841553Y268923D01*
X841546Y268928D01*
X841374Y269014D01*
X841202Y269101D01*
X841193Y269104D01*
X841185Y269108D01*
X840997Y269158D01*
X840814Y269209D01*
X840805Y269210D01*
X840797Y269212D01*
X840466Y269239D01*
X530747Y269239D01*
X529491Y269760D01*
X529461Y269769D01*
X529433Y269783D01*
X529268Y269827D01*
X529106Y269876D01*
X529075Y269879D01*
X529044Y269887D01*
X528714Y269914D01*
X524492Y269914D01*
X524434Y269930D01*
X524267Y269981D01*
X524240Y269983D01*
X524214Y269990D01*
X524040Y270002D01*
X523866Y270019D01*
X523839Y270016D01*
X523813Y270018D01*
X523639Y269995D01*
X523466Y269977D01*
X523440Y269969D01*
X523413Y269966D01*
X523253Y269914D01*
X518142Y269914D01*
X518084Y269930D01*
X517917Y269981D01*
X517890Y269983D01*
X517865Y269990D01*
X517689Y270002D01*
X517516Y270019D01*
X517490Y270016D01*
X517463Y270018D01*
X517289Y269995D01*
X517116Y269977D01*
X517090Y269969D01*
X517064Y269966D01*
X516903Y269914D01*
X512686Y269914D01*
X512655Y269911D01*
X512624Y269913D01*
X512455Y269891D01*
X512286Y269874D01*
X512256Y269865D01*
X512225Y269861D01*
X511909Y269760D01*
X510653Y269239D01*
X35447Y269239D01*
X34191Y269760D01*
X34161Y269769D01*
X34133Y269783D01*
X33968Y269827D01*
X33806Y269876D01*
X33775Y269879D01*
X33744Y269887D01*
X33414Y269914D01*
X29192Y269914D01*
X29134Y269930D01*
X28967Y269981D01*
X28940Y269983D01*
X28914Y269990D01*
X28740Y270002D01*
X28566Y270019D01*
X28539Y270016D01*
X28513Y270018D01*
X28339Y269995D01*
X28166Y269977D01*
X28140Y269969D01*
X28113Y269966D01*
X27953Y269914D01*
X22842Y269914D01*
X22784Y269930D01*
X22617Y269981D01*
X22590Y269983D01*
X22564Y269990D01*
X22390Y270002D01*
X22216Y270019D01*
X22189Y270016D01*
X22163Y270018D01*
X21989Y269995D01*
X21816Y269977D01*
X21790Y269969D01*
X21763Y269966D01*
X21603Y269914D01*
X17386Y269914D01*
X17355Y269911D01*
X17324Y269913D01*
X17155Y269891D01*
X16986Y269874D01*
X16956Y269865D01*
X16925Y269861D01*
X16609Y269760D01*
X15353Y269239D01*
X12192Y269239D01*
X12174Y269237D01*
X12156Y269239D01*
X11974Y269218D01*
X11791Y269199D01*
X11774Y269194D01*
X11757Y269192D01*
X11582Y269135D01*
X11406Y269081D01*
X11391Y269073D01*
X11374Y269067D01*
X11214Y268977D01*
X11052Y268889D01*
X11039Y268878D01*
X11023Y268869D01*
X10884Y268749D01*
X10743Y268632D01*
X10732Y268618D01*
X10718Y268606D01*
X10606Y268461D01*
X10491Y268318D01*
X10483Y268302D01*
X10472Y268288D01*
X10390Y268123D01*
X10305Y267961D01*
X10300Y267944D01*
X10292Y267928D01*
X10245Y267749D01*
X10194Y267574D01*
X10192Y267556D01*
X10188Y267539D01*
X10161Y267208D01*
X10161Y12192D01*
X10163Y12174D01*
X10161Y12156D01*
X10182Y11974D01*
X10201Y11791D01*
X10206Y11774D01*
X10208Y11757D01*
X10265Y11582D01*
X10319Y11406D01*
X10327Y11391D01*
X10333Y11374D01*
X10423Y11214D01*
X10511Y11052D01*
X10522Y11039D01*
X10531Y11023D01*
X10651Y10884D01*
X10768Y10743D01*
X10782Y10732D01*
X10794Y10718D01*
X10939Y10606D01*
X11082Y10491D01*
X11098Y10483D01*
X11112Y10472D01*
X11277Y10390D01*
X11439Y10305D01*
X11456Y10300D01*
X11472Y10292D01*
X11651Y10245D01*
X11826Y10194D01*
X11844Y10192D01*
X11861Y10188D01*
X12192Y10161D01*
X839736Y10161D01*
X839745Y10162D01*
G37*
G36*
X1006510Y295134D02*
X1006510Y295134D01*
X1006537Y295132D01*
X1006711Y295155D01*
X1006884Y295173D01*
X1006910Y295181D01*
X1006937Y295184D01*
X1007097Y295236D01*
X1011314Y295236D01*
X1011345Y295239D01*
X1011376Y295237D01*
X1011545Y295259D01*
X1011714Y295276D01*
X1011744Y295285D01*
X1011775Y295289D01*
X1012091Y295390D01*
X1013347Y295911D01*
X1016508Y295911D01*
X1016526Y295913D01*
X1016544Y295911D01*
X1016726Y295932D01*
X1016909Y295951D01*
X1016926Y295956D01*
X1016943Y295958D01*
X1017118Y296015D01*
X1017294Y296069D01*
X1017309Y296077D01*
X1017326Y296083D01*
X1017486Y296173D01*
X1017648Y296261D01*
X1017661Y296272D01*
X1017677Y296281D01*
X1017816Y296401D01*
X1017957Y296518D01*
X1017968Y296532D01*
X1017982Y296544D01*
X1018094Y296689D01*
X1018209Y296832D01*
X1018217Y296848D01*
X1018228Y296862D01*
X1018310Y297027D01*
X1018395Y297189D01*
X1018400Y297206D01*
X1018408Y297222D01*
X1018455Y297401D01*
X1018506Y297576D01*
X1018508Y297594D01*
X1018512Y297611D01*
X1018539Y297942D01*
X1018539Y304029D01*
X1018538Y304038D01*
X1018539Y304047D01*
X1018518Y304238D01*
X1018499Y304429D01*
X1018497Y304438D01*
X1018496Y304447D01*
X1018438Y304629D01*
X1018381Y304814D01*
X1018377Y304822D01*
X1018374Y304831D01*
X1018281Y304999D01*
X1018189Y305168D01*
X1018184Y305175D01*
X1018179Y305183D01*
X1018054Y305331D01*
X1017932Y305478D01*
X1017925Y305483D01*
X1017919Y305490D01*
X1017767Y305610D01*
X1017618Y305730D01*
X1017610Y305734D01*
X1017603Y305740D01*
X1017431Y305827D01*
X1017261Y305916D01*
X1017252Y305918D01*
X1017244Y305922D01*
X1017058Y305974D01*
X1016874Y306027D01*
X1016865Y306028D01*
X1016856Y306030D01*
X1016664Y306044D01*
X1016472Y306060D01*
X1016464Y306059D01*
X1016455Y306059D01*
X1016262Y306035D01*
X1016073Y306013D01*
X1016064Y306010D01*
X1016055Y306009D01*
X1015872Y305948D01*
X1015690Y305888D01*
X1015682Y305884D01*
X1015674Y305881D01*
X1015508Y305785D01*
X1015339Y305690D01*
X1015332Y305684D01*
X1015325Y305680D01*
X1015072Y305465D01*
X1013913Y304306D01*
X1010946Y303077D01*
X995654Y303077D01*
X992687Y304306D01*
X990416Y306577D01*
X989187Y309544D01*
X989187Y312756D01*
X990416Y315723D01*
X992687Y317994D01*
X995654Y319223D01*
X1010946Y319223D01*
X1013913Y317994D01*
X1015072Y316835D01*
X1015079Y316829D01*
X1015084Y316822D01*
X1015235Y316701D01*
X1015383Y316580D01*
X1015391Y316576D01*
X1015398Y316570D01*
X1015568Y316482D01*
X1015739Y316391D01*
X1015748Y316389D01*
X1015755Y316384D01*
X1015940Y316331D01*
X1016125Y316276D01*
X1016134Y316276D01*
X1016142Y316273D01*
X1016333Y316257D01*
X1016526Y316240D01*
X1016535Y316241D01*
X1016544Y316240D01*
X1016733Y316262D01*
X1016926Y316283D01*
X1016935Y316286D01*
X1016943Y316287D01*
X1017125Y316346D01*
X1017310Y316405D01*
X1017318Y316409D01*
X1017326Y316412D01*
X1017493Y316506D01*
X1017662Y316600D01*
X1017669Y316605D01*
X1017677Y316610D01*
X1017822Y316735D01*
X1017969Y316860D01*
X1017975Y316867D01*
X1017982Y316873D01*
X1018098Y317024D01*
X1018219Y317176D01*
X1018223Y317184D01*
X1018228Y317191D01*
X1018312Y317360D01*
X1018401Y317535D01*
X1018404Y317544D01*
X1018408Y317552D01*
X1018457Y317737D01*
X1018509Y317923D01*
X1018510Y317932D01*
X1018512Y317940D01*
X1018539Y318271D01*
X1018539Y329429D01*
X1018538Y329438D01*
X1018539Y329447D01*
X1018518Y329638D01*
X1018499Y329829D01*
X1018497Y329838D01*
X1018496Y329847D01*
X1018439Y330027D01*
X1018381Y330214D01*
X1018377Y330222D01*
X1018374Y330231D01*
X1018281Y330399D01*
X1018189Y330568D01*
X1018184Y330575D01*
X1018179Y330583D01*
X1018054Y330731D01*
X1017932Y330878D01*
X1017925Y330883D01*
X1017919Y330890D01*
X1017767Y331010D01*
X1017618Y331130D01*
X1017610Y331134D01*
X1017603Y331140D01*
X1017431Y331227D01*
X1017261Y331316D01*
X1017252Y331318D01*
X1017244Y331322D01*
X1017058Y331374D01*
X1016874Y331427D01*
X1016865Y331428D01*
X1016856Y331430D01*
X1016664Y331444D01*
X1016472Y331460D01*
X1016464Y331459D01*
X1016455Y331459D01*
X1016262Y331435D01*
X1016073Y331413D01*
X1016064Y331410D01*
X1016055Y331409D01*
X1015872Y331348D01*
X1015690Y331288D01*
X1015682Y331284D01*
X1015674Y331281D01*
X1015508Y331185D01*
X1015339Y331090D01*
X1015332Y331084D01*
X1015325Y331080D01*
X1015072Y330865D01*
X1013913Y329706D01*
X1010946Y328477D01*
X995654Y328477D01*
X992687Y329706D01*
X990416Y331977D01*
X989187Y334944D01*
X989187Y338156D01*
X990416Y341123D01*
X992687Y343394D01*
X995654Y344623D01*
X1010946Y344623D01*
X1013913Y343394D01*
X1015072Y342235D01*
X1015079Y342229D01*
X1015084Y342222D01*
X1015235Y342101D01*
X1015383Y341980D01*
X1015391Y341976D01*
X1015398Y341970D01*
X1015568Y341882D01*
X1015739Y341791D01*
X1015748Y341789D01*
X1015755Y341784D01*
X1015940Y341731D01*
X1016125Y341676D01*
X1016134Y341676D01*
X1016142Y341673D01*
X1016333Y341657D01*
X1016526Y341640D01*
X1016535Y341641D01*
X1016544Y341640D01*
X1016733Y341662D01*
X1016926Y341683D01*
X1016935Y341686D01*
X1016943Y341687D01*
X1017125Y341746D01*
X1017310Y341805D01*
X1017318Y341809D01*
X1017326Y341812D01*
X1017492Y341906D01*
X1017662Y342000D01*
X1017669Y342005D01*
X1017677Y342010D01*
X1017822Y342135D01*
X1017969Y342260D01*
X1017975Y342267D01*
X1017982Y342273D01*
X1018098Y342424D01*
X1018219Y342576D01*
X1018223Y342584D01*
X1018228Y342591D01*
X1018312Y342760D01*
X1018401Y342935D01*
X1018404Y342944D01*
X1018408Y342952D01*
X1018457Y343137D01*
X1018509Y343323D01*
X1018510Y343332D01*
X1018512Y343340D01*
X1018539Y343671D01*
X1018539Y354829D01*
X1018538Y354838D01*
X1018539Y354847D01*
X1018518Y355038D01*
X1018499Y355229D01*
X1018497Y355238D01*
X1018496Y355247D01*
X1018438Y355429D01*
X1018381Y355614D01*
X1018377Y355622D01*
X1018374Y355631D01*
X1018281Y355799D01*
X1018189Y355968D01*
X1018184Y355975D01*
X1018179Y355983D01*
X1018054Y356131D01*
X1017932Y356278D01*
X1017925Y356283D01*
X1017919Y356290D01*
X1017767Y356410D01*
X1017618Y356530D01*
X1017610Y356534D01*
X1017603Y356540D01*
X1017431Y356627D01*
X1017261Y356716D01*
X1017252Y356718D01*
X1017244Y356722D01*
X1017058Y356774D01*
X1016874Y356827D01*
X1016865Y356828D01*
X1016856Y356830D01*
X1016664Y356844D01*
X1016472Y356860D01*
X1016464Y356859D01*
X1016455Y356859D01*
X1016262Y356835D01*
X1016073Y356813D01*
X1016064Y356810D01*
X1016055Y356809D01*
X1015872Y356748D01*
X1015690Y356688D01*
X1015682Y356684D01*
X1015674Y356681D01*
X1015508Y356585D01*
X1015339Y356490D01*
X1015332Y356484D01*
X1015325Y356480D01*
X1015072Y356265D01*
X1013913Y355106D01*
X1010946Y353877D01*
X995654Y353877D01*
X992687Y355106D01*
X990416Y357377D01*
X989187Y360344D01*
X989187Y363556D01*
X990416Y366523D01*
X992687Y368794D01*
X995654Y370023D01*
X1010946Y370023D01*
X1013913Y368794D01*
X1015072Y367635D01*
X1015079Y367629D01*
X1015084Y367622D01*
X1015235Y367501D01*
X1015383Y367380D01*
X1015391Y367376D01*
X1015398Y367370D01*
X1015568Y367282D01*
X1015739Y367191D01*
X1015748Y367189D01*
X1015755Y367184D01*
X1015940Y367131D01*
X1016125Y367076D01*
X1016134Y367076D01*
X1016142Y367073D01*
X1016333Y367057D01*
X1016526Y367040D01*
X1016535Y367041D01*
X1016544Y367040D01*
X1016733Y367062D01*
X1016926Y367083D01*
X1016935Y367086D01*
X1016943Y367087D01*
X1017125Y367146D01*
X1017310Y367205D01*
X1017318Y367209D01*
X1017326Y367212D01*
X1017493Y367306D01*
X1017662Y367400D01*
X1017669Y367405D01*
X1017677Y367410D01*
X1017822Y367535D01*
X1017969Y367660D01*
X1017975Y367667D01*
X1017982Y367673D01*
X1018098Y367824D01*
X1018219Y367976D01*
X1018223Y367984D01*
X1018228Y367991D01*
X1018313Y368162D01*
X1018401Y368335D01*
X1018404Y368344D01*
X1018408Y368352D01*
X1018457Y368537D01*
X1018509Y368723D01*
X1018510Y368732D01*
X1018512Y368740D01*
X1018539Y369071D01*
X1018539Y380229D01*
X1018538Y380238D01*
X1018539Y380247D01*
X1018518Y380438D01*
X1018499Y380629D01*
X1018497Y380638D01*
X1018496Y380647D01*
X1018438Y380829D01*
X1018381Y381014D01*
X1018377Y381022D01*
X1018374Y381031D01*
X1018281Y381199D01*
X1018189Y381368D01*
X1018184Y381375D01*
X1018179Y381383D01*
X1018054Y381531D01*
X1017932Y381678D01*
X1017925Y381683D01*
X1017919Y381690D01*
X1017767Y381810D01*
X1017618Y381930D01*
X1017610Y381934D01*
X1017603Y381940D01*
X1017431Y382027D01*
X1017261Y382116D01*
X1017252Y382118D01*
X1017244Y382122D01*
X1017058Y382174D01*
X1016874Y382227D01*
X1016865Y382228D01*
X1016856Y382230D01*
X1016664Y382244D01*
X1016472Y382260D01*
X1016464Y382259D01*
X1016455Y382259D01*
X1016262Y382235D01*
X1016073Y382213D01*
X1016064Y382210D01*
X1016055Y382209D01*
X1015872Y382148D01*
X1015690Y382088D01*
X1015682Y382084D01*
X1015674Y382081D01*
X1015508Y381985D01*
X1015339Y381890D01*
X1015332Y381884D01*
X1015325Y381880D01*
X1015072Y381665D01*
X1013913Y380506D01*
X1010946Y379277D01*
X995654Y379277D01*
X992687Y380506D01*
X991519Y381674D01*
X991498Y381691D01*
X991481Y381712D01*
X991343Y381819D01*
X991208Y381929D01*
X991184Y381942D01*
X991163Y381958D01*
X991006Y382036D01*
X990852Y382118D01*
X990826Y382126D01*
X990802Y382138D01*
X990633Y382183D01*
X990466Y382233D01*
X990439Y382235D01*
X990414Y382242D01*
X990083Y382269D01*
X980064Y382269D01*
X978197Y383043D01*
X960893Y400347D01*
X960119Y402214D01*
X960119Y407950D01*
X960117Y407977D01*
X960119Y408003D01*
X960097Y408177D01*
X960079Y408351D01*
X960072Y408376D01*
X960068Y408403D01*
X960013Y408569D01*
X959961Y408736D01*
X959948Y408759D01*
X959940Y408785D01*
X959853Y408936D01*
X959769Y409090D01*
X959752Y409110D01*
X959739Y409133D01*
X959524Y409386D01*
X956563Y412348D01*
X956563Y418338D01*
X956561Y418356D01*
X956563Y418374D01*
X956542Y418556D01*
X956523Y418739D01*
X956518Y418756D01*
X956516Y418773D01*
X956459Y418948D01*
X956405Y419124D01*
X956397Y419139D01*
X956391Y419156D01*
X956301Y419316D01*
X956213Y419478D01*
X956202Y419491D01*
X956193Y419507D01*
X956073Y419646D01*
X955956Y419787D01*
X955942Y419798D01*
X955930Y419812D01*
X955785Y419924D01*
X955642Y420039D01*
X955626Y420047D01*
X955612Y420058D01*
X955447Y420140D01*
X955285Y420225D01*
X955268Y420230D01*
X955252Y420238D01*
X955073Y420285D01*
X954898Y420336D01*
X954880Y420338D01*
X954863Y420342D01*
X954532Y420369D01*
X930854Y420369D01*
X930836Y420367D01*
X930818Y420369D01*
X930636Y420348D01*
X930453Y420329D01*
X930436Y420324D01*
X930419Y420322D01*
X930244Y420265D01*
X930068Y420211D01*
X930053Y420203D01*
X930036Y420197D01*
X929876Y420107D01*
X929714Y420019D01*
X929701Y420008D01*
X929685Y419999D01*
X929546Y419879D01*
X929405Y419762D01*
X929394Y419748D01*
X929380Y419736D01*
X929268Y419591D01*
X929153Y419448D01*
X929145Y419432D01*
X929134Y419418D01*
X929052Y419253D01*
X928967Y419091D01*
X928962Y419074D01*
X928954Y419058D01*
X928906Y418879D01*
X928856Y418704D01*
X928854Y418686D01*
X928850Y418669D01*
X928823Y418338D01*
X928823Y417804D01*
X927594Y414837D01*
X925323Y412566D01*
X922356Y411337D01*
X919144Y411337D01*
X916177Y412566D01*
X913906Y414837D01*
X912677Y417804D01*
X912677Y433096D01*
X913906Y436063D01*
X916177Y438334D01*
X919144Y439563D01*
X922356Y439563D01*
X925323Y438334D01*
X927594Y436063D01*
X928823Y433096D01*
X928823Y432562D01*
X928825Y432544D01*
X928823Y432526D01*
X928844Y432344D01*
X928863Y432161D01*
X928868Y432144D01*
X928870Y432127D01*
X928927Y431952D01*
X928981Y431776D01*
X928989Y431761D01*
X928995Y431744D01*
X929085Y431584D01*
X929173Y431422D01*
X929184Y431409D01*
X929193Y431393D01*
X929313Y431254D01*
X929430Y431113D01*
X929444Y431102D01*
X929456Y431088D01*
X929601Y430976D01*
X929744Y430861D01*
X929760Y430853D01*
X929774Y430842D01*
X929939Y430760D01*
X930101Y430675D01*
X930118Y430670D01*
X930134Y430662D01*
X930313Y430615D01*
X930488Y430564D01*
X930506Y430562D01*
X930523Y430558D01*
X930854Y430531D01*
X962254Y430531D01*
X962281Y430533D01*
X962307Y430531D01*
X962481Y430553D01*
X962655Y430571D01*
X962680Y430578D01*
X962707Y430582D01*
X962873Y430637D01*
X963040Y430689D01*
X963063Y430702D01*
X963089Y430710D01*
X963240Y430797D01*
X963394Y430881D01*
X963414Y430898D01*
X963437Y430911D01*
X963690Y431126D01*
X965874Y433310D01*
X965891Y433330D01*
X965912Y433348D01*
X966019Y433486D01*
X966129Y433621D01*
X966142Y433645D01*
X966158Y433666D01*
X966236Y433823D01*
X966318Y433977D01*
X966326Y434002D01*
X966338Y434026D01*
X966383Y434196D01*
X966433Y434363D01*
X966435Y434389D01*
X966442Y434415D01*
X966469Y434746D01*
X966469Y455575D01*
X966467Y455602D01*
X966469Y455628D01*
X966447Y455802D01*
X966429Y455976D01*
X966422Y456001D01*
X966418Y456028D01*
X966363Y456194D01*
X966311Y456361D01*
X966298Y456384D01*
X966290Y456410D01*
X966203Y456561D01*
X966119Y456715D01*
X966102Y456735D01*
X966089Y456758D01*
X965874Y457011D01*
X962913Y459973D01*
X962913Y467127D01*
X967973Y472187D01*
X975127Y472187D01*
X980187Y467127D01*
X980187Y459973D01*
X977226Y457011D01*
X977209Y456991D01*
X977188Y456973D01*
X977081Y456835D01*
X976971Y456700D01*
X976958Y456676D01*
X976942Y456655D01*
X976864Y456498D01*
X976782Y456344D01*
X976774Y456319D01*
X976762Y456295D01*
X976717Y456125D01*
X976667Y455958D01*
X976665Y455932D01*
X976658Y455906D01*
X976631Y455575D01*
X976631Y430789D01*
X975857Y428922D01*
X971574Y424638D01*
X971562Y424624D01*
X971549Y424613D01*
X971435Y424469D01*
X971318Y424327D01*
X971310Y424311D01*
X971299Y424297D01*
X971215Y424132D01*
X971130Y423971D01*
X971125Y423954D01*
X971117Y423938D01*
X971067Y423760D01*
X971015Y423585D01*
X971013Y423567D01*
X971009Y423550D01*
X970995Y423367D01*
X970979Y423184D01*
X970981Y423166D01*
X970979Y423149D01*
X971002Y422967D01*
X971022Y422784D01*
X971027Y422767D01*
X971030Y422749D01*
X971088Y422575D01*
X971144Y422400D01*
X971152Y422384D01*
X971158Y422368D01*
X971249Y422209D01*
X971338Y422048D01*
X971350Y422034D01*
X971359Y422019D01*
X971574Y421766D01*
X973837Y419502D01*
X973837Y412348D01*
X970876Y409386D01*
X970859Y409366D01*
X970838Y409348D01*
X970731Y409210D01*
X970621Y409075D01*
X970608Y409051D01*
X970592Y409030D01*
X970514Y408873D01*
X970432Y408719D01*
X970424Y408694D01*
X970412Y408670D01*
X970367Y408500D01*
X970317Y408333D01*
X970315Y408307D01*
X970308Y408281D01*
X970281Y407950D01*
X970281Y406171D01*
X970283Y406144D01*
X970281Y406118D01*
X970303Y405944D01*
X970321Y405770D01*
X970328Y405745D01*
X970332Y405718D01*
X970387Y405552D01*
X970439Y405385D01*
X970452Y405362D01*
X970460Y405336D01*
X970548Y405184D01*
X970631Y405031D01*
X970648Y405011D01*
X970661Y404988D01*
X970876Y404735D01*
X982585Y393026D01*
X982605Y393009D01*
X982623Y392988D01*
X982761Y392881D01*
X982896Y392771D01*
X982920Y392758D01*
X982941Y392742D01*
X983098Y392664D01*
X983252Y392582D01*
X983277Y392574D01*
X983301Y392562D01*
X983471Y392517D01*
X983638Y392467D01*
X983664Y392465D01*
X983690Y392458D01*
X984021Y392431D01*
X990083Y392431D01*
X990109Y392433D01*
X990136Y392431D01*
X990310Y392453D01*
X990483Y392471D01*
X990509Y392478D01*
X990536Y392482D01*
X990701Y392538D01*
X990868Y392589D01*
X990892Y392602D01*
X990917Y392610D01*
X991069Y392697D01*
X991222Y392781D01*
X991243Y392798D01*
X991266Y392811D01*
X991519Y393026D01*
X992687Y394194D01*
X995654Y395423D01*
X1010946Y395423D01*
X1013913Y394194D01*
X1015072Y393035D01*
X1015079Y393029D01*
X1015084Y393022D01*
X1015235Y392901D01*
X1015383Y392780D01*
X1015391Y392776D01*
X1015398Y392770D01*
X1015568Y392682D01*
X1015739Y392591D01*
X1015748Y392589D01*
X1015755Y392584D01*
X1015940Y392531D01*
X1016125Y392476D01*
X1016134Y392476D01*
X1016142Y392473D01*
X1016333Y392457D01*
X1016526Y392440D01*
X1016535Y392441D01*
X1016544Y392440D01*
X1016733Y392462D01*
X1016926Y392483D01*
X1016935Y392486D01*
X1016943Y392487D01*
X1017125Y392546D01*
X1017310Y392605D01*
X1017318Y392609D01*
X1017326Y392612D01*
X1017493Y392706D01*
X1017662Y392800D01*
X1017669Y392805D01*
X1017677Y392810D01*
X1017822Y392935D01*
X1017969Y393060D01*
X1017975Y393067D01*
X1017982Y393073D01*
X1018098Y393224D01*
X1018219Y393376D01*
X1018223Y393384D01*
X1018228Y393391D01*
X1018313Y393562D01*
X1018401Y393735D01*
X1018404Y393744D01*
X1018408Y393752D01*
X1018457Y393937D01*
X1018509Y394123D01*
X1018510Y394132D01*
X1018512Y394140D01*
X1018539Y394471D01*
X1018539Y527558D01*
X1018537Y527576D01*
X1018539Y527594D01*
X1018518Y527776D01*
X1018499Y527959D01*
X1018494Y527976D01*
X1018492Y527993D01*
X1018435Y528168D01*
X1018381Y528344D01*
X1018373Y528359D01*
X1018367Y528376D01*
X1018277Y528536D01*
X1018189Y528698D01*
X1018178Y528711D01*
X1018169Y528727D01*
X1018049Y528866D01*
X1017932Y529007D01*
X1017918Y529018D01*
X1017906Y529032D01*
X1017761Y529144D01*
X1017618Y529259D01*
X1017602Y529267D01*
X1017588Y529278D01*
X1017423Y529360D01*
X1017261Y529445D01*
X1017244Y529450D01*
X1017228Y529458D01*
X1017049Y529505D01*
X1016874Y529556D01*
X1016856Y529558D01*
X1016839Y529562D01*
X1016508Y529589D01*
X966963Y529589D01*
X966954Y529588D01*
X966945Y529589D01*
X966752Y529568D01*
X966562Y529549D01*
X966554Y529547D01*
X966545Y529546D01*
X966361Y529488D01*
X966177Y529431D01*
X966170Y529427D01*
X966161Y529424D01*
X965993Y529332D01*
X965823Y529239D01*
X965817Y529234D01*
X965809Y529229D01*
X965662Y529105D01*
X965514Y528982D01*
X965509Y528975D01*
X965502Y528969D01*
X965382Y528817D01*
X965262Y528668D01*
X965258Y528660D01*
X965252Y528653D01*
X965164Y528480D01*
X965076Y528311D01*
X965074Y528302D01*
X965070Y528294D01*
X965018Y528108D01*
X964965Y527924D01*
X964964Y527915D01*
X964962Y527906D01*
X964948Y527713D01*
X964932Y527522D01*
X964933Y527514D01*
X964932Y527505D01*
X964957Y527312D01*
X964979Y527123D01*
X964982Y527114D01*
X964983Y527105D01*
X965044Y526922D01*
X965104Y526740D01*
X965108Y526732D01*
X965111Y526724D01*
X965207Y526557D01*
X965302Y526389D01*
X965307Y526382D01*
X965312Y526375D01*
X965527Y526122D01*
X973567Y518082D01*
X974996Y516652D01*
X975615Y515159D01*
X975615Y497941D01*
X975617Y497914D01*
X975615Y497888D01*
X975637Y497714D01*
X975655Y497540D01*
X975662Y497515D01*
X975666Y497488D01*
X975721Y497322D01*
X975773Y497155D01*
X975786Y497132D01*
X975794Y497106D01*
X975881Y496955D01*
X975965Y496801D01*
X975982Y496781D01*
X975995Y496758D01*
X976210Y496505D01*
X979105Y493610D01*
X979125Y493593D01*
X979143Y493572D01*
X979281Y493465D01*
X979416Y493355D01*
X979440Y493342D01*
X979461Y493326D01*
X979618Y493248D01*
X979772Y493166D01*
X979797Y493158D01*
X979821Y493146D01*
X979991Y493101D01*
X980158Y493051D01*
X980184Y493049D01*
X980210Y493042D01*
X980541Y493015D01*
X991134Y493015D01*
X991161Y493017D01*
X991187Y493015D01*
X991361Y493037D01*
X991535Y493055D01*
X991560Y493062D01*
X991587Y493066D01*
X991753Y493121D01*
X991920Y493173D01*
X991943Y493186D01*
X991969Y493194D01*
X992120Y493281D01*
X992274Y493365D01*
X992294Y493382D01*
X992317Y493395D01*
X992570Y493610D01*
X996548Y497587D01*
X1003702Y497587D01*
X1008762Y492527D01*
X1008762Y485373D01*
X1003702Y480313D01*
X996548Y480313D01*
X992570Y484290D01*
X992550Y484307D01*
X992532Y484328D01*
X992394Y484435D01*
X992259Y484545D01*
X992235Y484558D01*
X992214Y484574D01*
X992057Y484652D01*
X991903Y484734D01*
X991878Y484742D01*
X991854Y484754D01*
X991684Y484799D01*
X991517Y484849D01*
X991491Y484851D01*
X991465Y484858D01*
X991134Y484885D01*
X980541Y484885D01*
X980514Y484883D01*
X980488Y484885D01*
X980314Y484863D01*
X980140Y484845D01*
X980115Y484838D01*
X980088Y484834D01*
X979922Y484779D01*
X979755Y484727D01*
X979732Y484714D01*
X979706Y484706D01*
X979555Y484619D01*
X979401Y484535D01*
X979381Y484518D01*
X979358Y484505D01*
X979105Y484290D01*
X975127Y480313D01*
X967973Y480313D01*
X962913Y485373D01*
X962913Y492527D01*
X966890Y496505D01*
X966907Y496525D01*
X966928Y496543D01*
X967035Y496681D01*
X967145Y496816D01*
X967158Y496840D01*
X967174Y496861D01*
X967252Y497018D01*
X967334Y497172D01*
X967342Y497197D01*
X967354Y497221D01*
X967399Y497391D01*
X967449Y497558D01*
X967451Y497584D01*
X967458Y497610D01*
X967485Y497941D01*
X967485Y511825D01*
X967483Y511852D01*
X967485Y511878D01*
X967463Y512052D01*
X967445Y512226D01*
X967438Y512251D01*
X967434Y512278D01*
X967379Y512443D01*
X967327Y512610D01*
X967314Y512634D01*
X967306Y512659D01*
X967219Y512811D01*
X967135Y512965D01*
X967118Y512985D01*
X967105Y513008D01*
X966890Y513261D01*
X957761Y522390D01*
X957741Y522407D01*
X957723Y522428D01*
X957585Y522535D01*
X957450Y522645D01*
X957426Y522658D01*
X957405Y522674D01*
X957248Y522752D01*
X957094Y522834D01*
X957069Y522842D01*
X957044Y522854D01*
X956875Y522899D01*
X956708Y522949D01*
X956682Y522951D01*
X956656Y522958D01*
X956325Y522985D01*
X876046Y522985D01*
X876028Y522983D01*
X876010Y522985D01*
X875828Y522964D01*
X875645Y522945D01*
X875628Y522940D01*
X875611Y522938D01*
X875436Y522881D01*
X875260Y522827D01*
X875245Y522819D01*
X875228Y522813D01*
X875068Y522723D01*
X874906Y522635D01*
X874893Y522624D01*
X874877Y522615D01*
X874738Y522495D01*
X874597Y522378D01*
X874586Y522364D01*
X874572Y522352D01*
X874460Y522207D01*
X874345Y522064D01*
X874337Y522048D01*
X874326Y522034D01*
X874244Y521869D01*
X874159Y521707D01*
X874154Y521690D01*
X874146Y521674D01*
X874099Y521495D01*
X874048Y521320D01*
X874046Y521302D01*
X874042Y521285D01*
X874015Y520954D01*
X874015Y515883D01*
X874017Y515857D01*
X874015Y515830D01*
X874037Y515656D01*
X874055Y515483D01*
X874062Y515457D01*
X874066Y515430D01*
X874121Y515265D01*
X874173Y515098D01*
X874186Y515074D01*
X874194Y515049D01*
X874281Y514897D01*
X874365Y514744D01*
X874382Y514723D01*
X874395Y514700D01*
X874610Y514447D01*
X876794Y512263D01*
X878023Y509296D01*
X878023Y494004D01*
X876794Y491037D01*
X874523Y488766D01*
X872532Y487942D01*
X871219Y487398D01*
X871215Y487396D01*
X871210Y487394D01*
X871038Y487301D01*
X870864Y487207D01*
X870860Y487205D01*
X870856Y487202D01*
X870708Y487078D01*
X870553Y486951D01*
X870550Y486948D01*
X870547Y486945D01*
X870424Y486792D01*
X870300Y486638D01*
X870298Y486634D01*
X870295Y486631D01*
X870204Y486456D01*
X870113Y486282D01*
X870111Y486278D01*
X870109Y486274D01*
X870055Y486084D01*
X869999Y485895D01*
X869999Y485891D01*
X869998Y485887D01*
X869981Y485685D01*
X869965Y485494D01*
X869965Y485490D01*
X869965Y485485D01*
X869988Y485288D01*
X870010Y485094D01*
X870011Y485090D01*
X870012Y485086D01*
X870075Y484891D01*
X870133Y484711D01*
X870135Y484707D01*
X870137Y484703D01*
X870234Y484530D01*
X870330Y484359D01*
X870332Y484356D01*
X870335Y484352D01*
X870463Y484203D01*
X870591Y484054D01*
X870595Y484051D01*
X870598Y484047D01*
X870752Y483928D01*
X870908Y483805D01*
X870912Y483803D01*
X870916Y483801D01*
X871092Y483713D01*
X871268Y483625D01*
X871272Y483623D01*
X871276Y483621D01*
X871469Y483570D01*
X871656Y483518D01*
X871661Y483518D01*
X871665Y483517D01*
X871996Y483490D01*
X883300Y483490D01*
X883327Y483492D01*
X883353Y483490D01*
X883527Y483512D01*
X883701Y483530D01*
X883726Y483537D01*
X883753Y483541D01*
X883918Y483596D01*
X884085Y483648D01*
X884109Y483661D01*
X884134Y483669D01*
X884286Y483756D01*
X884440Y483840D01*
X884460Y483857D01*
X884483Y483870D01*
X884736Y484085D01*
X888661Y488010D01*
X888673Y488023D01*
X888686Y488035D01*
X888800Y488179D01*
X888916Y488321D01*
X888925Y488337D01*
X888936Y488351D01*
X889019Y488515D01*
X889105Y488677D01*
X889110Y488694D01*
X889118Y488710D01*
X889167Y488886D01*
X889220Y489063D01*
X889221Y489081D01*
X889226Y489098D01*
X889239Y489281D01*
X889256Y489464D01*
X889254Y489481D01*
X889255Y489499D01*
X889233Y489680D01*
X889213Y489864D01*
X889207Y489881D01*
X889205Y489899D01*
X889147Y490072D01*
X889091Y490248D01*
X889083Y490264D01*
X889077Y490280D01*
X888986Y490438D01*
X888896Y490600D01*
X888885Y490614D01*
X888876Y490629D01*
X888661Y490882D01*
X888506Y491037D01*
X887277Y494004D01*
X887277Y509296D01*
X888506Y512263D01*
X890777Y514534D01*
X893744Y515763D01*
X896956Y515763D01*
X899923Y514534D01*
X902194Y512263D01*
X903423Y509296D01*
X903423Y494004D01*
X902194Y491037D01*
X899783Y488626D01*
X899763Y488602D01*
X899740Y488582D01*
X899636Y488447D01*
X899528Y488315D01*
X899513Y488287D01*
X899494Y488263D01*
X899343Y487967D01*
X898796Y486648D01*
X888127Y475979D01*
X886634Y475360D01*
X866125Y475360D01*
X866098Y475358D01*
X866072Y475360D01*
X865898Y475338D01*
X865724Y475320D01*
X865699Y475313D01*
X865672Y475309D01*
X865507Y475254D01*
X865340Y475202D01*
X865316Y475189D01*
X865291Y475181D01*
X865139Y475094D01*
X864985Y475010D01*
X864965Y474993D01*
X864942Y474980D01*
X864689Y474765D01*
X861006Y471082D01*
X861000Y471075D01*
X860993Y471070D01*
X860873Y470920D01*
X860751Y470771D01*
X860746Y470763D01*
X860741Y470756D01*
X860652Y470584D01*
X860562Y470415D01*
X860559Y470406D01*
X860555Y470399D01*
X860502Y470214D01*
X860447Y470029D01*
X860446Y470020D01*
X860444Y470012D01*
X860428Y469821D01*
X860411Y469628D01*
X860412Y469619D01*
X860411Y469610D01*
X860433Y469421D01*
X860454Y469228D01*
X860457Y469219D01*
X860458Y469211D01*
X860517Y469029D01*
X860576Y468844D01*
X860580Y468836D01*
X860583Y468828D01*
X860678Y468659D01*
X860771Y468492D01*
X860776Y468485D01*
X860781Y468477D01*
X860907Y468331D01*
X861031Y468185D01*
X861038Y468179D01*
X861044Y468172D01*
X861195Y468055D01*
X861347Y467935D01*
X861355Y467931D01*
X861362Y467926D01*
X861534Y467840D01*
X861706Y467753D01*
X861714Y467750D01*
X861722Y467746D01*
X861908Y467696D01*
X862094Y467645D01*
X862103Y467644D01*
X862111Y467642D01*
X862442Y467615D01*
X905525Y467615D01*
X905552Y467617D01*
X905578Y467615D01*
X905752Y467637D01*
X905926Y467655D01*
X905951Y467662D01*
X905978Y467666D01*
X906143Y467721D01*
X906310Y467773D01*
X906334Y467786D01*
X906359Y467794D01*
X906511Y467881D01*
X906665Y467965D01*
X906685Y467982D01*
X906708Y467995D01*
X906961Y468210D01*
X916090Y477339D01*
X916107Y477359D01*
X916128Y477377D01*
X916235Y477515D01*
X916345Y477650D01*
X916358Y477674D01*
X916374Y477695D01*
X916452Y477852D01*
X916534Y478006D01*
X916542Y478031D01*
X916554Y478056D01*
X916599Y478225D01*
X916649Y478392D01*
X916651Y478418D01*
X916658Y478444D01*
X916685Y478775D01*
X916685Y487417D01*
X916683Y487443D01*
X916685Y487470D01*
X916663Y487644D01*
X916645Y487817D01*
X916638Y487843D01*
X916634Y487870D01*
X916578Y488035D01*
X916527Y488202D01*
X916514Y488226D01*
X916506Y488251D01*
X916419Y488403D01*
X916335Y488556D01*
X916318Y488577D01*
X916305Y488600D01*
X916090Y488853D01*
X913906Y491037D01*
X912677Y494004D01*
X912677Y509296D01*
X913906Y512263D01*
X916177Y514534D01*
X919144Y515763D01*
X922356Y515763D01*
X925323Y514534D01*
X927594Y512263D01*
X928823Y509296D01*
X928823Y494004D01*
X927594Y491037D01*
X925410Y488853D01*
X925393Y488832D01*
X925372Y488815D01*
X925265Y488677D01*
X925155Y488542D01*
X925142Y488518D01*
X925126Y488497D01*
X925048Y488340D01*
X924966Y488186D01*
X924958Y488160D01*
X924946Y488136D01*
X924901Y487967D01*
X924851Y487800D01*
X924849Y487773D01*
X924842Y487748D01*
X924815Y487417D01*
X924815Y475441D01*
X924196Y473948D01*
X910352Y460104D01*
X908859Y459485D01*
X866125Y459485D01*
X866098Y459483D01*
X866072Y459485D01*
X865898Y459463D01*
X865724Y459445D01*
X865699Y459438D01*
X865672Y459434D01*
X865507Y459379D01*
X865340Y459327D01*
X865316Y459314D01*
X865291Y459306D01*
X865139Y459219D01*
X864985Y459135D01*
X864965Y459118D01*
X864942Y459105D01*
X864689Y458890D01*
X849210Y443411D01*
X849193Y443391D01*
X849172Y443373D01*
X849065Y443235D01*
X848955Y443100D01*
X848942Y443076D01*
X848926Y443055D01*
X848847Y442898D01*
X848766Y442744D01*
X848758Y442719D01*
X848746Y442694D01*
X848701Y442525D01*
X848651Y442358D01*
X848649Y442332D01*
X848642Y442306D01*
X848615Y441975D01*
X848615Y439683D01*
X848617Y439657D01*
X848615Y439630D01*
X848637Y439456D01*
X848655Y439283D01*
X848662Y439257D01*
X848666Y439230D01*
X848722Y439065D01*
X848773Y438898D01*
X848786Y438874D01*
X848794Y438849D01*
X848881Y438697D01*
X848965Y438544D01*
X848982Y438523D01*
X848995Y438500D01*
X849210Y438247D01*
X851394Y436063D01*
X852623Y433096D01*
X852623Y417804D01*
X851394Y414837D01*
X849123Y412566D01*
X846156Y411337D01*
X842944Y411337D01*
X839977Y412566D01*
X837706Y414837D01*
X836477Y417804D01*
X836477Y433096D01*
X837706Y436063D01*
X839890Y438247D01*
X839907Y438268D01*
X839928Y438285D01*
X840035Y438423D01*
X840145Y438558D01*
X840158Y438582D01*
X840174Y438603D01*
X840252Y438760D01*
X840334Y438914D01*
X840342Y438940D01*
X840354Y438964D01*
X840399Y439133D01*
X840449Y439300D01*
X840451Y439327D01*
X840458Y439352D01*
X840485Y439683D01*
X840485Y445658D01*
X840484Y445667D01*
X840485Y445676D01*
X840464Y445868D01*
X840445Y446059D01*
X840443Y446067D01*
X840442Y446076D01*
X840384Y446258D01*
X840327Y446444D01*
X840323Y446451D01*
X840320Y446460D01*
X840227Y446628D01*
X840135Y446798D01*
X840130Y446804D01*
X840125Y446812D01*
X840001Y446959D01*
X839878Y447107D01*
X839871Y447112D01*
X839865Y447119D01*
X839714Y447238D01*
X839564Y447359D01*
X839556Y447363D01*
X839549Y447369D01*
X839376Y447457D01*
X839207Y447545D01*
X839198Y447547D01*
X839190Y447551D01*
X839004Y447603D01*
X838820Y447656D01*
X838811Y447657D01*
X838802Y447659D01*
X838609Y447673D01*
X838418Y447689D01*
X838410Y447688D01*
X838401Y447689D01*
X838208Y447664D01*
X838019Y447642D01*
X838010Y447639D01*
X838001Y447638D01*
X837818Y447577D01*
X837636Y447517D01*
X837628Y447513D01*
X837620Y447510D01*
X837453Y447414D01*
X837285Y447319D01*
X837278Y447314D01*
X837271Y447309D01*
X837018Y447094D01*
X832407Y442483D01*
X830977Y441054D01*
X829484Y440435D01*
X805800Y440435D01*
X805773Y440433D01*
X805747Y440435D01*
X805573Y440413D01*
X805399Y440395D01*
X805374Y440388D01*
X805347Y440384D01*
X805182Y440329D01*
X805015Y440277D01*
X804991Y440264D01*
X804966Y440256D01*
X804814Y440169D01*
X804660Y440085D01*
X804640Y440068D01*
X804617Y440055D01*
X804364Y439840D01*
X793457Y428933D01*
X793440Y428913D01*
X793419Y428895D01*
X793312Y428757D01*
X793202Y428622D01*
X793189Y428598D01*
X793173Y428577D01*
X793095Y428420D01*
X793013Y428266D01*
X793005Y428241D01*
X792993Y428216D01*
X792948Y428047D01*
X792898Y427880D01*
X792896Y427854D01*
X792889Y427828D01*
X792862Y427497D01*
X792862Y421873D01*
X787802Y416813D01*
X780648Y416813D01*
X775588Y421873D01*
X775588Y429027D01*
X780648Y434087D01*
X786272Y434087D01*
X786299Y434089D01*
X786325Y434087D01*
X786499Y434109D01*
X786673Y434127D01*
X786698Y434134D01*
X786725Y434138D01*
X786890Y434193D01*
X787057Y434245D01*
X787081Y434258D01*
X787106Y434266D01*
X787258Y434353D01*
X787412Y434437D01*
X787432Y434454D01*
X787455Y434467D01*
X787708Y434682D01*
X800973Y447946D01*
X802466Y448565D01*
X826150Y448565D01*
X826177Y448567D01*
X826203Y448565D01*
X826377Y448587D01*
X826551Y448605D01*
X826576Y448612D01*
X826603Y448616D01*
X826768Y448671D01*
X826935Y448723D01*
X826959Y448736D01*
X826984Y448744D01*
X827136Y448831D01*
X827290Y448915D01*
X827310Y448932D01*
X827333Y448945D01*
X827586Y449160D01*
X861298Y482871D01*
X862791Y483490D01*
X867904Y483490D01*
X867909Y483490D01*
X867913Y483490D01*
X868107Y483510D01*
X868305Y483530D01*
X868309Y483531D01*
X868313Y483531D01*
X868499Y483589D01*
X868690Y483648D01*
X868694Y483650D01*
X868698Y483651D01*
X868869Y483745D01*
X869044Y483840D01*
X869047Y483842D01*
X869051Y483845D01*
X869202Y483972D01*
X869353Y484097D01*
X869356Y484101D01*
X869359Y484104D01*
X869482Y484258D01*
X869605Y484411D01*
X869607Y484415D01*
X869610Y484418D01*
X869700Y484594D01*
X869791Y484768D01*
X869792Y484773D01*
X869794Y484777D01*
X869847Y484965D01*
X869902Y485155D01*
X869903Y485160D01*
X869904Y485164D01*
X869918Y485354D01*
X869935Y485557D01*
X869935Y485561D01*
X869935Y485565D01*
X869911Y485758D01*
X869888Y485956D01*
X869887Y485961D01*
X869886Y485965D01*
X869826Y486148D01*
X869763Y486339D01*
X869761Y486343D01*
X869760Y486347D01*
X869666Y486511D01*
X869565Y486690D01*
X869562Y486693D01*
X869560Y486697D01*
X869433Y486844D01*
X869302Y486994D01*
X869299Y486997D01*
X869296Y487001D01*
X869139Y487121D01*
X868984Y487241D01*
X868980Y487243D01*
X868977Y487246D01*
X868681Y487398D01*
X865377Y488766D01*
X863106Y491037D01*
X861877Y494004D01*
X861877Y509296D01*
X863106Y512263D01*
X865290Y514447D01*
X865307Y514468D01*
X865328Y514485D01*
X865435Y514623D01*
X865545Y514758D01*
X865558Y514782D01*
X865574Y514803D01*
X865652Y514960D01*
X865734Y515114D01*
X865742Y515140D01*
X865754Y515164D01*
X865799Y515333D01*
X865849Y515500D01*
X865851Y515527D01*
X865858Y515552D01*
X865885Y515883D01*
X865885Y520954D01*
X865883Y520972D01*
X865885Y520990D01*
X865864Y521172D01*
X865845Y521355D01*
X865840Y521372D01*
X865838Y521389D01*
X865781Y521564D01*
X865727Y521740D01*
X865719Y521755D01*
X865713Y521772D01*
X865623Y521932D01*
X865535Y522094D01*
X865524Y522107D01*
X865515Y522123D01*
X865395Y522262D01*
X865278Y522403D01*
X865264Y522414D01*
X865252Y522428D01*
X865107Y522540D01*
X864964Y522655D01*
X864948Y522663D01*
X864934Y522674D01*
X864769Y522756D01*
X864607Y522841D01*
X864590Y522846D01*
X864574Y522854D01*
X864395Y522901D01*
X864220Y522952D01*
X864202Y522954D01*
X864185Y522958D01*
X863854Y522985D01*
X758175Y522985D01*
X758148Y522983D01*
X758122Y522985D01*
X757948Y522963D01*
X757774Y522945D01*
X757749Y522938D01*
X757722Y522934D01*
X757557Y522879D01*
X757390Y522827D01*
X757366Y522814D01*
X757341Y522806D01*
X757189Y522719D01*
X757035Y522635D01*
X757015Y522618D01*
X756992Y522605D01*
X756739Y522390D01*
X747610Y513261D01*
X747593Y513241D01*
X747572Y513223D01*
X747465Y513085D01*
X747355Y512950D01*
X747342Y512926D01*
X747326Y512905D01*
X747248Y512748D01*
X747166Y512594D01*
X747158Y512569D01*
X747146Y512544D01*
X747101Y512375D01*
X747051Y512208D01*
X747049Y512182D01*
X747042Y512156D01*
X747015Y511825D01*
X747015Y497941D01*
X747017Y497914D01*
X747015Y497888D01*
X747037Y497714D01*
X747055Y497540D01*
X747062Y497515D01*
X747066Y497488D01*
X747121Y497322D01*
X747173Y497155D01*
X747186Y497132D01*
X747194Y497106D01*
X747281Y496955D01*
X747365Y496801D01*
X747382Y496781D01*
X747395Y496758D01*
X747610Y496505D01*
X751587Y492527D01*
X751587Y485373D01*
X746527Y480313D01*
X739373Y480313D01*
X734313Y485373D01*
X734313Y492527D01*
X738290Y496505D01*
X738307Y496525D01*
X738328Y496543D01*
X738435Y496681D01*
X738545Y496816D01*
X738558Y496840D01*
X738574Y496861D01*
X738652Y497018D01*
X738734Y497172D01*
X738742Y497197D01*
X738754Y497221D01*
X738799Y497391D01*
X738849Y497558D01*
X738851Y497584D01*
X738858Y497610D01*
X738885Y497941D01*
X738885Y515159D01*
X739504Y516652D01*
X748973Y526122D01*
X748979Y526129D01*
X748986Y526134D01*
X749106Y526284D01*
X749228Y526433D01*
X749233Y526441D01*
X749238Y526448D01*
X749327Y526618D01*
X749417Y526789D01*
X749420Y526798D01*
X749424Y526805D01*
X749477Y526990D01*
X749532Y527175D01*
X749533Y527184D01*
X749535Y527192D01*
X749551Y527384D01*
X749568Y527576D01*
X749567Y527585D01*
X749568Y527594D01*
X749546Y527783D01*
X749525Y527976D01*
X749522Y527985D01*
X749521Y527993D01*
X749462Y528173D01*
X749403Y528360D01*
X749399Y528368D01*
X749396Y528376D01*
X749301Y528545D01*
X749208Y528712D01*
X749203Y528719D01*
X749198Y528727D01*
X749072Y528873D01*
X748948Y529019D01*
X748941Y529025D01*
X748935Y529032D01*
X748784Y529149D01*
X748632Y529269D01*
X748624Y529273D01*
X748617Y529278D01*
X748445Y529364D01*
X748273Y529451D01*
X748265Y529454D01*
X748257Y529458D01*
X748070Y529508D01*
X747885Y529559D01*
X747876Y529560D01*
X747868Y529562D01*
X747537Y529589D01*
X712963Y529589D01*
X712954Y529588D01*
X712945Y529589D01*
X712752Y529568D01*
X712562Y529549D01*
X712554Y529547D01*
X712545Y529546D01*
X712360Y529487D01*
X712177Y529431D01*
X712170Y529427D01*
X712161Y529424D01*
X711993Y529331D01*
X711823Y529239D01*
X711817Y529234D01*
X711809Y529229D01*
X711662Y529105D01*
X711514Y528982D01*
X711509Y528975D01*
X711502Y528969D01*
X711382Y528817D01*
X711262Y528668D01*
X711258Y528660D01*
X711252Y528653D01*
X711164Y528480D01*
X711076Y528311D01*
X711074Y528302D01*
X711070Y528294D01*
X711018Y528108D01*
X710965Y527924D01*
X710964Y527915D01*
X710962Y527906D01*
X710948Y527713D01*
X710932Y527522D01*
X710933Y527514D01*
X710932Y527505D01*
X710957Y527312D01*
X710979Y527123D01*
X710982Y527114D01*
X710983Y527105D01*
X711044Y526923D01*
X711104Y526740D01*
X711108Y526732D01*
X711111Y526724D01*
X711207Y526557D01*
X711302Y526389D01*
X711307Y526382D01*
X711312Y526375D01*
X711527Y526122D01*
X725917Y511732D01*
X725917Y511731D01*
X727346Y510302D01*
X727965Y508809D01*
X727965Y485241D01*
X727967Y485214D01*
X727965Y485188D01*
X727987Y485013D01*
X728005Y484840D01*
X728012Y484815D01*
X728016Y484788D01*
X728071Y484622D01*
X728123Y484455D01*
X728136Y484432D01*
X728144Y484406D01*
X728231Y484255D01*
X728315Y484101D01*
X728332Y484081D01*
X728345Y484058D01*
X728560Y483805D01*
X732537Y479827D01*
X732537Y472673D01*
X727477Y467613D01*
X720323Y467613D01*
X715263Y472673D01*
X715263Y479827D01*
X719240Y483805D01*
X719257Y483825D01*
X719278Y483843D01*
X719385Y483981D01*
X719495Y484116D01*
X719508Y484140D01*
X719524Y484161D01*
X719602Y484317D01*
X719684Y484472D01*
X719692Y484497D01*
X719704Y484521D01*
X719749Y484691D01*
X719799Y484858D01*
X719801Y484884D01*
X719808Y484910D01*
X719835Y485241D01*
X719835Y505475D01*
X719833Y505502D01*
X719835Y505528D01*
X719813Y505702D01*
X719795Y505876D01*
X719788Y505901D01*
X719784Y505928D01*
X719729Y506093D01*
X719677Y506261D01*
X719664Y506284D01*
X719656Y506309D01*
X719569Y506461D01*
X719485Y506615D01*
X719468Y506635D01*
X719455Y506658D01*
X719240Y506911D01*
X703761Y522390D01*
X703741Y522407D01*
X703723Y522428D01*
X703585Y522535D01*
X703450Y522645D01*
X703426Y522658D01*
X703405Y522674D01*
X703248Y522752D01*
X703094Y522834D01*
X703069Y522842D01*
X703044Y522854D01*
X702875Y522899D01*
X702708Y522949D01*
X702682Y522951D01*
X702656Y522958D01*
X702325Y522985D01*
X605775Y522985D01*
X605748Y522983D01*
X605722Y522985D01*
X605548Y522963D01*
X605374Y522945D01*
X605349Y522938D01*
X605322Y522934D01*
X605157Y522879D01*
X604990Y522827D01*
X604966Y522814D01*
X604941Y522806D01*
X604789Y522719D01*
X604635Y522635D01*
X604615Y522618D01*
X604592Y522605D01*
X604339Y522390D01*
X587082Y505133D01*
X587065Y505113D01*
X587044Y505095D01*
X586937Y504957D01*
X586827Y504822D01*
X586814Y504798D01*
X586798Y504777D01*
X586720Y504620D01*
X586638Y504466D01*
X586630Y504441D01*
X586618Y504416D01*
X586573Y504247D01*
X586523Y504080D01*
X586521Y504054D01*
X586514Y504028D01*
X586487Y503697D01*
X586487Y498073D01*
X581427Y493013D01*
X574273Y493013D01*
X569213Y498073D01*
X569213Y505227D01*
X574273Y510287D01*
X579897Y510287D01*
X579924Y510289D01*
X579950Y510287D01*
X580124Y510309D01*
X580298Y510327D01*
X580323Y510334D01*
X580350Y510338D01*
X580515Y510393D01*
X580682Y510445D01*
X580706Y510458D01*
X580731Y510466D01*
X580883Y510553D01*
X581037Y510637D01*
X581057Y510654D01*
X581080Y510667D01*
X581333Y510882D01*
X596573Y526122D01*
X596579Y526129D01*
X596586Y526134D01*
X596706Y526284D01*
X596828Y526433D01*
X596833Y526441D01*
X596838Y526448D01*
X596927Y526618D01*
X597017Y526789D01*
X597020Y526798D01*
X597024Y526805D01*
X597077Y526990D01*
X597132Y527175D01*
X597133Y527184D01*
X597135Y527192D01*
X597151Y527384D01*
X597168Y527576D01*
X597167Y527585D01*
X597168Y527594D01*
X597146Y527783D01*
X597125Y527976D01*
X597122Y527985D01*
X597121Y527993D01*
X597062Y528173D01*
X597003Y528360D01*
X596999Y528368D01*
X596996Y528376D01*
X596901Y528545D01*
X596808Y528712D01*
X596803Y528719D01*
X596798Y528727D01*
X596672Y528873D01*
X596548Y529019D01*
X596541Y529025D01*
X596535Y529032D01*
X596384Y529149D01*
X596232Y529269D01*
X596224Y529273D01*
X596217Y529278D01*
X596045Y529364D01*
X595873Y529451D01*
X595865Y529454D01*
X595857Y529458D01*
X595670Y529508D01*
X595485Y529559D01*
X595476Y529560D01*
X595468Y529562D01*
X595137Y529589D01*
X144991Y529589D01*
X144918Y529582D01*
X144845Y529584D01*
X144718Y529562D01*
X144590Y529549D01*
X144520Y529528D01*
X144448Y529515D01*
X144328Y529469D01*
X144205Y529431D01*
X144141Y529396D01*
X144073Y529370D01*
X143964Y529301D01*
X143851Y529239D01*
X143795Y529193D01*
X143733Y529153D01*
X143641Y529064D01*
X143542Y528982D01*
X143496Y528925D01*
X143443Y528874D01*
X143370Y528768D01*
X143290Y528668D01*
X143256Y528603D01*
X143214Y528543D01*
X143163Y528424D01*
X143104Y528311D01*
X143084Y528240D01*
X143055Y528173D01*
X143028Y528047D01*
X142993Y527924D01*
X142987Y527851D01*
X142972Y527779D01*
X142971Y527651D01*
X142960Y527522D01*
X142969Y527450D01*
X142968Y527376D01*
X142992Y527250D01*
X143007Y527123D01*
X143030Y527053D01*
X143043Y526981D01*
X143092Y526862D01*
X143132Y526740D01*
X143168Y526676D01*
X143195Y526608D01*
X143267Y526501D01*
X143330Y526389D01*
X143378Y526334D01*
X143418Y526273D01*
X143509Y526182D01*
X143593Y526085D01*
X143651Y526040D01*
X143702Y525988D01*
X143842Y525891D01*
X143911Y525838D01*
X143940Y525823D01*
X143975Y525799D01*
X149453Y522636D01*
X154336Y517753D01*
X157789Y511773D01*
X159576Y505103D01*
X159576Y498197D01*
X157789Y491527D01*
X154336Y485547D01*
X149453Y480664D01*
X143473Y477211D01*
X136803Y475424D01*
X129897Y475424D01*
X123227Y477211D01*
X117247Y480664D01*
X112364Y485547D01*
X108911Y491527D01*
X107124Y498197D01*
X107124Y505103D01*
X108911Y511773D01*
X112364Y517753D01*
X117247Y522636D01*
X122725Y525799D01*
X122784Y525842D01*
X122849Y525877D01*
X122947Y525959D01*
X123052Y526034D01*
X123102Y526087D01*
X123158Y526134D01*
X123238Y526234D01*
X123326Y526329D01*
X123364Y526391D01*
X123410Y526448D01*
X123469Y526562D01*
X123537Y526672D01*
X123562Y526740D01*
X123596Y526805D01*
X123631Y526929D01*
X123676Y527049D01*
X123687Y527122D01*
X123707Y527192D01*
X123718Y527321D01*
X123737Y527447D01*
X123734Y527520D01*
X123740Y527594D01*
X123725Y527721D01*
X123719Y527850D01*
X123702Y527921D01*
X123693Y527993D01*
X123653Y528116D01*
X123622Y528240D01*
X123591Y528306D01*
X123568Y528376D01*
X123505Y528488D01*
X123450Y528604D01*
X123406Y528663D01*
X123370Y528727D01*
X123286Y528824D01*
X123210Y528927D01*
X123155Y528976D01*
X123107Y529032D01*
X123006Y529110D01*
X122910Y529196D01*
X122847Y529233D01*
X122789Y529278D01*
X122674Y529335D01*
X122563Y529401D01*
X122494Y529425D01*
X122429Y529458D01*
X122304Y529491D01*
X122183Y529533D01*
X122111Y529543D01*
X122040Y529562D01*
X121870Y529576D01*
X121784Y529588D01*
X121751Y529586D01*
X121709Y529589D01*
X12192Y529589D01*
X12174Y529587D01*
X12156Y529589D01*
X11974Y529568D01*
X11791Y529549D01*
X11774Y529544D01*
X11757Y529542D01*
X11582Y529485D01*
X11406Y529431D01*
X11391Y529423D01*
X11374Y529417D01*
X11214Y529327D01*
X11052Y529239D01*
X11039Y529228D01*
X11023Y529219D01*
X10884Y529099D01*
X10743Y528982D01*
X10732Y528968D01*
X10718Y528956D01*
X10606Y528811D01*
X10491Y528668D01*
X10483Y528652D01*
X10472Y528638D01*
X10390Y528473D01*
X10305Y528311D01*
X10300Y528294D01*
X10292Y528278D01*
X10245Y528099D01*
X10194Y527924D01*
X10192Y527906D01*
X10188Y527889D01*
X10161Y527558D01*
X10161Y297942D01*
X10163Y297924D01*
X10161Y297906D01*
X10182Y297724D01*
X10201Y297541D01*
X10206Y297524D01*
X10208Y297507D01*
X10265Y297332D01*
X10319Y297156D01*
X10327Y297141D01*
X10333Y297124D01*
X10423Y296963D01*
X10511Y296802D01*
X10522Y296789D01*
X10531Y296773D01*
X10651Y296634D01*
X10768Y296493D01*
X10782Y296482D01*
X10794Y296468D01*
X10939Y296356D01*
X11082Y296241D01*
X11098Y296233D01*
X11112Y296222D01*
X11277Y296140D01*
X11439Y296055D01*
X11456Y296050D01*
X11472Y296042D01*
X11651Y295995D01*
X11826Y295944D01*
X11844Y295942D01*
X11861Y295938D01*
X12192Y295911D01*
X15353Y295911D01*
X16609Y295390D01*
X16639Y295381D01*
X16667Y295367D01*
X16832Y295323D01*
X16994Y295274D01*
X17025Y295271D01*
X17056Y295263D01*
X17386Y295236D01*
X21607Y295236D01*
X21666Y295220D01*
X21833Y295169D01*
X21860Y295167D01*
X21886Y295160D01*
X22060Y295148D01*
X22234Y295131D01*
X22260Y295134D01*
X22287Y295132D01*
X22461Y295155D01*
X22634Y295173D01*
X22660Y295181D01*
X22687Y295184D01*
X22847Y295236D01*
X27957Y295236D01*
X28016Y295220D01*
X28183Y295169D01*
X28210Y295167D01*
X28236Y295160D01*
X28410Y295148D01*
X28584Y295131D01*
X28610Y295134D01*
X28637Y295132D01*
X28811Y295155D01*
X28984Y295173D01*
X29010Y295181D01*
X29037Y295184D01*
X29197Y295236D01*
X33414Y295236D01*
X33445Y295239D01*
X33476Y295237D01*
X33645Y295259D01*
X33814Y295276D01*
X33844Y295285D01*
X33875Y295289D01*
X34191Y295390D01*
X35447Y295911D01*
X510653Y295911D01*
X511909Y295390D01*
X511939Y295381D01*
X511967Y295367D01*
X512132Y295323D01*
X512294Y295274D01*
X512325Y295271D01*
X512356Y295263D01*
X512686Y295236D01*
X516908Y295236D01*
X516966Y295220D01*
X517133Y295169D01*
X517160Y295167D01*
X517186Y295160D01*
X517360Y295148D01*
X517534Y295131D01*
X517561Y295134D01*
X517587Y295132D01*
X517761Y295155D01*
X517934Y295173D01*
X517960Y295181D01*
X517987Y295184D01*
X518147Y295236D01*
X523258Y295236D01*
X523316Y295220D01*
X523483Y295169D01*
X523510Y295167D01*
X523535Y295160D01*
X523711Y295148D01*
X523884Y295131D01*
X523910Y295134D01*
X523937Y295132D01*
X524111Y295155D01*
X524284Y295173D01*
X524310Y295181D01*
X524336Y295184D01*
X524497Y295236D01*
X528714Y295236D01*
X528745Y295239D01*
X528776Y295237D01*
X528945Y295259D01*
X529114Y295276D01*
X529144Y295285D01*
X529175Y295289D01*
X529491Y295390D01*
X530747Y295911D01*
X732746Y295911D01*
X732754Y295912D01*
X732763Y295911D01*
X732955Y295932D01*
X733146Y295951D01*
X733155Y295953D01*
X733164Y295954D01*
X733346Y296012D01*
X733531Y296069D01*
X733539Y296073D01*
X733547Y296076D01*
X733716Y296169D01*
X733885Y296261D01*
X733892Y296266D01*
X733900Y296271D01*
X734047Y296395D01*
X734194Y296518D01*
X734200Y296525D01*
X734207Y296531D01*
X734326Y296682D01*
X734447Y296832D01*
X734451Y296840D01*
X734456Y296847D01*
X734544Y297020D01*
X734632Y297189D01*
X734635Y297198D01*
X734639Y297206D01*
X734691Y297392D01*
X734744Y297576D01*
X734744Y297585D01*
X734747Y297594D01*
X734761Y297787D01*
X734777Y297978D01*
X734775Y297986D01*
X734776Y297995D01*
X734752Y298188D01*
X734730Y298377D01*
X734727Y298386D01*
X734726Y298395D01*
X734664Y298578D01*
X734605Y298760D01*
X734600Y298768D01*
X734598Y298776D01*
X734501Y298943D01*
X734407Y299111D01*
X734401Y299118D01*
X734397Y299125D01*
X734182Y299378D01*
X729741Y303819D01*
X729741Y312131D01*
X735619Y318009D01*
X743931Y318009D01*
X749809Y312131D01*
X749809Y303819D01*
X745368Y299378D01*
X745362Y299371D01*
X745356Y299366D01*
X745235Y299216D01*
X745113Y299067D01*
X745109Y299059D01*
X745103Y299052D01*
X745015Y298882D01*
X744924Y298711D01*
X744922Y298702D01*
X744918Y298695D01*
X744865Y298510D01*
X744810Y298325D01*
X744809Y298316D01*
X744806Y298308D01*
X744791Y298115D01*
X744773Y297924D01*
X744774Y297915D01*
X744773Y297906D01*
X744796Y297717D01*
X744817Y297524D01*
X744819Y297515D01*
X744820Y297507D01*
X744880Y297325D01*
X744938Y297140D01*
X744942Y297132D01*
X744945Y297124D01*
X745041Y296954D01*
X745133Y296788D01*
X745139Y296781D01*
X745143Y296773D01*
X745269Y296627D01*
X745393Y296481D01*
X745400Y296475D01*
X745406Y296468D01*
X745558Y296351D01*
X745709Y296231D01*
X745717Y296227D01*
X745724Y296222D01*
X745897Y296136D01*
X746068Y296049D01*
X746077Y296046D01*
X746085Y296042D01*
X746271Y295992D01*
X746456Y295941D01*
X746465Y295940D01*
X746474Y295938D01*
X746804Y295911D01*
X993253Y295911D01*
X994509Y295390D01*
X994539Y295381D01*
X994567Y295367D01*
X994731Y295323D01*
X994894Y295274D01*
X994925Y295271D01*
X994956Y295263D01*
X995286Y295236D01*
X999508Y295236D01*
X999566Y295220D01*
X999733Y295169D01*
X999760Y295167D01*
X999786Y295160D01*
X999960Y295148D01*
X1000134Y295131D01*
X1000161Y295134D01*
X1000187Y295132D01*
X1000361Y295155D01*
X1000534Y295173D01*
X1000560Y295181D01*
X1000587Y295184D01*
X1000747Y295236D01*
X1005857Y295236D01*
X1005916Y295220D01*
X1006083Y295169D01*
X1006110Y295167D01*
X1006136Y295160D01*
X1006310Y295148D01*
X1006484Y295131D01*
X1006510Y295134D01*
G37*
%LPC*%
G36*
X497652Y301497D02*
X497652Y301497D01*
X491997Y307152D01*
X491997Y315148D01*
X496990Y320141D01*
X497007Y320162D01*
X497028Y320180D01*
X497135Y320317D01*
X497245Y320453D01*
X497258Y320477D01*
X497274Y320498D01*
X497352Y320655D01*
X497434Y320809D01*
X497442Y320834D01*
X497454Y320858D01*
X497499Y321028D01*
X497549Y321194D01*
X497551Y321221D01*
X497558Y321247D01*
X497585Y321578D01*
X497585Y333909D01*
X497583Y333936D01*
X497585Y333963D01*
X497563Y334136D01*
X497545Y334310D01*
X497538Y334335D01*
X497534Y334362D01*
X497478Y334528D01*
X497427Y334695D01*
X497414Y334718D01*
X497406Y334744D01*
X497319Y334895D01*
X497235Y335049D01*
X497218Y335069D01*
X497205Y335093D01*
X496990Y335346D01*
X493013Y339323D01*
X493013Y346477D01*
X496990Y350454D01*
X497007Y350475D01*
X497028Y350493D01*
X497135Y350631D01*
X497245Y350766D01*
X497258Y350790D01*
X497274Y350811D01*
X497352Y350967D01*
X497434Y351122D01*
X497442Y351147D01*
X497454Y351171D01*
X497499Y351341D01*
X497549Y351508D01*
X497551Y351534D01*
X497558Y351560D01*
X497585Y351891D01*
X497585Y362204D01*
X497583Y362222D01*
X497585Y362240D01*
X497564Y362422D01*
X497545Y362605D01*
X497540Y362622D01*
X497538Y362639D01*
X497481Y362813D01*
X497427Y362990D01*
X497419Y363005D01*
X497413Y363022D01*
X497323Y363182D01*
X497235Y363344D01*
X497224Y363357D01*
X497215Y363373D01*
X497095Y363512D01*
X496978Y363653D01*
X496964Y363664D01*
X496952Y363678D01*
X496807Y363790D01*
X496664Y363905D01*
X496648Y363913D01*
X496634Y363924D01*
X496469Y364006D01*
X496307Y364091D01*
X496290Y364096D01*
X496274Y364104D01*
X496095Y364151D01*
X495920Y364202D01*
X495902Y364204D01*
X495885Y364208D01*
X495554Y364235D01*
X415645Y364235D01*
X415618Y364233D01*
X415592Y364235D01*
X415418Y364213D01*
X415244Y364195D01*
X415219Y364188D01*
X415192Y364184D01*
X415026Y364129D01*
X414859Y364077D01*
X414836Y364064D01*
X414810Y364056D01*
X414659Y363969D01*
X414505Y363885D01*
X414485Y363868D01*
X414462Y363855D01*
X414209Y363640D01*
X411546Y360978D01*
X409120Y359973D01*
X408372Y359663D01*
X391728Y359663D01*
X388554Y360978D01*
X388532Y360999D01*
X388525Y361005D01*
X388520Y361012D01*
X388371Y361131D01*
X388221Y361255D01*
X388213Y361259D01*
X388206Y361264D01*
X388037Y361352D01*
X387865Y361443D01*
X387857Y361446D01*
X387849Y361450D01*
X387664Y361503D01*
X387479Y361558D01*
X387470Y361559D01*
X387462Y361561D01*
X387270Y361577D01*
X387078Y361594D01*
X387069Y361593D01*
X387060Y361594D01*
X386870Y361572D01*
X386678Y361551D01*
X386670Y361548D01*
X386661Y361547D01*
X386477Y361487D01*
X386294Y361430D01*
X386286Y361425D01*
X386278Y361422D01*
X386110Y361328D01*
X385942Y361235D01*
X385935Y361229D01*
X385927Y361225D01*
X385782Y361099D01*
X385635Y360974D01*
X385629Y360967D01*
X385622Y360961D01*
X385505Y360810D01*
X385385Y360658D01*
X385381Y360650D01*
X385376Y360643D01*
X385290Y360471D01*
X385203Y360299D01*
X385200Y360291D01*
X385196Y360283D01*
X385146Y360096D01*
X385095Y359912D01*
X385094Y359903D01*
X385092Y359894D01*
X385065Y359563D01*
X385065Y351775D01*
X385067Y351749D01*
X385065Y351722D01*
X385087Y351548D01*
X385105Y351374D01*
X385112Y351349D01*
X385116Y351323D01*
X385171Y351157D01*
X385223Y350990D01*
X385235Y350966D01*
X385244Y350941D01*
X385331Y350790D01*
X385415Y350635D01*
X385431Y350615D01*
X385445Y350592D01*
X385659Y350339D01*
X385728Y350270D01*
X385742Y350258D01*
X385754Y350245D01*
X385898Y350131D01*
X386040Y350015D01*
X386056Y350006D01*
X386070Y349995D01*
X386233Y349912D01*
X386396Y349826D01*
X386413Y349821D01*
X386429Y349813D01*
X386605Y349764D01*
X386781Y349711D01*
X386800Y349710D01*
X386817Y349705D01*
X386999Y349691D01*
X387182Y349675D01*
X387201Y349677D01*
X387219Y349675D01*
X387399Y349698D01*
X387583Y349718D01*
X387600Y349723D01*
X387618Y349726D01*
X387792Y349784D01*
X387967Y349839D01*
X387982Y349848D01*
X388000Y349854D01*
X388158Y349945D01*
X388319Y350034D01*
X388333Y350046D01*
X388349Y350055D01*
X388537Y350215D01*
X391728Y351537D01*
X408372Y351537D01*
X411546Y350222D01*
X413976Y347792D01*
X415291Y344618D01*
X415291Y341182D01*
X413976Y338008D01*
X411546Y335578D01*
X408372Y334263D01*
X391728Y334263D01*
X388554Y335578D01*
X386124Y338008D01*
X385946Y338438D01*
X385933Y338462D01*
X385925Y338487D01*
X385839Y338638D01*
X385756Y338793D01*
X385739Y338814D01*
X385725Y338837D01*
X385611Y338968D01*
X385499Y339103D01*
X385478Y339120D01*
X385461Y339140D01*
X385322Y339247D01*
X385187Y339357D01*
X385163Y339369D01*
X385142Y339386D01*
X385088Y339413D01*
X377554Y346948D01*
X376935Y348441D01*
X376935Y365775D01*
X376933Y365802D01*
X376935Y365828D01*
X376913Y366002D01*
X376895Y366176D01*
X376888Y366201D01*
X376884Y366228D01*
X376829Y366393D01*
X376777Y366560D01*
X376764Y366584D01*
X376756Y366609D01*
X376669Y366761D01*
X376585Y366915D01*
X376568Y366935D01*
X376555Y366958D01*
X376340Y367211D01*
X358504Y385048D01*
X357885Y386541D01*
X357885Y411725D01*
X357884Y411734D01*
X357885Y411743D01*
X357864Y411935D01*
X357845Y412125D01*
X357843Y412134D01*
X357842Y412143D01*
X357784Y412326D01*
X357727Y412510D01*
X357723Y412518D01*
X357720Y412527D01*
X357627Y412696D01*
X357535Y412864D01*
X357530Y412871D01*
X357525Y412879D01*
X357400Y413027D01*
X357278Y413174D01*
X357271Y413179D01*
X357265Y413186D01*
X357113Y413306D01*
X356964Y413426D01*
X356956Y413430D01*
X356949Y413436D01*
X356776Y413523D01*
X356607Y413612D01*
X356598Y413614D01*
X356590Y413618D01*
X356405Y413670D01*
X356220Y413723D01*
X356211Y413724D01*
X356202Y413726D01*
X356010Y413740D01*
X355818Y413756D01*
X355810Y413755D01*
X355801Y413755D01*
X355609Y413731D01*
X355419Y413709D01*
X355410Y413706D01*
X355401Y413705D01*
X355219Y413644D01*
X355036Y413584D01*
X355028Y413580D01*
X355020Y413577D01*
X354852Y413481D01*
X354685Y413386D01*
X354678Y413380D01*
X354671Y413376D01*
X354418Y413161D01*
X353823Y412566D01*
X350856Y411337D01*
X347644Y411337D01*
X344677Y412566D01*
X342406Y414837D01*
X341177Y417804D01*
X341177Y433096D01*
X342406Y436063D01*
X344590Y438247D01*
X344607Y438268D01*
X344628Y438285D01*
X344735Y438423D01*
X344845Y438558D01*
X344858Y438582D01*
X344874Y438603D01*
X344952Y438760D01*
X345034Y438914D01*
X345042Y438940D01*
X345054Y438964D01*
X345099Y439133D01*
X345149Y439300D01*
X345151Y439327D01*
X345158Y439352D01*
X345185Y439683D01*
X345185Y454454D01*
X345183Y454472D01*
X345185Y454490D01*
X345164Y454672D01*
X345145Y454855D01*
X345140Y454872D01*
X345138Y454889D01*
X345081Y455064D01*
X345027Y455240D01*
X345019Y455255D01*
X345013Y455272D01*
X344923Y455432D01*
X344835Y455594D01*
X344824Y455607D01*
X344815Y455623D01*
X344695Y455762D01*
X344578Y455903D01*
X344564Y455914D01*
X344552Y455928D01*
X344407Y456040D01*
X344264Y456155D01*
X344248Y456163D01*
X344234Y456174D01*
X344069Y456256D01*
X343907Y456341D01*
X343890Y456346D01*
X343874Y456354D01*
X343695Y456401D01*
X343520Y456452D01*
X343502Y456454D01*
X343485Y456458D01*
X343396Y456465D01*
X342185Y457676D01*
X342185Y469424D01*
X343376Y470615D01*
X355854Y470615D01*
X355872Y470617D01*
X355890Y470615D01*
X356072Y470636D01*
X356255Y470655D01*
X356272Y470660D01*
X356289Y470662D01*
X356464Y470719D01*
X356640Y470773D01*
X356655Y470781D01*
X356672Y470787D01*
X356832Y470877D01*
X356994Y470965D01*
X357007Y470976D01*
X357023Y470985D01*
X357162Y471105D01*
X357303Y471222D01*
X357314Y471236D01*
X357328Y471248D01*
X357440Y471393D01*
X357555Y471536D01*
X357563Y471552D01*
X357574Y471566D01*
X357656Y471731D01*
X357741Y471893D01*
X357746Y471910D01*
X357754Y471926D01*
X357801Y472105D01*
X357852Y472280D01*
X357854Y472298D01*
X357858Y472315D01*
X357885Y472646D01*
X357885Y486425D01*
X357883Y486452D01*
X357885Y486478D01*
X357863Y486652D01*
X357845Y486826D01*
X357838Y486851D01*
X357834Y486878D01*
X357779Y487043D01*
X357727Y487211D01*
X357714Y487234D01*
X357706Y487259D01*
X357619Y487411D01*
X357535Y487565D01*
X357518Y487585D01*
X357505Y487608D01*
X357290Y487861D01*
X356540Y488611D01*
X356527Y488623D01*
X356515Y488636D01*
X356370Y488750D01*
X356229Y488866D01*
X356213Y488875D01*
X356199Y488886D01*
X356034Y488969D01*
X355873Y489055D01*
X355856Y489060D01*
X355840Y489068D01*
X355662Y489118D01*
X355487Y489170D01*
X355469Y489171D01*
X355452Y489176D01*
X355270Y489189D01*
X355086Y489206D01*
X355068Y489204D01*
X355051Y489205D01*
X354870Y489183D01*
X354686Y489163D01*
X354669Y489157D01*
X354651Y489155D01*
X354478Y489097D01*
X354302Y489041D01*
X354286Y489032D01*
X354269Y489027D01*
X354110Y488935D01*
X353950Y488846D01*
X353936Y488835D01*
X353921Y488826D01*
X353877Y488789D01*
X350856Y487537D01*
X347644Y487537D01*
X344677Y488766D01*
X342406Y491037D01*
X341177Y494004D01*
X341177Y509296D01*
X342406Y512263D01*
X344677Y514534D01*
X347644Y515763D01*
X350856Y515763D01*
X353823Y514534D01*
X356094Y512263D01*
X357323Y509296D01*
X357323Y500167D01*
X357325Y500140D01*
X357323Y500114D01*
X357345Y499940D01*
X357363Y499766D01*
X357370Y499741D01*
X357374Y499714D01*
X357429Y499549D01*
X357481Y499381D01*
X357494Y499358D01*
X357502Y499333D01*
X357589Y499181D01*
X357673Y499027D01*
X357690Y499007D01*
X357703Y498984D01*
X357918Y498731D01*
X362602Y494047D01*
X362609Y494041D01*
X362614Y494034D01*
X362764Y493914D01*
X362913Y493792D01*
X362921Y493787D01*
X362928Y493782D01*
X363099Y493693D01*
X363269Y493603D01*
X363277Y493600D01*
X363285Y493596D01*
X363471Y493543D01*
X363655Y493488D01*
X363664Y493487D01*
X363672Y493485D01*
X363864Y493469D01*
X364056Y493452D01*
X364065Y493453D01*
X364074Y493452D01*
X364263Y493474D01*
X364456Y493495D01*
X364465Y493498D01*
X364473Y493499D01*
X364655Y493558D01*
X364840Y493617D01*
X364848Y493621D01*
X364856Y493624D01*
X365025Y493719D01*
X365192Y493812D01*
X365199Y493817D01*
X365207Y493822D01*
X365353Y493948D01*
X365499Y494072D01*
X365505Y494079D01*
X365512Y494085D01*
X365629Y494236D01*
X365749Y494388D01*
X365753Y494396D01*
X365758Y494403D01*
X365844Y494575D01*
X365931Y494747D01*
X365934Y494755D01*
X365938Y494763D01*
X365988Y494950D01*
X366039Y495135D01*
X366040Y495144D01*
X366042Y495152D01*
X366069Y495483D01*
X366069Y499619D01*
X372619Y499619D01*
X372619Y487248D01*
X371356Y487658D01*
X370153Y488271D01*
X369240Y488934D01*
X369196Y488960D01*
X369156Y488992D01*
X369022Y489062D01*
X368892Y489138D01*
X368844Y489154D01*
X368799Y489178D01*
X368654Y489219D01*
X368512Y489268D01*
X368461Y489275D01*
X368412Y489289D01*
X368261Y489301D01*
X368112Y489321D01*
X368061Y489318D01*
X368010Y489322D01*
X367861Y489304D01*
X367711Y489294D01*
X367661Y489281D01*
X367611Y489275D01*
X367467Y489228D01*
X367322Y489189D01*
X367276Y489166D01*
X367228Y489150D01*
X367097Y489076D01*
X366962Y489009D01*
X366922Y488977D01*
X366877Y488952D01*
X366763Y488854D01*
X366645Y488761D01*
X366611Y488723D01*
X366572Y488689D01*
X366480Y488570D01*
X366382Y488456D01*
X366357Y488411D01*
X366326Y488371D01*
X366259Y488236D01*
X366185Y488105D01*
X366169Y488056D01*
X366146Y488011D01*
X366107Y487865D01*
X366061Y487722D01*
X366055Y487671D01*
X366042Y487622D01*
X366023Y487391D01*
X366015Y487322D01*
X366016Y487308D01*
X366015Y487291D01*
X366015Y439175D01*
X366016Y439166D01*
X366015Y439157D01*
X366036Y438964D01*
X366055Y438775D01*
X366057Y438766D01*
X366058Y438757D01*
X366117Y438571D01*
X366173Y438390D01*
X366177Y438382D01*
X366180Y438373D01*
X366273Y438204D01*
X366365Y438036D01*
X366370Y438029D01*
X366375Y438021D01*
X366500Y437873D01*
X366622Y437726D01*
X366629Y437721D01*
X366635Y437714D01*
X366787Y437594D01*
X366936Y437474D01*
X366944Y437470D01*
X366951Y437464D01*
X367124Y437377D01*
X367293Y437288D01*
X367302Y437286D01*
X367310Y437282D01*
X367495Y437230D01*
X367680Y437177D01*
X367689Y437176D01*
X367698Y437174D01*
X367890Y437160D01*
X368082Y437144D01*
X368090Y437145D01*
X368099Y437145D01*
X368291Y437169D01*
X368481Y437191D01*
X368490Y437194D01*
X368499Y437195D01*
X368681Y437256D01*
X368864Y437316D01*
X368872Y437320D01*
X368880Y437323D01*
X369048Y437419D01*
X369215Y437514D01*
X369222Y437520D01*
X369229Y437524D01*
X369482Y437739D01*
X370077Y438334D01*
X373044Y439563D01*
X376256Y439563D01*
X379223Y438334D01*
X381494Y436063D01*
X382723Y433096D01*
X382723Y417804D01*
X381494Y414837D01*
X379310Y412653D01*
X379293Y412632D01*
X379272Y412615D01*
X379165Y412477D01*
X379055Y412342D01*
X379042Y412318D01*
X379026Y412297D01*
X378948Y412140D01*
X378866Y411986D01*
X378858Y411960D01*
X378846Y411936D01*
X378801Y411767D01*
X378751Y411600D01*
X378749Y411573D01*
X378742Y411548D01*
X378715Y411217D01*
X378715Y396225D01*
X378717Y396198D01*
X378715Y396172D01*
X378737Y395998D01*
X378755Y395824D01*
X378762Y395799D01*
X378766Y395772D01*
X378821Y395607D01*
X378873Y395440D01*
X378886Y395416D01*
X378894Y395391D01*
X378981Y395239D01*
X379065Y395085D01*
X379082Y395065D01*
X379095Y395042D01*
X379310Y394789D01*
X396567Y377532D01*
X396587Y377515D01*
X396605Y377494D01*
X396743Y377387D01*
X396878Y377277D01*
X396902Y377264D01*
X396923Y377248D01*
X397080Y377170D01*
X397234Y377088D01*
X397259Y377080D01*
X397284Y377068D01*
X397453Y377023D01*
X397620Y376973D01*
X397646Y376971D01*
X397672Y376964D01*
X398003Y376937D01*
X408372Y376937D01*
X411546Y375622D01*
X414209Y372960D01*
X414229Y372943D01*
X414247Y372922D01*
X414385Y372815D01*
X414520Y372705D01*
X414544Y372692D01*
X414565Y372676D01*
X414722Y372598D01*
X414876Y372516D01*
X414901Y372508D01*
X414925Y372496D01*
X415095Y372451D01*
X415262Y372401D01*
X415288Y372399D01*
X415314Y372392D01*
X415645Y372365D01*
X567182Y372365D01*
X567200Y372367D01*
X567218Y372365D01*
X567400Y372386D01*
X567583Y372405D01*
X567600Y372410D01*
X567617Y372412D01*
X567792Y372469D01*
X567968Y372523D01*
X567983Y372531D01*
X568000Y372537D01*
X568160Y372627D01*
X568322Y372715D01*
X568335Y372726D01*
X568351Y372735D01*
X568490Y372855D01*
X568631Y372972D01*
X568642Y372986D01*
X568656Y372998D01*
X568768Y373143D01*
X568883Y373286D01*
X568891Y373302D01*
X568902Y373316D01*
X568984Y373481D01*
X569069Y373643D01*
X569074Y373660D01*
X569082Y373676D01*
X569129Y373855D01*
X569180Y374030D01*
X569182Y374048D01*
X569186Y374065D01*
X569213Y374396D01*
X569213Y376622D01*
X570528Y379796D01*
X572958Y382226D01*
X576132Y383541D01*
X579568Y383541D01*
X582742Y382226D01*
X585172Y379796D01*
X586487Y376622D01*
X586487Y359978D01*
X585172Y356804D01*
X582742Y354374D01*
X579568Y353059D01*
X576132Y353059D01*
X572958Y354374D01*
X570528Y356804D01*
X569213Y359978D01*
X569213Y362204D01*
X569211Y362222D01*
X569213Y362240D01*
X569192Y362422D01*
X569173Y362605D01*
X569168Y362622D01*
X569166Y362639D01*
X569109Y362813D01*
X569055Y362990D01*
X569047Y363005D01*
X569041Y363022D01*
X568951Y363182D01*
X568863Y363344D01*
X568852Y363357D01*
X568843Y363373D01*
X568723Y363512D01*
X568606Y363653D01*
X568592Y363664D01*
X568580Y363678D01*
X568435Y363790D01*
X568292Y363905D01*
X568276Y363913D01*
X568262Y363924D01*
X568097Y364006D01*
X567935Y364091D01*
X567918Y364096D01*
X567902Y364104D01*
X567723Y364151D01*
X567548Y364202D01*
X567530Y364204D01*
X567513Y364208D01*
X567182Y364235D01*
X507746Y364235D01*
X507728Y364233D01*
X507710Y364235D01*
X507528Y364214D01*
X507345Y364195D01*
X507328Y364190D01*
X507311Y364188D01*
X507136Y364131D01*
X506960Y364077D01*
X506945Y364069D01*
X506928Y364063D01*
X506768Y363973D01*
X506606Y363885D01*
X506593Y363874D01*
X506577Y363865D01*
X506438Y363745D01*
X506297Y363628D01*
X506286Y363614D01*
X506272Y363602D01*
X506160Y363457D01*
X506045Y363314D01*
X506037Y363298D01*
X506026Y363284D01*
X505944Y363119D01*
X505859Y362957D01*
X505854Y362940D01*
X505846Y362924D01*
X505799Y362745D01*
X505748Y362570D01*
X505746Y362552D01*
X505742Y362535D01*
X505715Y362204D01*
X505715Y351891D01*
X505717Y351864D01*
X505715Y351837D01*
X505737Y351664D01*
X505755Y351490D01*
X505762Y351465D01*
X505766Y351438D01*
X505822Y351272D01*
X505873Y351105D01*
X505886Y351082D01*
X505894Y351056D01*
X505981Y350905D01*
X506065Y350751D01*
X506082Y350731D01*
X506095Y350707D01*
X506310Y350454D01*
X510287Y346477D01*
X510287Y339323D01*
X506310Y335346D01*
X506293Y335325D01*
X506272Y335307D01*
X506165Y335169D01*
X506055Y335034D01*
X506042Y335010D01*
X506026Y334989D01*
X505948Y334833D01*
X505866Y334678D01*
X505858Y334653D01*
X505846Y334629D01*
X505801Y334459D01*
X505751Y334292D01*
X505749Y334266D01*
X505742Y334240D01*
X505715Y333909D01*
X505715Y321578D01*
X505717Y321551D01*
X505715Y321524D01*
X505737Y321350D01*
X505755Y321177D01*
X505762Y321152D01*
X505766Y321125D01*
X505821Y320959D01*
X505873Y320792D01*
X505886Y320769D01*
X505894Y320743D01*
X505981Y320592D01*
X506065Y320438D01*
X506082Y320418D01*
X506095Y320394D01*
X506310Y320141D01*
X511303Y315148D01*
X511303Y307152D01*
X505648Y301497D01*
X497652Y301497D01*
G37*
%LPD*%
%LPC*%
G36*
X380403Y65758D02*
X380403Y65758D01*
X380333Y65764D01*
X380282Y65774D01*
X380201Y65775D01*
X380072Y65785D01*
X284941Y65785D01*
X283448Y66404D01*
X244204Y105648D01*
X243585Y107141D01*
X243585Y243572D01*
X243583Y243599D01*
X243585Y243626D01*
X243563Y243799D01*
X243545Y243973D01*
X243538Y243998D01*
X243534Y244025D01*
X243479Y244190D01*
X243427Y244358D01*
X243414Y244381D01*
X243406Y244407D01*
X243319Y244558D01*
X243235Y244712D01*
X243218Y244732D01*
X243205Y244756D01*
X242990Y245009D01*
X237997Y250002D01*
X237997Y257998D01*
X243652Y263653D01*
X251648Y263653D01*
X257303Y257998D01*
X257303Y250002D01*
X252310Y245009D01*
X252293Y244988D01*
X252272Y244970D01*
X252165Y244833D01*
X252055Y244697D01*
X252042Y244673D01*
X252026Y244652D01*
X251948Y244495D01*
X251866Y244341D01*
X251858Y244316D01*
X251846Y244292D01*
X251801Y244122D01*
X251751Y243956D01*
X251749Y243929D01*
X251742Y243903D01*
X251715Y243572D01*
X251715Y110475D01*
X251717Y110448D01*
X251715Y110422D01*
X251737Y110248D01*
X251755Y110074D01*
X251762Y110049D01*
X251766Y110022D01*
X251821Y109857D01*
X251873Y109690D01*
X251886Y109666D01*
X251894Y109641D01*
X251981Y109489D01*
X252065Y109335D01*
X252082Y109315D01*
X252095Y109292D01*
X252310Y109039D01*
X286839Y74510D01*
X286859Y74493D01*
X286877Y74472D01*
X287015Y74365D01*
X287150Y74255D01*
X287174Y74242D01*
X287195Y74226D01*
X287352Y74148D01*
X287506Y74066D01*
X287531Y74058D01*
X287556Y74046D01*
X287725Y74001D01*
X287892Y73951D01*
X287918Y73949D01*
X287944Y73942D01*
X288275Y73915D01*
X324747Y73915D01*
X324756Y73916D01*
X324764Y73915D01*
X324956Y73936D01*
X325147Y73955D01*
X325156Y73957D01*
X325165Y73958D01*
X325347Y74016D01*
X325532Y74073D01*
X325540Y74077D01*
X325549Y74080D01*
X325717Y74173D01*
X325886Y74265D01*
X325893Y74270D01*
X325901Y74275D01*
X326049Y74400D01*
X326196Y74522D01*
X326201Y74529D01*
X326208Y74535D01*
X326328Y74687D01*
X326448Y74836D01*
X326452Y74844D01*
X326458Y74851D01*
X326545Y75023D01*
X326633Y75193D01*
X326636Y75202D01*
X326640Y75210D01*
X326692Y75396D01*
X326745Y75580D01*
X326745Y75589D01*
X326748Y75598D01*
X326762Y75790D01*
X326778Y75982D01*
X326777Y75990D01*
X326777Y75999D01*
X326753Y76192D01*
X326731Y76381D01*
X326728Y76390D01*
X326727Y76399D01*
X326665Y76582D01*
X326606Y76764D01*
X326601Y76772D01*
X326599Y76780D01*
X326503Y76946D01*
X326408Y77115D01*
X326402Y77122D01*
X326398Y77129D01*
X326183Y77382D01*
X325287Y78278D01*
X325287Y111122D01*
X326478Y112313D01*
X359322Y112313D01*
X360513Y111122D01*
X360513Y78278D01*
X359617Y77382D01*
X359611Y77375D01*
X359604Y77370D01*
X359483Y77219D01*
X359362Y77071D01*
X359358Y77063D01*
X359352Y77056D01*
X359264Y76886D01*
X359173Y76715D01*
X359171Y76706D01*
X359167Y76699D01*
X359114Y76514D01*
X359059Y76329D01*
X359058Y76320D01*
X359055Y76312D01*
X359040Y76121D01*
X359022Y75928D01*
X359023Y75919D01*
X359022Y75910D01*
X359045Y75721D01*
X359066Y75528D01*
X359068Y75519D01*
X359069Y75511D01*
X359129Y75329D01*
X359187Y75144D01*
X359191Y75136D01*
X359194Y75128D01*
X359288Y74961D01*
X359382Y74792D01*
X359388Y74785D01*
X359392Y74777D01*
X359517Y74632D01*
X359642Y74485D01*
X359649Y74479D01*
X359655Y74472D01*
X359806Y74356D01*
X359958Y74235D01*
X359966Y74231D01*
X359973Y74226D01*
X360144Y74141D01*
X360317Y74053D01*
X360326Y74050D01*
X360334Y74046D01*
X360519Y73997D01*
X360705Y73945D01*
X360714Y73944D01*
X360723Y73942D01*
X361053Y73915D01*
X378145Y73915D01*
X378263Y73927D01*
X378382Y73929D01*
X378463Y73946D01*
X378545Y73955D01*
X378659Y73989D01*
X378775Y74015D01*
X378851Y74048D01*
X378930Y74073D01*
X379035Y74129D01*
X379143Y74177D01*
X379211Y74225D01*
X379284Y74265D01*
X379375Y74340D01*
X379473Y74409D01*
X379541Y74479D01*
X379594Y74522D01*
X379637Y74576D01*
X379705Y74646D01*
X402886Y102463D01*
X402957Y102568D01*
X403037Y102668D01*
X403070Y102734D01*
X403112Y102796D01*
X403161Y102914D01*
X403219Y103027D01*
X403239Y103098D01*
X403268Y103167D01*
X403293Y103292D01*
X403327Y103415D01*
X403332Y103489D01*
X403347Y103562D01*
X403347Y103689D01*
X403356Y103816D01*
X403347Y103890D01*
X403347Y103965D01*
X403322Y104089D01*
X403306Y104216D01*
X403282Y104286D01*
X403267Y104359D01*
X403218Y104477D01*
X403178Y104597D01*
X403140Y104662D01*
X403112Y104731D01*
X403040Y104836D01*
X402977Y104946D01*
X402921Y105012D01*
X402886Y105064D01*
X402833Y105116D01*
X402762Y105199D01*
X402485Y105476D01*
X402485Y123924D01*
X403676Y125115D01*
X422124Y125115D01*
X423315Y123924D01*
X423315Y105476D01*
X422124Y104285D01*
X415939Y104285D01*
X415820Y104273D01*
X415702Y104271D01*
X415621Y104254D01*
X415538Y104245D01*
X415424Y104211D01*
X415308Y104185D01*
X415232Y104152D01*
X415153Y104127D01*
X415049Y104071D01*
X414940Y104023D01*
X414872Y103975D01*
X414799Y103935D01*
X414708Y103860D01*
X414611Y103791D01*
X414542Y103721D01*
X414490Y103678D01*
X414447Y103624D01*
X414378Y103554D01*
X384717Y67960D01*
X384638Y67844D01*
X384552Y67733D01*
X384520Y67670D01*
X384491Y67627D01*
X384465Y67567D01*
X384070Y67171D01*
X384023Y67114D01*
X383946Y67035D01*
X383581Y66598D01*
X383471Y66535D01*
X383418Y66489D01*
X383374Y66461D01*
X383328Y66415D01*
X382811Y66201D01*
X382746Y66165D01*
X382644Y66122D01*
X382140Y65858D01*
X382014Y65841D01*
X381948Y65820D01*
X381897Y65810D01*
X381836Y65785D01*
X381277Y65785D01*
X381203Y65778D01*
X381093Y65777D01*
X380525Y65725D01*
X380403Y65758D01*
G37*
%LPD*%
%LPC*%
G36*
X801182Y49067D02*
X801182Y49067D01*
X789007Y61242D01*
X789007Y63754D01*
X789005Y63772D01*
X789007Y63790D01*
X788986Y63972D01*
X788967Y64155D01*
X788962Y64172D01*
X788960Y64189D01*
X788903Y64364D01*
X788849Y64540D01*
X788841Y64555D01*
X788835Y64572D01*
X788745Y64732D01*
X788657Y64894D01*
X788646Y64907D01*
X788637Y64923D01*
X788517Y65062D01*
X788400Y65203D01*
X788386Y65214D01*
X788374Y65228D01*
X788229Y65340D01*
X788086Y65455D01*
X788070Y65463D01*
X788056Y65474D01*
X787891Y65556D01*
X787729Y65641D01*
X787712Y65646D01*
X787696Y65654D01*
X787517Y65701D01*
X787342Y65752D01*
X787324Y65754D01*
X787307Y65758D01*
X786976Y65785D01*
X748491Y65785D01*
X746998Y66404D01*
X733154Y80248D01*
X732535Y81741D01*
X732535Y219725D01*
X732533Y219752D01*
X732535Y219778D01*
X732513Y219952D01*
X732495Y220126D01*
X732488Y220151D01*
X732484Y220178D01*
X732429Y220343D01*
X732377Y220510D01*
X732364Y220534D01*
X732356Y220559D01*
X732269Y220711D01*
X732185Y220865D01*
X732168Y220885D01*
X732155Y220908D01*
X731940Y221161D01*
X703761Y249340D01*
X703741Y249357D01*
X703723Y249378D01*
X703585Y249485D01*
X703450Y249595D01*
X703426Y249608D01*
X703405Y249624D01*
X703248Y249702D01*
X703094Y249784D01*
X703069Y249792D01*
X703044Y249804D01*
X702875Y249849D01*
X702708Y249899D01*
X702682Y249901D01*
X702656Y249908D01*
X702325Y249935D01*
X613678Y249935D01*
X613651Y249933D01*
X613624Y249935D01*
X613450Y249913D01*
X613277Y249895D01*
X613252Y249888D01*
X613225Y249884D01*
X613059Y249829D01*
X612892Y249777D01*
X612869Y249764D01*
X612843Y249756D01*
X612692Y249669D01*
X612538Y249585D01*
X612518Y249568D01*
X612494Y249555D01*
X612241Y249340D01*
X607248Y244347D01*
X599252Y244347D01*
X593597Y250002D01*
X593597Y257998D01*
X599252Y263653D01*
X607248Y263653D01*
X612241Y258660D01*
X612262Y258643D01*
X612280Y258622D01*
X612417Y258515D01*
X612553Y258405D01*
X612577Y258392D01*
X612598Y258376D01*
X612755Y258298D01*
X612909Y258216D01*
X612934Y258208D01*
X612958Y258196D01*
X613128Y258151D01*
X613294Y258101D01*
X613321Y258099D01*
X613347Y258092D01*
X613678Y258065D01*
X705659Y258065D01*
X707152Y257446D01*
X740046Y224552D01*
X740665Y223059D01*
X740665Y85075D01*
X740667Y85048D01*
X740665Y85022D01*
X740687Y84848D01*
X740705Y84674D01*
X740712Y84649D01*
X740716Y84622D01*
X740771Y84457D01*
X740823Y84290D01*
X740836Y84266D01*
X740844Y84241D01*
X740931Y84089D01*
X741015Y83935D01*
X741032Y83915D01*
X741045Y83892D01*
X741260Y83639D01*
X750389Y74510D01*
X750409Y74493D01*
X750427Y74472D01*
X750565Y74365D01*
X750700Y74255D01*
X750724Y74242D01*
X750745Y74226D01*
X750902Y74148D01*
X751056Y74066D01*
X751081Y74058D01*
X751106Y74046D01*
X751275Y74001D01*
X751442Y73951D01*
X751468Y73949D01*
X751494Y73942D01*
X751825Y73915D01*
X786976Y73915D01*
X786994Y73917D01*
X787012Y73915D01*
X787194Y73936D01*
X787377Y73955D01*
X787394Y73960D01*
X787411Y73962D01*
X787586Y74019D01*
X787762Y74073D01*
X787777Y74081D01*
X787794Y74087D01*
X787954Y74177D01*
X788116Y74265D01*
X788129Y74276D01*
X788145Y74285D01*
X788284Y74405D01*
X788425Y74522D01*
X788436Y74536D01*
X788450Y74548D01*
X788562Y74693D01*
X788677Y74836D01*
X788685Y74852D01*
X788696Y74866D01*
X788778Y75031D01*
X788863Y75193D01*
X788868Y75210D01*
X788876Y75226D01*
X788923Y75405D01*
X788974Y75580D01*
X788976Y75598D01*
X788980Y75615D01*
X789007Y75946D01*
X789007Y78458D01*
X801182Y90633D01*
X818398Y90633D01*
X830573Y78458D01*
X830573Y61242D01*
X818398Y49067D01*
X801182Y49067D01*
G37*
%LPD*%
%LPC*%
G36*
X640795Y52831D02*
X640795Y52831D01*
X635077Y55200D01*
X630700Y59576D01*
X628332Y65295D01*
X628332Y98535D01*
X630700Y104254D01*
X635077Y108630D01*
X638022Y109850D01*
X639206Y110341D01*
X639226Y110351D01*
X639247Y110358D01*
X639403Y110446D01*
X639561Y110531D01*
X639578Y110545D01*
X639598Y110556D01*
X639733Y110673D01*
X639872Y110787D01*
X639886Y110804D01*
X639903Y110819D01*
X640012Y110960D01*
X640125Y111100D01*
X640136Y111120D01*
X640149Y111137D01*
X640229Y111298D01*
X640312Y111456D01*
X640319Y111478D01*
X640329Y111498D01*
X640375Y111671D01*
X640425Y111843D01*
X640427Y111865D01*
X640433Y111886D01*
X640460Y112217D01*
X640460Y137126D01*
X640456Y137166D01*
X640459Y137207D01*
X640436Y137366D01*
X640420Y137527D01*
X640408Y137565D01*
X640403Y137606D01*
X640350Y137757D01*
X640302Y137911D01*
X640283Y137947D01*
X640269Y137986D01*
X640187Y138124D01*
X640110Y138265D01*
X640084Y138297D01*
X640064Y138332D01*
X639875Y138548D01*
X639853Y138575D01*
X639849Y138578D01*
X639846Y138582D01*
X531733Y243772D01*
X531723Y243780D01*
X531715Y243790D01*
X531566Y243905D01*
X531418Y244023D01*
X531407Y244028D01*
X531397Y244036D01*
X531228Y244120D01*
X531060Y244206D01*
X531048Y244210D01*
X531036Y244216D01*
X530854Y244265D01*
X530673Y244316D01*
X530660Y244317D01*
X530648Y244320D01*
X530317Y244347D01*
X523052Y244347D01*
X517397Y250002D01*
X517397Y257998D01*
X523052Y263653D01*
X531048Y263653D01*
X536703Y257998D01*
X536703Y251137D01*
X536707Y251097D01*
X536704Y251056D01*
X536727Y250897D01*
X536743Y250736D01*
X536755Y250698D01*
X536760Y250657D01*
X536814Y250506D01*
X536861Y250352D01*
X536880Y250316D01*
X536894Y250277D01*
X536976Y250139D01*
X537053Y249998D01*
X537079Y249966D01*
X537099Y249931D01*
X537288Y249715D01*
X537310Y249688D01*
X537314Y249685D01*
X537317Y249681D01*
X539363Y247691D01*
X539511Y247574D01*
X539657Y247454D01*
X539668Y247448D01*
X539678Y247440D01*
X539846Y247354D01*
X540012Y247266D01*
X540025Y247262D01*
X540036Y247257D01*
X540218Y247205D01*
X540399Y247152D01*
X540411Y247151D01*
X540424Y247147D01*
X540612Y247133D01*
X540800Y247116D01*
X540812Y247117D01*
X540825Y247116D01*
X541012Y247139D01*
X541200Y247160D01*
X541212Y247164D01*
X541225Y247165D01*
X541403Y247224D01*
X541583Y247282D01*
X541595Y247288D01*
X541607Y247292D01*
X541771Y247385D01*
X541936Y247477D01*
X541945Y247485D01*
X541956Y247492D01*
X542098Y247615D01*
X542242Y247738D01*
X542250Y247748D01*
X542260Y247756D01*
X542375Y247906D01*
X542491Y248054D01*
X542497Y248065D01*
X542505Y248075D01*
X542589Y248246D01*
X542673Y248413D01*
X542677Y248425D01*
X542682Y248437D01*
X542731Y248619D01*
X542781Y248801D01*
X542782Y248814D01*
X542785Y248826D01*
X542796Y249013D01*
X542810Y249203D01*
X542808Y249215D01*
X542809Y249228D01*
X542797Y249312D01*
X542797Y257998D01*
X548452Y263653D01*
X556448Y263653D01*
X562103Y257998D01*
X562103Y250002D01*
X556448Y244347D01*
X547800Y244347D01*
X547777Y244345D01*
X547754Y244347D01*
X547577Y244325D01*
X547399Y244307D01*
X547378Y244301D01*
X547355Y244298D01*
X547186Y244242D01*
X547015Y244189D01*
X546994Y244178D01*
X546973Y244171D01*
X546818Y244083D01*
X546661Y243997D01*
X546643Y243983D01*
X546623Y243971D01*
X546488Y243854D01*
X546351Y243740D01*
X546337Y243722D01*
X546320Y243707D01*
X546211Y243565D01*
X546099Y243426D01*
X546088Y243406D01*
X546074Y243388D01*
X545995Y243227D01*
X545913Y243069D01*
X545907Y243047D01*
X545897Y243026D01*
X545851Y242853D01*
X545802Y242682D01*
X545800Y242659D01*
X545794Y242637D01*
X545784Y242459D01*
X545769Y242280D01*
X545772Y242258D01*
X545770Y242235D01*
X545795Y242058D01*
X545816Y241881D01*
X545823Y241859D01*
X545826Y241836D01*
X545885Y241668D01*
X545941Y241498D01*
X545952Y241478D01*
X545960Y241456D01*
X546051Y241303D01*
X546139Y241147D01*
X546154Y241130D01*
X546165Y241110D01*
X546384Y240860D01*
X646522Y143429D01*
X646535Y143418D01*
X646547Y143404D01*
X646642Y143331D01*
X647369Y142604D01*
X647379Y142596D01*
X647389Y142584D01*
X647960Y142029D01*
X648264Y141294D01*
X648270Y141283D01*
X648275Y141268D01*
X648590Y140538D01*
X648590Y139741D01*
X648591Y139729D01*
X648590Y139713D01*
X648604Y138702D01*
X648590Y138531D01*
X648590Y111691D01*
X648590Y111688D01*
X648590Y111686D01*
X648592Y111669D01*
X648590Y111647D01*
X648612Y111469D01*
X648630Y111291D01*
X648636Y111269D01*
X648639Y111247D01*
X648695Y111077D01*
X648748Y110906D01*
X648758Y110886D01*
X648765Y110865D01*
X648854Y110709D01*
X648940Y110552D01*
X648954Y110534D01*
X648965Y110515D01*
X649083Y110380D01*
X649197Y110242D01*
X649215Y110228D01*
X649229Y110212D01*
X649371Y110102D01*
X649511Y109990D01*
X649531Y109980D01*
X649549Y109966D01*
X649844Y109815D01*
X652703Y108630D01*
X657080Y104254D01*
X659448Y98535D01*
X659448Y65295D01*
X657080Y59576D01*
X652703Y55200D01*
X646985Y52831D01*
X640795Y52831D01*
G37*
%LPD*%
%LPC*%
G36*
X593805Y52831D02*
X593805Y52831D01*
X588087Y55200D01*
X583710Y59576D01*
X581342Y65295D01*
X581342Y98535D01*
X583710Y104254D01*
X588087Y108630D01*
X591581Y110078D01*
X591601Y110088D01*
X591622Y110095D01*
X591779Y110183D01*
X591936Y110268D01*
X591953Y110282D01*
X591973Y110293D01*
X592109Y110410D01*
X592247Y110524D01*
X592261Y110541D01*
X592278Y110556D01*
X592387Y110697D01*
X592500Y110837D01*
X592511Y110857D01*
X592524Y110874D01*
X592604Y111035D01*
X592687Y111193D01*
X592694Y111215D01*
X592704Y111235D01*
X592750Y111408D01*
X592800Y111580D01*
X592802Y111602D01*
X592808Y111623D01*
X592835Y111954D01*
X592835Y156225D01*
X592833Y156252D01*
X592835Y156278D01*
X592813Y156452D01*
X592795Y156626D01*
X592788Y156651D01*
X592784Y156678D01*
X592729Y156843D01*
X592677Y157010D01*
X592664Y157034D01*
X592656Y157059D01*
X592569Y157211D01*
X592485Y157365D01*
X592468Y157385D01*
X592455Y157408D01*
X592240Y157661D01*
X506149Y243752D01*
X506129Y243769D01*
X506111Y243790D01*
X505973Y243897D01*
X505838Y244007D01*
X505814Y244020D01*
X505793Y244036D01*
X505636Y244114D01*
X505482Y244196D01*
X505457Y244204D01*
X505432Y244216D01*
X505263Y244261D01*
X505096Y244311D01*
X505070Y244313D01*
X505044Y244320D01*
X504713Y244347D01*
X497652Y244347D01*
X491997Y250002D01*
X491997Y257998D01*
X497652Y263653D01*
X505648Y263653D01*
X511303Y257998D01*
X511303Y250937D01*
X511305Y250910D01*
X511303Y250884D01*
X511325Y250710D01*
X511343Y250536D01*
X511350Y250511D01*
X511354Y250484D01*
X511409Y250319D01*
X511461Y250152D01*
X511474Y250128D01*
X511482Y250103D01*
X511569Y249951D01*
X511653Y249797D01*
X511670Y249777D01*
X511683Y249754D01*
X511898Y249501D01*
X600346Y161052D01*
X600965Y159559D01*
X600965Y111954D01*
X600967Y111932D01*
X600965Y111910D01*
X600987Y111732D01*
X601005Y111554D01*
X601011Y111532D01*
X601014Y111510D01*
X601070Y111340D01*
X601123Y111169D01*
X601133Y111149D01*
X601140Y111128D01*
X601229Y110972D01*
X601315Y110815D01*
X601329Y110798D01*
X601340Y110778D01*
X601458Y110643D01*
X601572Y110505D01*
X601590Y110491D01*
X601604Y110475D01*
X601746Y110365D01*
X601886Y110253D01*
X601906Y110243D01*
X601924Y110229D01*
X602219Y110078D01*
X605713Y108630D01*
X610090Y104254D01*
X612458Y98535D01*
X612458Y65295D01*
X610090Y59576D01*
X605713Y55200D01*
X599995Y52831D01*
X593805Y52831D01*
G37*
%LPD*%
%LPC*%
G36*
X546815Y52831D02*
X546815Y52831D01*
X541097Y55200D01*
X536720Y59576D01*
X534352Y65295D01*
X534352Y98535D01*
X536720Y104254D01*
X541097Y108630D01*
X541771Y108909D01*
X541782Y108915D01*
X541795Y108919D01*
X541959Y109010D01*
X542125Y109099D01*
X542136Y109108D01*
X542147Y109114D01*
X542290Y109235D01*
X542436Y109356D01*
X542444Y109366D01*
X542454Y109375D01*
X542571Y109523D01*
X542690Y109668D01*
X542696Y109680D01*
X542704Y109691D01*
X542790Y109859D01*
X542877Y110025D01*
X542880Y110038D01*
X542886Y110050D01*
X542937Y110232D01*
X542990Y110411D01*
X542991Y110425D01*
X542994Y110438D01*
X543008Y110625D01*
X543024Y110812D01*
X543023Y110826D01*
X543024Y110839D01*
X543000Y111027D01*
X542979Y111212D01*
X542975Y111225D01*
X542973Y111239D01*
X542913Y111417D01*
X542856Y111596D01*
X542849Y111608D01*
X542845Y111620D01*
X542751Y111783D01*
X542660Y111947D01*
X542651Y111957D01*
X542644Y111969D01*
X542430Y112222D01*
X474233Y180418D01*
X474233Y180419D01*
X472804Y181848D01*
X472185Y183341D01*
X472185Y243572D01*
X472183Y243599D01*
X472185Y243626D01*
X472163Y243799D01*
X472145Y243973D01*
X472138Y243998D01*
X472134Y244025D01*
X472079Y244190D01*
X472027Y244358D01*
X472014Y244381D01*
X472006Y244407D01*
X471919Y244558D01*
X471835Y244712D01*
X471818Y244732D01*
X471805Y244756D01*
X471590Y245009D01*
X466597Y250002D01*
X466597Y257998D01*
X472252Y263653D01*
X480248Y263653D01*
X485903Y257998D01*
X485903Y250002D01*
X480910Y245009D01*
X480893Y244988D01*
X480872Y244970D01*
X480765Y244833D01*
X480655Y244697D01*
X480642Y244673D01*
X480626Y244652D01*
X480548Y244495D01*
X480466Y244341D01*
X480458Y244316D01*
X480446Y244292D01*
X480401Y244122D01*
X480351Y243956D01*
X480349Y243929D01*
X480342Y243903D01*
X480315Y243572D01*
X480315Y186675D01*
X480317Y186648D01*
X480315Y186622D01*
X480337Y186448D01*
X480355Y186274D01*
X480362Y186249D01*
X480366Y186222D01*
X480421Y186057D01*
X480473Y185890D01*
X480486Y185866D01*
X480494Y185841D01*
X480581Y185689D01*
X480665Y185535D01*
X480682Y185515D01*
X480695Y185492D01*
X480910Y185239D01*
X552102Y114046D01*
X552117Y114034D01*
X552133Y114016D01*
X552703Y113470D01*
X553005Y112742D01*
X553014Y112725D01*
X553022Y112702D01*
X553370Y111910D01*
X553380Y111817D01*
X553386Y111795D01*
X553389Y111773D01*
X553445Y111603D01*
X553498Y111432D01*
X553508Y111412D01*
X553515Y111391D01*
X553604Y111235D01*
X553690Y111078D01*
X553704Y111061D01*
X553715Y111041D01*
X553833Y110906D01*
X553947Y110768D01*
X553965Y110754D01*
X553979Y110738D01*
X554122Y110628D01*
X554261Y110516D01*
X554281Y110506D01*
X554298Y110492D01*
X554594Y110341D01*
X558723Y108630D01*
X563100Y104254D01*
X565468Y98535D01*
X565468Y65295D01*
X563100Y59576D01*
X558723Y55200D01*
X553005Y52831D01*
X546815Y52831D01*
G37*
%LPD*%
%LPC*%
G36*
X269052Y301497D02*
X269052Y301497D01*
X263397Y307152D01*
X263397Y315148D01*
X268390Y320141D01*
X268407Y320162D01*
X268428Y320180D01*
X268535Y320317D01*
X268645Y320453D01*
X268658Y320477D01*
X268674Y320498D01*
X268752Y320655D01*
X268834Y320809D01*
X268842Y320834D01*
X268854Y320858D01*
X268899Y321028D01*
X268949Y321194D01*
X268951Y321221D01*
X268958Y321247D01*
X268985Y321578D01*
X268985Y324659D01*
X269604Y326152D01*
X281090Y337639D01*
X281107Y337659D01*
X281128Y337677D01*
X281235Y337815D01*
X281345Y337950D01*
X281358Y337974D01*
X281374Y337995D01*
X281452Y338151D01*
X281534Y338306D01*
X281542Y338331D01*
X281554Y338356D01*
X281599Y338525D01*
X281649Y338692D01*
X281651Y338718D01*
X281658Y338744D01*
X281685Y339075D01*
X281685Y422925D01*
X281683Y422952D01*
X281685Y422978D01*
X281663Y423152D01*
X281645Y423326D01*
X281638Y423351D01*
X281634Y423378D01*
X281579Y423543D01*
X281527Y423710D01*
X281514Y423734D01*
X281506Y423759D01*
X281419Y423911D01*
X281335Y424065D01*
X281318Y424085D01*
X281305Y424108D01*
X281090Y424361D01*
X276533Y428918D01*
X276513Y428935D01*
X276495Y428956D01*
X276357Y429063D01*
X276222Y429173D01*
X276198Y429186D01*
X276177Y429202D01*
X276020Y429280D01*
X275866Y429362D01*
X275841Y429370D01*
X275816Y429382D01*
X275647Y429427D01*
X275480Y429477D01*
X275454Y429479D01*
X275428Y429486D01*
X275097Y429513D01*
X269473Y429513D01*
X264413Y434573D01*
X264413Y441727D01*
X269473Y446787D01*
X276627Y446787D01*
X281687Y441727D01*
X281687Y436103D01*
X281689Y436076D01*
X281687Y436050D01*
X281709Y435876D01*
X281727Y435702D01*
X281734Y435677D01*
X281738Y435650D01*
X281793Y435485D01*
X281845Y435318D01*
X281858Y435294D01*
X281866Y435269D01*
X281953Y435117D01*
X282037Y434963D01*
X282054Y434943D01*
X282067Y434920D01*
X282282Y434667D01*
X289196Y427753D01*
X289461Y427112D01*
X289463Y427108D01*
X289465Y427103D01*
X289558Y426930D01*
X289652Y426757D01*
X289654Y426753D01*
X289657Y426749D01*
X289782Y426599D01*
X289908Y426446D01*
X289911Y426443D01*
X289914Y426440D01*
X290065Y426319D01*
X290221Y426193D01*
X290225Y426190D01*
X290228Y426188D01*
X290400Y426099D01*
X290577Y426006D01*
X290581Y426004D01*
X290585Y426002D01*
X290773Y425948D01*
X290964Y425892D01*
X290968Y425892D01*
X290972Y425891D01*
X291170Y425875D01*
X291365Y425858D01*
X291369Y425858D01*
X291374Y425858D01*
X291569Y425881D01*
X291765Y425903D01*
X291769Y425904D01*
X291773Y425905D01*
X291961Y425966D01*
X292148Y426026D01*
X292152Y426028D01*
X292156Y426030D01*
X292329Y426127D01*
X292500Y426222D01*
X292503Y426225D01*
X292507Y426228D01*
X292657Y426357D01*
X292805Y426484D01*
X292808Y426488D01*
X292812Y426491D01*
X292932Y426647D01*
X293054Y426801D01*
X293056Y426805D01*
X293058Y426809D01*
X293146Y426985D01*
X293234Y427161D01*
X293236Y427165D01*
X293238Y427169D01*
X293289Y427360D01*
X293341Y427549D01*
X293341Y427554D01*
X293342Y427558D01*
X293369Y427889D01*
X293369Y480975D01*
X293367Y481002D01*
X293369Y481029D01*
X293347Y481202D01*
X293329Y481376D01*
X293322Y481401D01*
X293318Y481428D01*
X293262Y481594D01*
X293211Y481761D01*
X293198Y481784D01*
X293190Y481810D01*
X293103Y481961D01*
X293019Y482115D01*
X293002Y482135D01*
X292989Y482159D01*
X292774Y482412D01*
X289813Y485373D01*
X289813Y492527D01*
X294873Y497587D01*
X302027Y497587D01*
X307087Y492527D01*
X307087Y485373D01*
X304126Y482412D01*
X304109Y482391D01*
X304088Y482373D01*
X303981Y482235D01*
X303871Y482100D01*
X303858Y482076D01*
X303842Y482055D01*
X303764Y481899D01*
X303682Y481744D01*
X303674Y481719D01*
X303662Y481695D01*
X303617Y481526D01*
X303567Y481358D01*
X303565Y481332D01*
X303558Y481306D01*
X303531Y480975D01*
X303531Y421449D01*
X303533Y421423D01*
X303531Y421396D01*
X303553Y421222D01*
X303571Y421049D01*
X303578Y421023D01*
X303582Y420997D01*
X303637Y420831D01*
X303689Y420664D01*
X303702Y420640D01*
X303710Y420615D01*
X303797Y420463D01*
X303881Y420310D01*
X303898Y420289D01*
X303911Y420266D01*
X304126Y420013D01*
X305515Y418624D01*
X305515Y406876D01*
X304324Y405685D01*
X291846Y405685D01*
X291828Y405683D01*
X291810Y405685D01*
X291628Y405664D01*
X291445Y405645D01*
X291428Y405640D01*
X291411Y405638D01*
X291236Y405581D01*
X291060Y405527D01*
X291045Y405519D01*
X291028Y405513D01*
X290868Y405423D01*
X290706Y405335D01*
X290693Y405324D01*
X290677Y405315D01*
X290538Y405195D01*
X290397Y405078D01*
X290386Y405064D01*
X290372Y405052D01*
X290260Y404907D01*
X290145Y404764D01*
X290137Y404748D01*
X290126Y404734D01*
X290044Y404569D01*
X289959Y404407D01*
X289954Y404390D01*
X289946Y404374D01*
X289899Y404195D01*
X289848Y404020D01*
X289846Y404002D01*
X289842Y403985D01*
X289815Y403654D01*
X289815Y335741D01*
X289196Y334248D01*
X277836Y322888D01*
X277825Y322874D01*
X277811Y322862D01*
X277697Y322718D01*
X277581Y322576D01*
X277573Y322560D01*
X277562Y322546D01*
X277478Y322382D01*
X277392Y322220D01*
X277387Y322203D01*
X277379Y322187D01*
X277330Y322010D01*
X277278Y321835D01*
X277276Y321817D01*
X277271Y321800D01*
X277258Y321616D01*
X277241Y321434D01*
X277243Y321416D01*
X277242Y321398D01*
X277265Y321216D01*
X277285Y321033D01*
X277290Y321016D01*
X277292Y320999D01*
X277350Y320825D01*
X277406Y320649D01*
X277415Y320634D01*
X277420Y320617D01*
X277512Y320457D01*
X277601Y320297D01*
X277612Y320284D01*
X277621Y320268D01*
X277836Y320015D01*
X282703Y315148D01*
X282703Y307152D01*
X277048Y301497D01*
X269052Y301497D01*
G37*
%LPD*%
%LPC*%
G36*
X243652Y301497D02*
X243652Y301497D01*
X237997Y307152D01*
X237997Y315148D01*
X242990Y320141D01*
X243007Y320162D01*
X243028Y320180D01*
X243135Y320317D01*
X243245Y320453D01*
X243258Y320477D01*
X243274Y320498D01*
X243352Y320655D01*
X243434Y320809D01*
X243442Y320834D01*
X243454Y320858D01*
X243499Y321028D01*
X243549Y321194D01*
X243551Y321221D01*
X243558Y321247D01*
X243585Y321578D01*
X243585Y324659D01*
X244204Y326152D01*
X268390Y350339D01*
X268407Y350359D01*
X268428Y350377D01*
X268535Y350515D01*
X268645Y350650D01*
X268658Y350674D01*
X268674Y350695D01*
X268752Y350851D01*
X268834Y351006D01*
X268842Y351031D01*
X268854Y351056D01*
X268899Y351225D01*
X268949Y351392D01*
X268951Y351418D01*
X268958Y351444D01*
X268985Y351775D01*
X268985Y391175D01*
X268983Y391202D01*
X268985Y391228D01*
X268963Y391402D01*
X268945Y391576D01*
X268938Y391601D01*
X268934Y391628D01*
X268879Y391793D01*
X268827Y391960D01*
X268814Y391984D01*
X268806Y392009D01*
X268719Y392161D01*
X268635Y392315D01*
X268618Y392335D01*
X268605Y392358D01*
X268390Y392611D01*
X225154Y435848D01*
X224535Y437341D01*
X224535Y502459D01*
X225154Y503952D01*
X238998Y517796D01*
X240491Y518415D01*
X264059Y518415D01*
X264086Y518417D01*
X264113Y518415D01*
X264286Y518437D01*
X264460Y518455D01*
X264485Y518462D01*
X264512Y518466D01*
X264678Y518522D01*
X264845Y518573D01*
X264868Y518586D01*
X264894Y518594D01*
X265045Y518681D01*
X265199Y518765D01*
X265219Y518782D01*
X265243Y518795D01*
X265496Y519010D01*
X269473Y522987D01*
X276627Y522987D01*
X281687Y517927D01*
X281687Y510773D01*
X276627Y505713D01*
X269473Y505713D01*
X265496Y509690D01*
X265475Y509707D01*
X265457Y509728D01*
X265319Y509835D01*
X265184Y509945D01*
X265160Y509958D01*
X265139Y509974D01*
X264983Y510052D01*
X264828Y510134D01*
X264803Y510142D01*
X264779Y510154D01*
X264609Y510199D01*
X264442Y510249D01*
X264416Y510251D01*
X264390Y510258D01*
X264059Y510285D01*
X243825Y510285D01*
X243798Y510283D01*
X243772Y510285D01*
X243598Y510263D01*
X243424Y510245D01*
X243399Y510238D01*
X243372Y510234D01*
X243207Y510179D01*
X243040Y510127D01*
X243016Y510114D01*
X242991Y510106D01*
X242839Y510019D01*
X242685Y509935D01*
X242665Y509918D01*
X242642Y509905D01*
X242389Y509690D01*
X233260Y500561D01*
X233243Y500541D01*
X233222Y500523D01*
X233115Y500385D01*
X233005Y500250D01*
X232992Y500226D01*
X232976Y500205D01*
X232898Y500048D01*
X232816Y499894D01*
X232808Y499869D01*
X232796Y499844D01*
X232751Y499675D01*
X232701Y499508D01*
X232699Y499482D01*
X232692Y499456D01*
X232665Y499125D01*
X232665Y440675D01*
X232667Y440648D01*
X232665Y440622D01*
X232687Y440448D01*
X232705Y440274D01*
X232712Y440249D01*
X232716Y440222D01*
X232771Y440057D01*
X232823Y439890D01*
X232836Y439866D01*
X232844Y439841D01*
X232931Y439689D01*
X233015Y439535D01*
X233032Y439515D01*
X233045Y439492D01*
X233260Y439239D01*
X276496Y396002D01*
X277115Y394509D01*
X277115Y348441D01*
X276496Y346948D01*
X252436Y322888D01*
X252425Y322874D01*
X252411Y322862D01*
X252297Y322718D01*
X252181Y322576D01*
X252173Y322560D01*
X252162Y322546D01*
X252078Y322381D01*
X251992Y322220D01*
X251987Y322203D01*
X251979Y322187D01*
X251930Y322010D01*
X251878Y321835D01*
X251876Y321817D01*
X251871Y321800D01*
X251858Y321616D01*
X251841Y321434D01*
X251843Y321416D01*
X251842Y321398D01*
X251865Y321216D01*
X251885Y321033D01*
X251890Y321016D01*
X251892Y320999D01*
X251950Y320825D01*
X252006Y320649D01*
X252015Y320634D01*
X252020Y320617D01*
X252112Y320457D01*
X252201Y320297D01*
X252212Y320284D01*
X252221Y320268D01*
X252436Y320015D01*
X257303Y315148D01*
X257303Y307152D01*
X251648Y301497D01*
X243652Y301497D01*
G37*
%LPD*%
%LPC*%
G36*
X675466Y373760D02*
X675466Y373760D01*
X673973Y374379D01*
X589461Y458890D01*
X589441Y458907D01*
X589423Y458928D01*
X589285Y459035D01*
X589150Y459145D01*
X589126Y459158D01*
X589105Y459174D01*
X588948Y459252D01*
X588794Y459334D01*
X588769Y459342D01*
X588744Y459354D01*
X588575Y459399D01*
X588408Y459449D01*
X588382Y459451D01*
X588356Y459458D01*
X588025Y459485D01*
X564341Y459485D01*
X562848Y460104D01*
X561418Y461533D01*
X555933Y467018D01*
X555913Y467035D01*
X555895Y467056D01*
X555757Y467163D01*
X555622Y467273D01*
X555598Y467286D01*
X555577Y467302D01*
X555420Y467380D01*
X555266Y467462D01*
X555241Y467470D01*
X555216Y467482D01*
X555047Y467527D01*
X554880Y467577D01*
X554854Y467579D01*
X554828Y467586D01*
X554497Y467613D01*
X548873Y467613D01*
X543813Y472673D01*
X543813Y479827D01*
X548873Y484887D01*
X556027Y484887D01*
X561087Y479827D01*
X561087Y474203D01*
X561089Y474176D01*
X561087Y474150D01*
X561109Y473976D01*
X561127Y473802D01*
X561134Y473777D01*
X561138Y473750D01*
X561194Y473584D01*
X561245Y473417D01*
X561258Y473394D01*
X561266Y473369D01*
X561353Y473217D01*
X561437Y473063D01*
X561454Y473043D01*
X561467Y473020D01*
X561682Y472767D01*
X566239Y468210D01*
X566259Y468193D01*
X566277Y468172D01*
X566414Y468066D01*
X566550Y467955D01*
X566574Y467942D01*
X566595Y467926D01*
X566751Y467848D01*
X566906Y467766D01*
X566932Y467758D01*
X566956Y467746D01*
X567124Y467701D01*
X567292Y467651D01*
X567318Y467649D01*
X567344Y467642D01*
X567675Y467615D01*
X591359Y467615D01*
X592852Y466996D01*
X677364Y382485D01*
X677384Y382468D01*
X677402Y382447D01*
X677540Y382340D01*
X677675Y382230D01*
X677699Y382217D01*
X677720Y382201D01*
X677877Y382123D01*
X678031Y382041D01*
X678056Y382033D01*
X678081Y382021D01*
X678250Y381976D01*
X678417Y381926D01*
X678443Y381924D01*
X678469Y381917D01*
X678800Y381890D01*
X705500Y381890D01*
X705527Y381892D01*
X705553Y381890D01*
X705727Y381912D01*
X705901Y381930D01*
X705926Y381937D01*
X705953Y381941D01*
X706118Y381996D01*
X706285Y382048D01*
X706309Y382061D01*
X706334Y382069D01*
X706486Y382156D01*
X706640Y382240D01*
X706660Y382257D01*
X706683Y382270D01*
X706936Y382485D01*
X721018Y396567D01*
X721035Y396587D01*
X721056Y396605D01*
X721163Y396743D01*
X721273Y396878D01*
X721286Y396902D01*
X721302Y396923D01*
X721380Y397080D01*
X721462Y397234D01*
X721470Y397259D01*
X721482Y397284D01*
X721527Y397453D01*
X721577Y397620D01*
X721579Y397646D01*
X721586Y397672D01*
X721613Y398003D01*
X721613Y403627D01*
X726673Y408687D01*
X733827Y408687D01*
X738887Y403627D01*
X738887Y396473D01*
X733827Y391413D01*
X728203Y391413D01*
X728176Y391411D01*
X728150Y391413D01*
X727976Y391391D01*
X727802Y391373D01*
X727777Y391366D01*
X727750Y391362D01*
X727584Y391306D01*
X727417Y391255D01*
X727394Y391242D01*
X727369Y391234D01*
X727217Y391147D01*
X727063Y391063D01*
X727043Y391046D01*
X727020Y391033D01*
X726767Y390818D01*
X710327Y374379D01*
X708834Y373760D01*
X675466Y373760D01*
G37*
%LPD*%
%LPC*%
G36*
X129897Y37274D02*
X129897Y37274D01*
X123227Y39061D01*
X117247Y42514D01*
X112364Y47397D01*
X108911Y53377D01*
X107124Y60047D01*
X107124Y66953D01*
X108911Y73623D01*
X112364Y79603D01*
X117247Y84486D01*
X123227Y87939D01*
X129897Y89726D01*
X136803Y89726D01*
X143473Y87939D01*
X149453Y84486D01*
X154336Y79603D01*
X157789Y73623D01*
X159576Y66953D01*
X159576Y60047D01*
X157789Y53377D01*
X154336Y47397D01*
X149453Y42514D01*
X143473Y39061D01*
X136803Y37274D01*
X129897Y37274D01*
G37*
%LPD*%
%LPC*%
G36*
X640541Y345185D02*
X640541Y345185D01*
X639048Y345804D01*
X637618Y347233D01*
X632335Y352517D01*
X632317Y352531D01*
X632303Y352548D01*
X632162Y352658D01*
X632023Y352772D01*
X632003Y352782D01*
X631986Y352796D01*
X631825Y352877D01*
X631668Y352960D01*
X631646Y352967D01*
X631626Y352977D01*
X631453Y353024D01*
X631282Y353075D01*
X631259Y353077D01*
X631238Y353083D01*
X631059Y353095D01*
X630881Y353112D01*
X630858Y353109D01*
X630836Y353111D01*
X630659Y353088D01*
X630481Y353068D01*
X630459Y353061D01*
X630442Y353059D01*
X626932Y353059D01*
X623758Y354374D01*
X621328Y356804D01*
X620013Y359978D01*
X620013Y376622D01*
X621328Y379796D01*
X623758Y382226D01*
X626932Y383541D01*
X630368Y383541D01*
X633542Y382226D01*
X635972Y379796D01*
X637287Y376622D01*
X637287Y359903D01*
X637289Y359876D01*
X637287Y359850D01*
X637309Y359676D01*
X637327Y359502D01*
X637334Y359477D01*
X637338Y359450D01*
X637394Y359284D01*
X637445Y359118D01*
X637458Y359094D01*
X637466Y359069D01*
X637553Y358917D01*
X637637Y358763D01*
X637654Y358743D01*
X637667Y358720D01*
X637882Y358467D01*
X642439Y353910D01*
X642459Y353893D01*
X642477Y353872D01*
X642615Y353765D01*
X642750Y353655D01*
X642774Y353642D01*
X642795Y353626D01*
X642952Y353548D01*
X643106Y353466D01*
X643131Y353458D01*
X643156Y353446D01*
X643325Y353401D01*
X643492Y353351D01*
X643518Y353349D01*
X643544Y353342D01*
X643875Y353315D01*
X702325Y353315D01*
X702352Y353317D01*
X702378Y353315D01*
X702552Y353337D01*
X702726Y353355D01*
X702751Y353362D01*
X702778Y353366D01*
X702943Y353421D01*
X703110Y353473D01*
X703134Y353486D01*
X703159Y353494D01*
X703311Y353581D01*
X703465Y353665D01*
X703485Y353682D01*
X703508Y353695D01*
X703761Y353910D01*
X744640Y394789D01*
X744657Y394809D01*
X744678Y394827D01*
X744785Y394965D01*
X744895Y395100D01*
X744908Y395124D01*
X744924Y395145D01*
X745002Y395302D01*
X745084Y395456D01*
X745092Y395481D01*
X745104Y395506D01*
X745149Y395675D01*
X745199Y395842D01*
X745201Y395868D01*
X745208Y395894D01*
X745235Y396225D01*
X745235Y403759D01*
X745233Y403786D01*
X745235Y403812D01*
X745213Y403986D01*
X745195Y404160D01*
X745188Y404185D01*
X745184Y404212D01*
X745129Y404378D01*
X745077Y404545D01*
X745064Y404568D01*
X745056Y404594D01*
X744969Y404745D01*
X744885Y404899D01*
X744868Y404919D01*
X744855Y404942D01*
X744640Y405195D01*
X740663Y409173D01*
X740663Y416327D01*
X745723Y421387D01*
X752877Y421387D01*
X757937Y416327D01*
X757937Y409173D01*
X753960Y405195D01*
X753943Y405175D01*
X753922Y405157D01*
X753815Y405019D01*
X753705Y404884D01*
X753692Y404860D01*
X753676Y404839D01*
X753598Y404682D01*
X753516Y404528D01*
X753508Y404503D01*
X753496Y404479D01*
X753451Y404309D01*
X753401Y404142D01*
X753399Y404116D01*
X753392Y404090D01*
X753365Y403759D01*
X753365Y392891D01*
X752746Y391398D01*
X707152Y345804D01*
X705659Y345185D01*
X640541Y345185D01*
G37*
%LPD*%
%LPC*%
G36*
X737779Y323341D02*
X737779Y323341D01*
X734091Y324869D01*
X731269Y327691D01*
X729741Y331379D01*
X729741Y335371D01*
X731269Y339059D01*
X734091Y341881D01*
X734397Y342008D01*
X737779Y343409D01*
X741771Y343409D01*
X745459Y341881D01*
X748281Y339059D01*
X748432Y338694D01*
X748443Y338674D01*
X748450Y338653D01*
X748538Y338497D01*
X748623Y338339D01*
X748637Y338322D01*
X748648Y338302D01*
X748765Y338167D01*
X748879Y338028D01*
X748896Y338014D01*
X748911Y337997D01*
X749052Y337888D01*
X749192Y337775D01*
X749211Y337764D01*
X749229Y337751D01*
X749389Y337671D01*
X749548Y337588D01*
X749569Y337581D01*
X749589Y337571D01*
X749762Y337525D01*
X749934Y337475D01*
X749957Y337473D01*
X749978Y337467D01*
X750309Y337440D01*
X819800Y337440D01*
X819827Y337442D01*
X819853Y337440D01*
X820027Y337462D01*
X820201Y337480D01*
X820226Y337487D01*
X820253Y337491D01*
X820418Y337546D01*
X820585Y337598D01*
X820609Y337611D01*
X820634Y337619D01*
X820786Y337706D01*
X820940Y337790D01*
X820960Y337807D01*
X820983Y337820D01*
X821236Y338035D01*
X870243Y387042D01*
X870260Y387062D01*
X870281Y387080D01*
X870387Y387218D01*
X870498Y387353D01*
X870511Y387377D01*
X870527Y387398D01*
X870605Y387555D01*
X870687Y387709D01*
X870695Y387734D01*
X870707Y387759D01*
X870752Y387928D01*
X870802Y388095D01*
X870804Y388121D01*
X870811Y388147D01*
X870838Y388478D01*
X870838Y394102D01*
X875898Y399162D01*
X883052Y399162D01*
X888112Y394102D01*
X888112Y386948D01*
X883052Y381888D01*
X877428Y381888D01*
X877401Y381886D01*
X877375Y381888D01*
X877201Y381866D01*
X877027Y381848D01*
X877002Y381841D01*
X876975Y381837D01*
X876810Y381782D01*
X876643Y381730D01*
X876619Y381717D01*
X876594Y381709D01*
X876442Y381622D01*
X876288Y381538D01*
X876268Y381521D01*
X876245Y381508D01*
X875992Y381293D01*
X824627Y329929D01*
X823134Y329310D01*
X750309Y329310D01*
X750287Y329308D01*
X750264Y329310D01*
X750087Y329288D01*
X749908Y329270D01*
X749887Y329264D01*
X749865Y329261D01*
X749695Y329205D01*
X749523Y329152D01*
X749504Y329142D01*
X749483Y329135D01*
X749327Y329046D01*
X749169Y328960D01*
X749152Y328946D01*
X749133Y328935D01*
X748997Y328817D01*
X748860Y328703D01*
X748846Y328685D01*
X748829Y328671D01*
X748720Y328528D01*
X748608Y328389D01*
X748598Y328369D01*
X748584Y328351D01*
X748432Y328056D01*
X748281Y327691D01*
X745459Y324869D01*
X741938Y323411D01*
X741771Y323341D01*
X737779Y323341D01*
G37*
%LPD*%
%LPC*%
G36*
X398444Y411337D02*
X398444Y411337D01*
X395477Y412566D01*
X393206Y414837D01*
X391977Y417804D01*
X391977Y433096D01*
X393206Y436063D01*
X395477Y438334D01*
X398444Y439563D01*
X400685Y439563D01*
X400694Y439564D01*
X400703Y439563D01*
X400895Y439584D01*
X401086Y439603D01*
X401094Y439605D01*
X401103Y439606D01*
X401285Y439664D01*
X401471Y439721D01*
X401478Y439725D01*
X401487Y439728D01*
X401655Y439821D01*
X401825Y439913D01*
X401831Y439918D01*
X401839Y439923D01*
X401986Y440047D01*
X402134Y440170D01*
X402139Y440177D01*
X402146Y440183D01*
X402265Y440334D01*
X402386Y440484D01*
X402390Y440492D01*
X402396Y440499D01*
X402484Y440672D01*
X402572Y440841D01*
X402574Y440850D01*
X402578Y440858D01*
X402630Y441044D01*
X402683Y441228D01*
X402684Y441237D01*
X402686Y441246D01*
X402700Y441439D01*
X402716Y441630D01*
X402715Y441638D01*
X402716Y441647D01*
X402691Y441840D01*
X402669Y442029D01*
X402666Y442038D01*
X402665Y442047D01*
X402604Y442230D01*
X402544Y442412D01*
X402540Y442420D01*
X402537Y442428D01*
X402441Y442595D01*
X402346Y442763D01*
X402341Y442770D01*
X402336Y442777D01*
X402121Y443030D01*
X396604Y448548D01*
X395985Y450041D01*
X395985Y487417D01*
X395983Y487443D01*
X395985Y487470D01*
X395963Y487644D01*
X395945Y487817D01*
X395938Y487843D01*
X395934Y487870D01*
X395879Y488035D01*
X395827Y488202D01*
X395814Y488226D01*
X395806Y488251D01*
X395719Y488403D01*
X395635Y488556D01*
X395618Y488577D01*
X395605Y488600D01*
X395390Y488853D01*
X393206Y491037D01*
X391977Y494004D01*
X391977Y509296D01*
X393206Y512263D01*
X395477Y514534D01*
X398444Y515763D01*
X401656Y515763D01*
X404623Y514534D01*
X406894Y512263D01*
X408123Y509296D01*
X408123Y494004D01*
X406894Y491037D01*
X404710Y488853D01*
X404693Y488832D01*
X404672Y488815D01*
X404565Y488677D01*
X404455Y488542D01*
X404442Y488518D01*
X404426Y488497D01*
X404348Y488340D01*
X404266Y488186D01*
X404258Y488160D01*
X404246Y488136D01*
X404201Y487967D01*
X404151Y487800D01*
X404149Y487773D01*
X404142Y487748D01*
X404115Y487417D01*
X404115Y453375D01*
X404117Y453348D01*
X404115Y453322D01*
X404137Y453148D01*
X404155Y452974D01*
X404162Y452949D01*
X404166Y452922D01*
X404221Y452757D01*
X404273Y452590D01*
X404286Y452566D01*
X404294Y452541D01*
X404381Y452389D01*
X404465Y452235D01*
X404482Y452215D01*
X404495Y452192D01*
X404710Y451939D01*
X421967Y434682D01*
X421987Y434665D01*
X422005Y434644D01*
X422143Y434537D01*
X422278Y434427D01*
X422302Y434414D01*
X422323Y434398D01*
X422480Y434320D01*
X422634Y434238D01*
X422659Y434230D01*
X422684Y434218D01*
X422853Y434173D01*
X423020Y434123D01*
X423046Y434121D01*
X423072Y434114D01*
X423403Y434087D01*
X429027Y434087D01*
X434087Y429027D01*
X434087Y421873D01*
X429027Y416813D01*
X421873Y416813D01*
X416813Y421873D01*
X416813Y427497D01*
X416811Y427524D01*
X416813Y427550D01*
X416791Y427724D01*
X416773Y427898D01*
X416766Y427923D01*
X416762Y427950D01*
X416707Y428115D01*
X416655Y428282D01*
X416642Y428306D01*
X416634Y428331D01*
X416547Y428483D01*
X416463Y428637D01*
X416446Y428657D01*
X416433Y428680D01*
X416218Y428933D01*
X411590Y433561D01*
X411583Y433567D01*
X411578Y433574D01*
X411428Y433694D01*
X411279Y433816D01*
X411271Y433821D01*
X411264Y433826D01*
X411094Y433915D01*
X410923Y434005D01*
X410914Y434008D01*
X410907Y434012D01*
X410722Y434065D01*
X410537Y434120D01*
X410528Y434121D01*
X410520Y434123D01*
X410328Y434139D01*
X410136Y434156D01*
X410127Y434155D01*
X410118Y434156D01*
X409929Y434134D01*
X409736Y434113D01*
X409727Y434110D01*
X409719Y434109D01*
X409537Y434050D01*
X409352Y433991D01*
X409344Y433987D01*
X409336Y433984D01*
X409167Y433889D01*
X409000Y433796D01*
X408993Y433791D01*
X408985Y433786D01*
X408839Y433660D01*
X408693Y433536D01*
X408687Y433529D01*
X408680Y433523D01*
X408563Y433372D01*
X408443Y433220D01*
X408439Y433212D01*
X408434Y433205D01*
X408348Y433033D01*
X408261Y432861D01*
X408258Y432853D01*
X408254Y432845D01*
X408204Y432656D01*
X408153Y432473D01*
X408152Y432464D01*
X408150Y432456D01*
X408123Y432125D01*
X408123Y417804D01*
X406894Y414837D01*
X404623Y412566D01*
X401656Y411337D01*
X398444Y411337D01*
G37*
%LPD*%
%LPC*%
G36*
X375126Y119935D02*
X375126Y119935D01*
X373935Y121126D01*
X373935Y132874D01*
X375151Y134089D01*
X375305Y134105D01*
X375322Y134110D01*
X375339Y134112D01*
X375514Y134169D01*
X375690Y134223D01*
X375705Y134231D01*
X375722Y134237D01*
X375882Y134327D01*
X376044Y134415D01*
X376057Y134426D01*
X376073Y134435D01*
X376212Y134555D01*
X376353Y134672D01*
X376364Y134686D01*
X376378Y134698D01*
X376490Y134843D01*
X376605Y134986D01*
X376613Y135002D01*
X376624Y135016D01*
X376706Y135181D01*
X376791Y135343D01*
X376796Y135360D01*
X376804Y135376D01*
X376851Y135555D01*
X376902Y135730D01*
X376904Y135748D01*
X376908Y135765D01*
X376935Y136096D01*
X376935Y232425D01*
X376933Y232452D01*
X376935Y232478D01*
X376913Y232652D01*
X376895Y232826D01*
X376888Y232851D01*
X376884Y232878D01*
X376829Y233043D01*
X376777Y233210D01*
X376764Y233234D01*
X376756Y233259D01*
X376669Y233411D01*
X376585Y233565D01*
X376568Y233585D01*
X376555Y233608D01*
X376340Y233861D01*
X360988Y249214D01*
X360974Y249225D01*
X360962Y249239D01*
X360819Y249352D01*
X360676Y249469D01*
X360660Y249477D01*
X360646Y249488D01*
X360482Y249572D01*
X360320Y249658D01*
X360303Y249663D01*
X360287Y249671D01*
X360110Y249720D01*
X359934Y249772D01*
X359917Y249774D01*
X359900Y249779D01*
X359716Y249792D01*
X359534Y249809D01*
X359516Y249807D01*
X359498Y249808D01*
X359316Y249785D01*
X359133Y249765D01*
X359116Y249760D01*
X359099Y249758D01*
X358925Y249699D01*
X358749Y249644D01*
X358734Y249635D01*
X358717Y249630D01*
X358557Y249538D01*
X358397Y249449D01*
X358384Y249438D01*
X358368Y249429D01*
X358115Y249214D01*
X353248Y244347D01*
X345252Y244347D01*
X339597Y250002D01*
X339597Y257998D01*
X345252Y263653D01*
X353248Y263653D01*
X358241Y258660D01*
X358262Y258643D01*
X358280Y258622D01*
X358417Y258515D01*
X358553Y258405D01*
X358576Y258392D01*
X358598Y258376D01*
X358754Y258298D01*
X358909Y258216D01*
X358934Y258208D01*
X358958Y258196D01*
X359127Y258151D01*
X359294Y258101D01*
X359321Y258099D01*
X359347Y258092D01*
X359678Y258065D01*
X362759Y258065D01*
X364252Y257446D01*
X384446Y237252D01*
X385065Y235759D01*
X385065Y136096D01*
X385066Y136079D01*
X385065Y136063D01*
X385065Y136062D01*
X385065Y136060D01*
X385086Y135878D01*
X385105Y135695D01*
X385110Y135678D01*
X385112Y135661D01*
X385169Y135486D01*
X385223Y135310D01*
X385231Y135295D01*
X385237Y135278D01*
X385327Y135118D01*
X385415Y134956D01*
X385426Y134943D01*
X385435Y134927D01*
X385555Y134788D01*
X385672Y134647D01*
X385686Y134636D01*
X385698Y134622D01*
X385843Y134510D01*
X385986Y134395D01*
X386002Y134387D01*
X386016Y134376D01*
X386181Y134294D01*
X386343Y134209D01*
X386360Y134204D01*
X386376Y134196D01*
X386555Y134149D01*
X386730Y134098D01*
X386748Y134096D01*
X386765Y134092D01*
X386854Y134085D01*
X388065Y132874D01*
X388065Y121126D01*
X386874Y119935D01*
X375126Y119935D01*
G37*
%LPD*%
%LPC*%
G36*
X915482Y118917D02*
X915482Y118917D01*
X903307Y131092D01*
X903307Y148308D01*
X915482Y160483D01*
X932698Y160483D01*
X944873Y148308D01*
X944873Y131092D01*
X932698Y118917D01*
X915482Y118917D01*
G37*
%LPD*%
%LPC*%
G36*
X881642Y49067D02*
X881642Y49067D01*
X869467Y61242D01*
X869467Y78458D01*
X881642Y90633D01*
X898858Y90633D01*
X911033Y78458D01*
X911033Y61242D01*
X898858Y49067D01*
X881642Y49067D01*
G37*
%LPD*%
%LPC*%
G36*
X881642Y188767D02*
X881642Y188767D01*
X869467Y200942D01*
X869467Y218158D01*
X881642Y230333D01*
X898858Y230333D01*
X911033Y218158D01*
X911033Y200942D01*
X898858Y188767D01*
X881642Y188767D01*
G37*
%LPD*%
%LPC*%
G36*
X801182Y188767D02*
X801182Y188767D01*
X789007Y200942D01*
X789007Y218158D01*
X801182Y230333D01*
X818398Y230333D01*
X830573Y218158D01*
X830573Y200942D01*
X818398Y188767D01*
X801182Y188767D01*
G37*
%LPD*%
%LPC*%
G36*
X834623Y302513D02*
X834623Y302513D01*
X829563Y307573D01*
X829563Y314727D01*
X834623Y319787D01*
X840247Y319787D01*
X840274Y319789D01*
X840300Y319787D01*
X840474Y319809D01*
X840648Y319827D01*
X840673Y319834D01*
X840700Y319838D01*
X840865Y319893D01*
X841032Y319945D01*
X841056Y319958D01*
X841081Y319966D01*
X841233Y320053D01*
X841387Y320137D01*
X841407Y320154D01*
X841430Y320167D01*
X841683Y320382D01*
X861298Y339996D01*
X862791Y340615D01*
X876950Y340615D01*
X876977Y340617D01*
X877003Y340615D01*
X877177Y340637D01*
X877351Y340655D01*
X877376Y340662D01*
X877403Y340666D01*
X877568Y340721D01*
X877735Y340773D01*
X877759Y340786D01*
X877784Y340794D01*
X877936Y340881D01*
X878090Y340965D01*
X878110Y340982D01*
X878133Y340995D01*
X878386Y341210D01*
X902573Y365396D01*
X904066Y366015D01*
X912867Y366015D01*
X912893Y366017D01*
X912920Y366015D01*
X913094Y366037D01*
X913267Y366055D01*
X913293Y366062D01*
X913320Y366066D01*
X913485Y366122D01*
X913652Y366173D01*
X913676Y366186D01*
X913701Y366194D01*
X913853Y366281D01*
X914006Y366365D01*
X914027Y366382D01*
X914050Y366395D01*
X914303Y366610D01*
X916487Y368794D01*
X919454Y370023D01*
X934746Y370023D01*
X937713Y368794D01*
X939984Y366523D01*
X941213Y363556D01*
X941213Y360344D01*
X939984Y357377D01*
X937713Y355106D01*
X934746Y353877D01*
X919454Y353877D01*
X916487Y355106D01*
X914303Y357290D01*
X914282Y357307D01*
X914265Y357328D01*
X914127Y357435D01*
X913992Y357545D01*
X913968Y357558D01*
X913947Y357574D01*
X913790Y357652D01*
X913636Y357734D01*
X913610Y357742D01*
X913586Y357754D01*
X913417Y357799D01*
X913250Y357849D01*
X913223Y357851D01*
X913198Y357858D01*
X912867Y357885D01*
X907400Y357885D01*
X907373Y357883D01*
X907347Y357885D01*
X907173Y357863D01*
X906999Y357845D01*
X906974Y357838D01*
X906947Y357834D01*
X906782Y357779D01*
X906615Y357727D01*
X906591Y357714D01*
X906566Y357706D01*
X906414Y357619D01*
X906260Y357535D01*
X906240Y357518D01*
X906217Y357505D01*
X905964Y357290D01*
X881777Y333104D01*
X880284Y332485D01*
X866125Y332485D01*
X866098Y332483D01*
X866072Y332485D01*
X865898Y332463D01*
X865724Y332445D01*
X865699Y332438D01*
X865672Y332434D01*
X865507Y332379D01*
X865340Y332327D01*
X865316Y332314D01*
X865291Y332306D01*
X865139Y332219D01*
X864985Y332135D01*
X864965Y332118D01*
X864942Y332105D01*
X864689Y331890D01*
X847432Y314633D01*
X847415Y314613D01*
X847394Y314595D01*
X847287Y314457D01*
X847177Y314322D01*
X847164Y314298D01*
X847148Y314277D01*
X847070Y314120D01*
X846988Y313966D01*
X846980Y313941D01*
X846968Y313916D01*
X846923Y313747D01*
X846873Y313580D01*
X846871Y313554D01*
X846864Y313528D01*
X846837Y313197D01*
X846837Y307573D01*
X841777Y302513D01*
X834623Y302513D01*
G37*
%LPD*%
%LPC*%
G36*
X326478Y167087D02*
X326478Y167087D01*
X325287Y168278D01*
X325287Y201122D01*
X326478Y202313D01*
X359322Y202313D01*
X360513Y201122D01*
X360513Y168278D01*
X359322Y167087D01*
X326478Y167087D01*
G37*
%LPD*%
%LPC*%
G36*
X47078Y167087D02*
X47078Y167087D01*
X45887Y168278D01*
X45887Y201122D01*
X47078Y202313D01*
X79922Y202313D01*
X81113Y201122D01*
X81113Y168278D01*
X79922Y167087D01*
X47078Y167087D01*
G37*
%LPD*%
%LPC*%
G36*
X47078Y77087D02*
X47078Y77087D01*
X45887Y78278D01*
X45887Y111122D01*
X47078Y112313D01*
X79922Y112313D01*
X81113Y111122D01*
X81113Y78278D01*
X79922Y77087D01*
X47078Y77087D01*
G37*
%LPD*%
%LPC*%
G36*
X292576Y183435D02*
X292576Y183435D01*
X291385Y184626D01*
X291385Y196374D01*
X292601Y197589D01*
X292755Y197605D01*
X292772Y197610D01*
X292789Y197612D01*
X292964Y197669D01*
X293140Y197723D01*
X293155Y197731D01*
X293172Y197737D01*
X293332Y197827D01*
X293494Y197915D01*
X293507Y197926D01*
X293523Y197935D01*
X293662Y198055D01*
X293803Y198172D01*
X293814Y198186D01*
X293828Y198198D01*
X293940Y198343D01*
X294055Y198486D01*
X294063Y198502D01*
X294074Y198516D01*
X294156Y198681D01*
X294241Y198843D01*
X294246Y198860D01*
X294254Y198876D01*
X294301Y199055D01*
X294352Y199230D01*
X294354Y199248D01*
X294358Y199265D01*
X294385Y199596D01*
X294385Y243572D01*
X294383Y243599D01*
X294385Y243626D01*
X294363Y243799D01*
X294345Y243973D01*
X294338Y243998D01*
X294334Y244025D01*
X294279Y244190D01*
X294227Y244358D01*
X294214Y244381D01*
X294206Y244407D01*
X294119Y244558D01*
X294035Y244712D01*
X294018Y244732D01*
X294005Y244756D01*
X293790Y245009D01*
X288797Y250002D01*
X288797Y257998D01*
X294452Y263653D01*
X302448Y263653D01*
X308103Y257998D01*
X308103Y250002D01*
X303110Y245009D01*
X303093Y244988D01*
X303072Y244970D01*
X302965Y244833D01*
X302855Y244697D01*
X302842Y244673D01*
X302826Y244652D01*
X302748Y244495D01*
X302666Y244341D01*
X302658Y244316D01*
X302646Y244292D01*
X302601Y244122D01*
X302551Y243956D01*
X302549Y243929D01*
X302542Y243903D01*
X302515Y243572D01*
X302515Y199596D01*
X302517Y199578D01*
X302515Y199560D01*
X302536Y199378D01*
X302555Y199195D01*
X302560Y199178D01*
X302562Y199161D01*
X302619Y198986D01*
X302673Y198810D01*
X302681Y198795D01*
X302687Y198778D01*
X302777Y198618D01*
X302865Y198456D01*
X302876Y198443D01*
X302885Y198427D01*
X303005Y198288D01*
X303122Y198147D01*
X303136Y198136D01*
X303148Y198122D01*
X303293Y198010D01*
X303436Y197895D01*
X303452Y197887D01*
X303466Y197876D01*
X303631Y197794D01*
X303793Y197709D01*
X303810Y197704D01*
X303826Y197696D01*
X304005Y197649D01*
X304180Y197598D01*
X304198Y197596D01*
X304215Y197592D01*
X304304Y197585D01*
X305515Y196374D01*
X305515Y184626D01*
X304324Y183435D01*
X292576Y183435D01*
G37*
%LPD*%
%LPC*%
G36*
X201228Y353313D02*
X201228Y353313D01*
X198054Y354628D01*
X195624Y357058D01*
X194309Y360232D01*
X194309Y363668D01*
X195624Y366842D01*
X198054Y369272D01*
X201228Y370587D01*
X217872Y370587D01*
X221060Y369266D01*
X221168Y369181D01*
X221310Y369065D01*
X221326Y369056D01*
X221340Y369045D01*
X221504Y368962D01*
X221666Y368876D01*
X221683Y368871D01*
X221699Y368863D01*
X221876Y368813D01*
X222052Y368761D01*
X222069Y368760D01*
X222087Y368755D01*
X222270Y368741D01*
X222453Y368725D01*
X222470Y368727D01*
X222488Y368725D01*
X222671Y368748D01*
X222853Y368768D01*
X222870Y368773D01*
X222888Y368776D01*
X223062Y368834D01*
X223237Y368890D01*
X223252Y368898D01*
X223269Y368904D01*
X223428Y368995D01*
X223589Y369084D01*
X223603Y369096D01*
X223618Y369105D01*
X223871Y369320D01*
X231218Y376667D01*
X232648Y378096D01*
X234141Y378715D01*
X238659Y378715D01*
X238686Y378717D01*
X238712Y378715D01*
X238886Y378737D01*
X239060Y378755D01*
X239085Y378762D01*
X239112Y378766D01*
X239278Y378821D01*
X239445Y378873D01*
X239468Y378886D01*
X239494Y378894D01*
X239645Y378981D01*
X239799Y379065D01*
X239819Y379082D01*
X239842Y379095D01*
X240095Y379310D01*
X244073Y383287D01*
X251227Y383287D01*
X256287Y378227D01*
X256287Y371073D01*
X251227Y366013D01*
X244073Y366013D01*
X240095Y369990D01*
X240075Y370007D01*
X240057Y370028D01*
X239919Y370135D01*
X239784Y370245D01*
X239760Y370258D01*
X239739Y370274D01*
X239582Y370352D01*
X239428Y370434D01*
X239403Y370442D01*
X239379Y370454D01*
X239209Y370499D01*
X239042Y370549D01*
X239016Y370551D01*
X238990Y370558D01*
X238659Y370585D01*
X237475Y370585D01*
X237448Y370583D01*
X237422Y370585D01*
X237248Y370563D01*
X237074Y370545D01*
X237049Y370538D01*
X237022Y370534D01*
X236857Y370479D01*
X236690Y370427D01*
X236666Y370414D01*
X236641Y370406D01*
X236489Y370319D01*
X236335Y370235D01*
X236315Y370218D01*
X236292Y370205D01*
X236039Y369990D01*
X224500Y358451D01*
X224399Y358397D01*
X224378Y358380D01*
X224355Y358367D01*
X224223Y358252D01*
X224088Y358141D01*
X224071Y358120D01*
X224051Y358102D01*
X223944Y357964D01*
X223835Y357828D01*
X223822Y357804D01*
X223806Y357783D01*
X223654Y357488D01*
X223476Y357058D01*
X221046Y354628D01*
X217872Y353313D01*
X201228Y353313D01*
G37*
%LPD*%
%LPC*%
G36*
X201228Y327913D02*
X201228Y327913D01*
X198054Y329228D01*
X195624Y331658D01*
X194309Y334832D01*
X194309Y338268D01*
X195624Y341442D01*
X198054Y343872D01*
X201228Y345187D01*
X217872Y345187D01*
X221060Y343866D01*
X221168Y343781D01*
X221310Y343665D01*
X221326Y343656D01*
X221340Y343645D01*
X221504Y343562D01*
X221666Y343476D01*
X221683Y343471D01*
X221699Y343463D01*
X221876Y343413D01*
X222052Y343361D01*
X222069Y343360D01*
X222087Y343355D01*
X222270Y343341D01*
X222453Y343325D01*
X222470Y343327D01*
X222488Y343325D01*
X222671Y343348D01*
X222853Y343368D01*
X222870Y343373D01*
X222888Y343376D01*
X223062Y343434D01*
X223237Y343490D01*
X223252Y343498D01*
X223269Y343504D01*
X223428Y343595D01*
X223589Y343684D01*
X223603Y343696D01*
X223618Y343705D01*
X223871Y343920D01*
X231218Y351267D01*
X232648Y352696D01*
X234141Y353315D01*
X238659Y353315D01*
X238686Y353317D01*
X238712Y353315D01*
X238886Y353337D01*
X239060Y353355D01*
X239085Y353362D01*
X239112Y353366D01*
X239278Y353421D01*
X239445Y353473D01*
X239468Y353486D01*
X239494Y353494D01*
X239645Y353581D01*
X239799Y353665D01*
X239819Y353682D01*
X239842Y353695D01*
X240095Y353910D01*
X244073Y357887D01*
X251227Y357887D01*
X256287Y352827D01*
X256287Y345673D01*
X251227Y340613D01*
X244073Y340613D01*
X240095Y344590D01*
X240075Y344607D01*
X240057Y344628D01*
X239919Y344735D01*
X239784Y344845D01*
X239760Y344858D01*
X239739Y344874D01*
X239582Y344952D01*
X239428Y345034D01*
X239403Y345042D01*
X239379Y345054D01*
X239209Y345099D01*
X239042Y345149D01*
X239016Y345151D01*
X238990Y345158D01*
X238659Y345185D01*
X237475Y345185D01*
X237448Y345183D01*
X237422Y345185D01*
X237248Y345163D01*
X237074Y345145D01*
X237049Y345138D01*
X237022Y345134D01*
X236857Y345079D01*
X236690Y345027D01*
X236666Y345014D01*
X236641Y345006D01*
X236489Y344919D01*
X236335Y344835D01*
X236315Y344818D01*
X236292Y344805D01*
X236039Y344590D01*
X224500Y333051D01*
X224399Y332997D01*
X224378Y332980D01*
X224355Y332967D01*
X224223Y332852D01*
X224088Y332741D01*
X224071Y332720D01*
X224051Y332702D01*
X223944Y332564D01*
X223835Y332428D01*
X223822Y332404D01*
X223806Y332383D01*
X223654Y332088D01*
X223476Y331658D01*
X221046Y329228D01*
X217872Y327913D01*
X201228Y327913D01*
G37*
%LPD*%
%LPC*%
G36*
X421873Y442213D02*
X421873Y442213D01*
X416813Y447273D01*
X416813Y454427D01*
X421873Y459487D01*
X426060Y459487D01*
X426087Y459489D01*
X426113Y459487D01*
X426287Y459509D01*
X426461Y459527D01*
X426486Y459534D01*
X426513Y459538D01*
X426678Y459593D01*
X426846Y459645D01*
X426869Y459658D01*
X426895Y459666D01*
X427046Y459753D01*
X427200Y459837D01*
X427220Y459854D01*
X427243Y459867D01*
X427496Y460082D01*
X431052Y463638D01*
X431058Y463645D01*
X431065Y463650D01*
X431185Y463800D01*
X431308Y463949D01*
X431312Y463957D01*
X431317Y463964D01*
X431406Y464134D01*
X431496Y464305D01*
X431499Y464314D01*
X431503Y464321D01*
X431556Y464506D01*
X431611Y464691D01*
X431612Y464700D01*
X431614Y464708D01*
X431630Y464899D01*
X431647Y465092D01*
X431646Y465101D01*
X431647Y465110D01*
X431625Y465299D01*
X431604Y465492D01*
X431601Y465501D01*
X431600Y465509D01*
X431541Y465691D01*
X431482Y465876D01*
X431478Y465884D01*
X431475Y465892D01*
X431380Y466061D01*
X431288Y466228D01*
X431282Y466235D01*
X431277Y466243D01*
X431151Y466389D01*
X431027Y466535D01*
X431020Y466541D01*
X431014Y466548D01*
X430863Y466665D01*
X430711Y466785D01*
X430703Y466789D01*
X430696Y466794D01*
X430524Y466880D01*
X430352Y466967D01*
X430344Y466970D01*
X430336Y466974D01*
X430150Y467024D01*
X429964Y467075D01*
X429955Y467076D01*
X429947Y467078D01*
X429616Y467105D01*
X427481Y467105D01*
X427481Y474219D01*
X434595Y474219D01*
X434595Y472084D01*
X434596Y472075D01*
X434595Y472066D01*
X434616Y471874D01*
X434635Y471683D01*
X434637Y471675D01*
X434638Y471666D01*
X434696Y471483D01*
X434753Y471298D01*
X434757Y471290D01*
X434760Y471282D01*
X434854Y471112D01*
X434945Y470944D01*
X434950Y470937D01*
X434955Y470930D01*
X435079Y470783D01*
X435202Y470635D01*
X435209Y470629D01*
X435215Y470623D01*
X435366Y470504D01*
X435516Y470383D01*
X435524Y470379D01*
X435531Y470373D01*
X435704Y470285D01*
X435873Y470197D01*
X435882Y470195D01*
X435890Y470191D01*
X436076Y470139D01*
X436260Y470086D01*
X436269Y470085D01*
X436278Y470083D01*
X436471Y470069D01*
X436662Y470053D01*
X436670Y470054D01*
X436679Y470053D01*
X436872Y470078D01*
X437061Y470100D01*
X437070Y470103D01*
X437079Y470104D01*
X437262Y470165D01*
X437444Y470225D01*
X437452Y470229D01*
X437460Y470232D01*
X437627Y470328D01*
X437795Y470423D01*
X437802Y470428D01*
X437809Y470433D01*
X438062Y470648D01*
X441618Y474204D01*
X441635Y474224D01*
X441656Y474242D01*
X441762Y474379D01*
X441873Y474515D01*
X441886Y474539D01*
X441902Y474560D01*
X441980Y474716D01*
X442062Y474871D01*
X442070Y474896D01*
X442082Y474920D01*
X442127Y475089D01*
X442177Y475257D01*
X442179Y475283D01*
X442186Y475309D01*
X442213Y475640D01*
X442213Y479827D01*
X447273Y484887D01*
X454427Y484887D01*
X459487Y479827D01*
X459487Y472673D01*
X454427Y467613D01*
X450240Y467613D01*
X450213Y467611D01*
X450187Y467613D01*
X450013Y467591D01*
X449839Y467573D01*
X449814Y467566D01*
X449787Y467562D01*
X449622Y467507D01*
X449454Y467455D01*
X449431Y467442D01*
X449405Y467434D01*
X449254Y467347D01*
X449100Y467263D01*
X449080Y467246D01*
X449057Y467233D01*
X448804Y467018D01*
X445248Y463462D01*
X445242Y463455D01*
X445235Y463450D01*
X445115Y463300D01*
X444992Y463151D01*
X444988Y463143D01*
X444983Y463136D01*
X444894Y462966D01*
X444804Y462795D01*
X444801Y462786D01*
X444797Y462779D01*
X444744Y462594D01*
X444689Y462409D01*
X444688Y462400D01*
X444686Y462392D01*
X444670Y462201D01*
X444653Y462008D01*
X444654Y461999D01*
X444653Y461990D01*
X444675Y461801D01*
X444696Y461608D01*
X444699Y461599D01*
X444700Y461591D01*
X444759Y461409D01*
X444818Y461224D01*
X444822Y461216D01*
X444825Y461208D01*
X444920Y461039D01*
X445012Y460872D01*
X445018Y460865D01*
X445023Y460857D01*
X445149Y460711D01*
X445273Y460565D01*
X445280Y460559D01*
X445286Y460552D01*
X445437Y460435D01*
X445589Y460315D01*
X445597Y460311D01*
X445604Y460306D01*
X445776Y460220D01*
X445948Y460133D01*
X445956Y460130D01*
X445964Y460126D01*
X446150Y460076D01*
X446336Y460025D01*
X446345Y460024D01*
X446353Y460022D01*
X446684Y459995D01*
X448819Y459995D01*
X448819Y452881D01*
X441705Y452881D01*
X441705Y455016D01*
X441704Y455025D01*
X441705Y455034D01*
X441684Y455226D01*
X441665Y455417D01*
X441663Y455425D01*
X441662Y455434D01*
X441604Y455617D01*
X441547Y455802D01*
X441543Y455810D01*
X441540Y455818D01*
X441448Y455986D01*
X441356Y456156D01*
X441350Y456163D01*
X441345Y456170D01*
X441222Y456316D01*
X441098Y456465D01*
X441091Y456471D01*
X441085Y456477D01*
X440934Y456596D01*
X440784Y456717D01*
X440776Y456721D01*
X440769Y456727D01*
X440597Y456814D01*
X440427Y456903D01*
X440418Y456905D01*
X440410Y456909D01*
X440225Y456961D01*
X440040Y457014D01*
X440031Y457015D01*
X440022Y457017D01*
X439830Y457031D01*
X439638Y457047D01*
X439630Y457046D01*
X439621Y457047D01*
X439428Y457022D01*
X439239Y457000D01*
X439230Y456997D01*
X439221Y456996D01*
X439038Y456935D01*
X438856Y456875D01*
X438848Y456871D01*
X438840Y456868D01*
X438673Y456772D01*
X438505Y456677D01*
X438498Y456672D01*
X438491Y456667D01*
X438238Y456452D01*
X434682Y452896D01*
X434665Y452876D01*
X434644Y452858D01*
X434538Y452721D01*
X434427Y452585D01*
X434414Y452561D01*
X434398Y452540D01*
X434320Y452384D01*
X434238Y452229D01*
X434230Y452204D01*
X434218Y452180D01*
X434173Y452011D01*
X434123Y451843D01*
X434121Y451817D01*
X434114Y451791D01*
X434087Y451460D01*
X434087Y447273D01*
X429027Y442213D01*
X421873Y442213D01*
G37*
%LPD*%
%LPC*%
G36*
X201228Y378713D02*
X201228Y378713D01*
X198054Y380028D01*
X195624Y382458D01*
X194309Y385632D01*
X194309Y389068D01*
X195624Y392242D01*
X198054Y394672D01*
X198412Y394820D01*
X201228Y395987D01*
X217872Y395987D01*
X221046Y394672D01*
X223476Y392242D01*
X224791Y389068D01*
X224791Y385632D01*
X223476Y382458D01*
X221046Y380028D01*
X217872Y378713D01*
X201228Y378713D01*
G37*
%LPD*%
%LPC*%
G36*
X182178Y480313D02*
X182178Y480313D01*
X179004Y481628D01*
X176574Y484058D01*
X175259Y487232D01*
X175259Y490668D01*
X176574Y493842D01*
X179004Y496272D01*
X179272Y496383D01*
X182178Y497587D01*
X198822Y497587D01*
X201996Y496272D01*
X204426Y493842D01*
X205741Y490668D01*
X205741Y487232D01*
X204426Y484058D01*
X201996Y481628D01*
X198822Y480313D01*
X182178Y480313D01*
G37*
%LPD*%
%LPC*%
G36*
X258378Y480313D02*
X258378Y480313D01*
X255204Y481628D01*
X252774Y484058D01*
X251459Y487232D01*
X251459Y490668D01*
X252774Y493842D01*
X255204Y496272D01*
X255472Y496383D01*
X258378Y497587D01*
X275022Y497587D01*
X278196Y496272D01*
X280626Y493842D01*
X281941Y490668D01*
X281941Y487232D01*
X280626Y484058D01*
X278196Y481628D01*
X275022Y480313D01*
X258378Y480313D01*
G37*
%LPD*%
%LPC*%
G36*
X601532Y353059D02*
X601532Y353059D01*
X598358Y354374D01*
X595928Y356804D01*
X594613Y359978D01*
X594613Y376622D01*
X595928Y379796D01*
X598358Y382226D01*
X601532Y383541D01*
X604968Y383541D01*
X608142Y382226D01*
X610572Y379796D01*
X611887Y376622D01*
X611887Y359978D01*
X610572Y356804D01*
X608142Y354374D01*
X604968Y353059D01*
X601532Y353059D01*
G37*
%LPD*%
%LPC*%
G36*
X391728Y308863D02*
X391728Y308863D01*
X388554Y310178D01*
X386124Y312608D01*
X384809Y315782D01*
X384809Y319218D01*
X386124Y322392D01*
X388554Y324822D01*
X391728Y326137D01*
X408372Y326137D01*
X411546Y324822D01*
X413976Y322392D01*
X415291Y319218D01*
X415291Y315782D01*
X413976Y312608D01*
X411546Y310178D01*
X408372Y308863D01*
X391728Y308863D01*
G37*
%LPD*%
%LPC*%
G36*
X258378Y454913D02*
X258378Y454913D01*
X255204Y456228D01*
X252774Y458658D01*
X251459Y461832D01*
X251459Y465268D01*
X252774Y468442D01*
X255204Y470872D01*
X258378Y472187D01*
X275022Y472187D01*
X278196Y470872D01*
X280626Y468442D01*
X281941Y465268D01*
X281941Y461832D01*
X280626Y458658D01*
X278196Y456228D01*
X275022Y454913D01*
X258378Y454913D01*
G37*
%LPD*%
%LPC*%
G36*
X652078Y442213D02*
X652078Y442213D01*
X648904Y443528D01*
X646474Y445958D01*
X645159Y449132D01*
X645159Y452568D01*
X646474Y455742D01*
X648904Y458172D01*
X652078Y459487D01*
X668722Y459487D01*
X671896Y458172D01*
X674326Y455742D01*
X675641Y452568D01*
X675641Y449132D01*
X674326Y445958D01*
X671896Y443528D01*
X668722Y442213D01*
X652078Y442213D01*
G37*
%LPD*%
%LPC*%
G36*
X182178Y454913D02*
X182178Y454913D01*
X179004Y456228D01*
X176574Y458658D01*
X175259Y461832D01*
X175259Y465268D01*
X176574Y468442D01*
X179004Y470872D01*
X182178Y472187D01*
X198822Y472187D01*
X201996Y470872D01*
X204426Y468442D01*
X205741Y465268D01*
X205741Y461832D01*
X204426Y458658D01*
X201996Y456228D01*
X198822Y454913D01*
X182178Y454913D01*
G37*
%LPD*%
%LPC*%
G36*
X652078Y493013D02*
X652078Y493013D01*
X648904Y494328D01*
X646474Y496758D01*
X645159Y499932D01*
X645159Y503368D01*
X646474Y506542D01*
X648904Y508972D01*
X652078Y510287D01*
X668722Y510287D01*
X671896Y508972D01*
X674326Y506542D01*
X675641Y503368D01*
X675641Y499932D01*
X674326Y496758D01*
X671896Y494328D01*
X671190Y494036D01*
X668722Y493013D01*
X652078Y493013D01*
G37*
%LPD*%
%LPC*%
G36*
X652078Y467613D02*
X652078Y467613D01*
X648904Y468928D01*
X646474Y471358D01*
X645159Y474532D01*
X645159Y477968D01*
X646474Y481142D01*
X648904Y483572D01*
X650409Y484195D01*
X652078Y484887D01*
X668722Y484887D01*
X671896Y483572D01*
X674326Y481142D01*
X675641Y477968D01*
X675641Y474532D01*
X674326Y471358D01*
X671896Y468928D01*
X668722Y467613D01*
X652078Y467613D01*
G37*
%LPD*%
%LPC*%
G36*
X866999Y121059D02*
X866999Y121059D01*
X866999Y139038D01*
X866997Y139056D01*
X866999Y139074D01*
X866978Y139256D01*
X866959Y139439D01*
X866954Y139456D01*
X866952Y139473D01*
X866895Y139648D01*
X866841Y139824D01*
X866833Y139839D01*
X866827Y139856D01*
X866737Y140016D01*
X866649Y140178D01*
X866638Y140191D01*
X866629Y140207D01*
X866509Y140346D01*
X866392Y140487D01*
X866378Y140498D01*
X866366Y140512D01*
X866313Y140553D01*
X866313Y158297D01*
X883541Y158297D01*
X883541Y153541D01*
X871771Y141771D01*
X871760Y141758D01*
X871746Y141746D01*
X871632Y141602D01*
X871516Y141460D01*
X871508Y141444D01*
X871496Y141430D01*
X871413Y141266D01*
X871327Y141104D01*
X871322Y141087D01*
X871314Y141071D01*
X871265Y140894D01*
X871212Y140718D01*
X871211Y140700D01*
X871206Y140683D01*
X871193Y140500D01*
X871176Y140317D01*
X871178Y140299D01*
X871177Y140282D01*
X871200Y140100D01*
X871219Y139917D01*
X871225Y139900D01*
X871227Y139882D01*
X871285Y139709D01*
X871341Y139533D01*
X871350Y139517D01*
X871355Y139501D01*
X871447Y139341D01*
X871536Y139181D01*
X871547Y139167D01*
X871556Y139152D01*
X871771Y138899D01*
X884541Y126129D01*
X884541Y121059D01*
X866999Y121059D01*
G37*
%LPD*%
%LPC*%
G36*
X841959Y121059D02*
X841959Y121059D01*
X841959Y126129D01*
X853729Y137899D01*
X853740Y137912D01*
X853754Y137924D01*
X853868Y138068D01*
X853984Y138210D01*
X853992Y138226D01*
X854004Y138240D01*
X854087Y138404D01*
X854173Y138566D01*
X854178Y138583D01*
X854186Y138599D01*
X854235Y138776D01*
X854288Y138952D01*
X854289Y138970D01*
X854294Y138987D01*
X854307Y139170D01*
X854324Y139353D01*
X854322Y139371D01*
X854323Y139388D01*
X854300Y139570D01*
X854281Y139753D01*
X854275Y139770D01*
X854273Y139788D01*
X854215Y139961D01*
X854159Y140137D01*
X854150Y140153D01*
X854145Y140169D01*
X854053Y140329D01*
X853964Y140489D01*
X853953Y140503D01*
X853944Y140518D01*
X853729Y140771D01*
X840959Y153541D01*
X840959Y158297D01*
X858187Y158297D01*
X858187Y140632D01*
X858189Y140614D01*
X858187Y140596D01*
X858208Y140414D01*
X858227Y140231D01*
X858232Y140214D01*
X858234Y140197D01*
X858291Y140022D01*
X858345Y139846D01*
X858353Y139831D01*
X858359Y139814D01*
X858449Y139654D01*
X858537Y139492D01*
X858548Y139479D01*
X858557Y139463D01*
X858677Y139324D01*
X858794Y139183D01*
X858808Y139172D01*
X858820Y139158D01*
X858965Y139046D01*
X859108Y138931D01*
X859124Y138923D01*
X859138Y138912D01*
X859303Y138830D01*
X859465Y138745D01*
X859482Y138740D01*
X859499Y138732D01*
X859501Y138732D01*
X859501Y121059D01*
X841959Y121059D01*
G37*
%LPD*%
%LPC*%
G36*
X124276Y104285D02*
X124276Y104285D01*
X123085Y105476D01*
X123085Y123924D01*
X124276Y125115D01*
X142724Y125115D01*
X143915Y123924D01*
X143915Y105476D01*
X142724Y104285D01*
X124276Y104285D01*
G37*
%LPD*%
%LPC*%
G36*
X919454Y379277D02*
X919454Y379277D01*
X916487Y380506D01*
X914216Y382777D01*
X912987Y385744D01*
X912987Y388956D01*
X914216Y391923D01*
X916487Y394194D01*
X919454Y395423D01*
X934746Y395423D01*
X937713Y394194D01*
X939984Y391923D01*
X941213Y388956D01*
X941213Y385744D01*
X939984Y382777D01*
X937713Y380506D01*
X934746Y379277D01*
X919454Y379277D01*
G37*
%LPD*%
%LPC*%
G36*
X322244Y487537D02*
X322244Y487537D01*
X319277Y488766D01*
X317006Y491037D01*
X315777Y494004D01*
X315777Y509296D01*
X317006Y512263D01*
X319277Y514534D01*
X322244Y515763D01*
X325456Y515763D01*
X328423Y514534D01*
X330694Y512263D01*
X331923Y509296D01*
X331923Y494004D01*
X330694Y491037D01*
X328423Y488766D01*
X325456Y487537D01*
X322244Y487537D01*
G37*
%LPD*%
%LPC*%
G36*
X893744Y411337D02*
X893744Y411337D01*
X890777Y412566D01*
X888506Y414837D01*
X887277Y417804D01*
X887277Y433096D01*
X888506Y436063D01*
X890777Y438334D01*
X893744Y439563D01*
X896956Y439563D01*
X899923Y438334D01*
X902194Y436063D01*
X903423Y433096D01*
X903423Y417804D01*
X902194Y414837D01*
X899923Y412566D01*
X896956Y411337D01*
X893744Y411337D01*
G37*
%LPD*%
%LPC*%
G36*
X868344Y411337D02*
X868344Y411337D01*
X865377Y412566D01*
X863106Y414837D01*
X861877Y417804D01*
X861877Y433096D01*
X863106Y436063D01*
X865377Y438334D01*
X868344Y439563D01*
X871556Y439563D01*
X874523Y438334D01*
X876794Y436063D01*
X878023Y433096D01*
X878023Y417804D01*
X876794Y414837D01*
X874523Y412566D01*
X871556Y411337D01*
X868344Y411337D01*
G37*
%LPD*%
%LPC*%
G36*
X919454Y303077D02*
X919454Y303077D01*
X916487Y304306D01*
X914216Y306577D01*
X912987Y309544D01*
X912987Y312756D01*
X914216Y315723D01*
X916487Y317994D01*
X919454Y319223D01*
X934746Y319223D01*
X937713Y317994D01*
X939984Y315723D01*
X941213Y312756D01*
X941213Y309544D01*
X939984Y306577D01*
X937713Y304306D01*
X934746Y303077D01*
X919454Y303077D01*
G37*
%LPD*%
%LPC*%
G36*
X919454Y328477D02*
X919454Y328477D01*
X916487Y329706D01*
X914216Y331977D01*
X912987Y334944D01*
X912987Y338156D01*
X914216Y341123D01*
X916487Y343394D01*
X919454Y344623D01*
X934746Y344623D01*
X937713Y343394D01*
X939984Y341123D01*
X941213Y338156D01*
X941213Y334944D01*
X939984Y331977D01*
X937713Y329706D01*
X934746Y328477D01*
X919454Y328477D01*
G37*
%LPD*%
%LPC*%
G36*
X842944Y487537D02*
X842944Y487537D01*
X839977Y488766D01*
X837706Y491037D01*
X836477Y494004D01*
X836477Y509296D01*
X837706Y512263D01*
X839977Y514534D01*
X842944Y515763D01*
X846156Y515763D01*
X849123Y514534D01*
X851394Y512263D01*
X852623Y509296D01*
X852623Y494004D01*
X851394Y491037D01*
X849123Y488766D01*
X846156Y487537D01*
X842944Y487537D01*
G37*
%LPD*%
%LPC*%
G36*
X408586Y129285D02*
X408586Y129285D01*
X402485Y135386D01*
X402485Y144014D01*
X408586Y150115D01*
X417214Y150115D01*
X423315Y144014D01*
X423315Y135386D01*
X417214Y129285D01*
X408586Y129285D01*
G37*
%LPD*%
%LPC*%
G36*
X408586Y154285D02*
X408586Y154285D01*
X402485Y160386D01*
X402485Y169014D01*
X408586Y175115D01*
X417214Y175115D01*
X423315Y169014D01*
X423315Y160386D01*
X417214Y154285D01*
X408586Y154285D01*
G37*
%LPD*%
%LPC*%
G36*
X129186Y154285D02*
X129186Y154285D01*
X123085Y160386D01*
X123085Y169014D01*
X129186Y175115D01*
X137814Y175115D01*
X143915Y169014D01*
X143915Y160386D01*
X137814Y154285D01*
X129186Y154285D01*
G37*
%LPD*%
%LPC*%
G36*
X129186Y129285D02*
X129186Y129285D01*
X123085Y135386D01*
X123085Y144014D01*
X129186Y150115D01*
X137814Y150115D01*
X143915Y144014D01*
X143915Y135386D01*
X137814Y129285D01*
X129186Y129285D01*
G37*
%LPD*%
%LPC*%
G36*
X141894Y339216D02*
X141894Y339216D01*
X136016Y345094D01*
X136016Y353406D01*
X141894Y359284D01*
X150206Y359284D01*
X156084Y353406D01*
X156084Y345094D01*
X150206Y339216D01*
X141894Y339216D01*
G37*
%LPD*%
%LPC*%
G36*
X144054Y402716D02*
X144054Y402716D01*
X140366Y404244D01*
X137544Y407066D01*
X136016Y410754D01*
X136016Y414746D01*
X137544Y418434D01*
X140366Y421256D01*
X144054Y422784D01*
X148046Y422784D01*
X151734Y421256D01*
X154556Y418434D01*
X156084Y414746D01*
X156084Y410754D01*
X154556Y407066D01*
X151734Y404244D01*
X148046Y402716D01*
X144054Y402716D01*
G37*
%LPD*%
%LPC*%
G36*
X269052Y244347D02*
X269052Y244347D01*
X263397Y250002D01*
X263397Y257998D01*
X269052Y263653D01*
X277048Y263653D01*
X282703Y257998D01*
X282703Y250002D01*
X277048Y244347D01*
X269052Y244347D01*
G37*
%LPD*%
%LPC*%
G36*
X345252Y301497D02*
X345252Y301497D01*
X339597Y307152D01*
X339597Y315148D01*
X345252Y320803D01*
X353248Y320803D01*
X358903Y315148D01*
X358903Y307152D01*
X353248Y301497D01*
X345252Y301497D01*
G37*
%LPD*%
%LPC*%
G36*
X599252Y301497D02*
X599252Y301497D01*
X593597Y307152D01*
X593597Y315148D01*
X599252Y320803D01*
X607248Y320803D01*
X612903Y315148D01*
X612903Y307152D01*
X607248Y301497D01*
X599252Y301497D01*
G37*
%LPD*%
%LPC*%
G36*
X573852Y301497D02*
X573852Y301497D01*
X568197Y307152D01*
X568197Y315148D01*
X573852Y320803D01*
X581848Y320803D01*
X587503Y315148D01*
X587503Y307152D01*
X581848Y301497D01*
X573852Y301497D01*
G37*
%LPD*%
%LPC*%
G36*
X548452Y301497D02*
X548452Y301497D01*
X542797Y307152D01*
X542797Y315148D01*
X548452Y320803D01*
X556448Y320803D01*
X562103Y315148D01*
X562103Y307152D01*
X556448Y301497D01*
X548452Y301497D01*
G37*
%LPD*%
%LPC*%
G36*
X472252Y301497D02*
X472252Y301497D01*
X466597Y307152D01*
X466597Y315148D01*
X472252Y320803D01*
X480248Y320803D01*
X485903Y315148D01*
X485903Y307152D01*
X480248Y301497D01*
X472252Y301497D01*
G37*
%LPD*%
%LPC*%
G36*
X294452Y301497D02*
X294452Y301497D01*
X288797Y307152D01*
X288797Y315148D01*
X294452Y320803D01*
X302448Y320803D01*
X308103Y315148D01*
X308103Y307152D01*
X302448Y301497D01*
X294452Y301497D01*
G37*
%LPD*%
%LPC*%
G36*
X523052Y301497D02*
X523052Y301497D01*
X517397Y307152D01*
X517397Y315148D01*
X523052Y320803D01*
X531048Y320803D01*
X536703Y315148D01*
X536703Y307152D01*
X531048Y301497D01*
X523052Y301497D01*
G37*
%LPD*%
%LPC*%
G36*
X573852Y244347D02*
X573852Y244347D01*
X568197Y250002D01*
X568197Y257998D01*
X573852Y263653D01*
X581848Y263653D01*
X587503Y257998D01*
X587503Y250002D01*
X581848Y244347D01*
X573852Y244347D01*
G37*
%LPD*%
%LPC*%
G36*
X66062Y352805D02*
X66062Y352805D01*
X60705Y358162D01*
X60705Y365738D01*
X66062Y371095D01*
X73638Y371095D01*
X78995Y365738D01*
X78995Y358162D01*
X73638Y352805D01*
X66062Y352805D01*
G37*
%LPD*%
%LPC*%
G36*
X40662Y352805D02*
X40662Y352805D01*
X35305Y358162D01*
X35305Y365738D01*
X40662Y371095D01*
X48238Y371095D01*
X53595Y365738D01*
X53595Y358162D01*
X48238Y352805D01*
X40662Y352805D01*
G37*
%LPD*%
%LPC*%
G36*
X40662Y454405D02*
X40662Y454405D01*
X35305Y459762D01*
X35305Y467338D01*
X40662Y472695D01*
X48238Y472695D01*
X53595Y467338D01*
X53595Y459762D01*
X48238Y454405D01*
X40662Y454405D01*
G37*
%LPD*%
%LPC*%
G36*
X66062Y454405D02*
X66062Y454405D01*
X60705Y459762D01*
X60705Y467338D01*
X66062Y472695D01*
X73638Y472695D01*
X78995Y467338D01*
X78995Y459762D01*
X73638Y454405D01*
X66062Y454405D01*
G37*
%LPD*%
%LPC*%
G36*
X688573Y391413D02*
X688573Y391413D01*
X683513Y396473D01*
X683513Y403627D01*
X688573Y408687D01*
X695727Y408687D01*
X700787Y403627D01*
X700787Y396473D01*
X695727Y391413D01*
X688573Y391413D01*
G37*
%LPD*%
%LPC*%
G36*
X447273Y493013D02*
X447273Y493013D01*
X442213Y498073D01*
X442213Y505227D01*
X447273Y510287D01*
X454427Y510287D01*
X459487Y505227D01*
X459487Y498073D01*
X454427Y493013D01*
X447273Y493013D01*
G37*
%LPD*%
%LPC*%
G36*
X548873Y493013D02*
X548873Y493013D01*
X543813Y498073D01*
X543813Y505227D01*
X548873Y510287D01*
X556027Y510287D01*
X561087Y505227D01*
X561087Y498073D01*
X556027Y493013D01*
X548873Y493013D01*
G37*
%LPD*%
%LPC*%
G36*
X205973Y118363D02*
X205973Y118363D01*
X200913Y123423D01*
X200913Y130577D01*
X205973Y135637D01*
X213127Y135637D01*
X218187Y130577D01*
X218187Y123423D01*
X213127Y118363D01*
X205973Y118363D01*
G37*
%LPD*%
%LPC*%
G36*
X739373Y454913D02*
X739373Y454913D01*
X734313Y459973D01*
X734313Y467127D01*
X739373Y472187D01*
X746527Y472187D01*
X751587Y467127D01*
X751587Y459973D01*
X746527Y454913D01*
X739373Y454913D01*
G37*
%LPD*%
%LPC*%
G36*
X688573Y493013D02*
X688573Y493013D01*
X683513Y498073D01*
X683513Y505227D01*
X688573Y510287D01*
X695727Y510287D01*
X700787Y505227D01*
X700787Y498073D01*
X695727Y493013D01*
X688573Y493013D01*
G37*
%LPD*%
%LPC*%
G36*
X167873Y429513D02*
X167873Y429513D01*
X162813Y434573D01*
X162813Y441727D01*
X167873Y446787D01*
X175027Y446787D01*
X180087Y441727D01*
X180087Y434573D01*
X175027Y429513D01*
X167873Y429513D01*
G37*
%LPD*%
%LPC*%
G36*
X809223Y302513D02*
X809223Y302513D01*
X804163Y307573D01*
X804163Y314727D01*
X809223Y319787D01*
X816377Y319787D01*
X821437Y314727D01*
X821437Y307573D01*
X816377Y302513D01*
X809223Y302513D01*
G37*
%LPD*%
%LPC*%
G36*
X155173Y105663D02*
X155173Y105663D01*
X150113Y110723D01*
X150113Y117877D01*
X155173Y122937D01*
X162327Y122937D01*
X167387Y117877D01*
X167387Y110723D01*
X162327Y105663D01*
X155173Y105663D01*
G37*
%LPD*%
%LPC*%
G36*
X894948Y302513D02*
X894948Y302513D01*
X889888Y307573D01*
X889888Y314727D01*
X894948Y319787D01*
X902102Y319787D01*
X907162Y314727D01*
X907162Y307573D01*
X902102Y302513D01*
X894948Y302513D01*
G37*
%LPD*%
%LPC*%
G36*
X167873Y505713D02*
X167873Y505713D01*
X162813Y510773D01*
X162813Y517927D01*
X167873Y522987D01*
X175027Y522987D01*
X180087Y517927D01*
X180087Y510773D01*
X175027Y505713D01*
X167873Y505713D01*
G37*
%LPD*%
%LPC*%
G36*
X548873Y442213D02*
X548873Y442213D01*
X543813Y447273D01*
X543813Y454427D01*
X548873Y459487D01*
X556027Y459487D01*
X561087Y454427D01*
X561087Y447273D01*
X556027Y442213D01*
X548873Y442213D01*
G37*
%LPD*%
%LPC*%
G36*
X523473Y416813D02*
X523473Y416813D01*
X518413Y421873D01*
X518413Y429027D01*
X523473Y434087D01*
X530627Y434087D01*
X535687Y429027D01*
X535687Y421873D01*
X530627Y416813D01*
X523473Y416813D01*
G37*
%LPD*%
%LPC*%
G36*
X345673Y366013D02*
X345673Y366013D01*
X340613Y371073D01*
X340613Y378227D01*
X345673Y383287D01*
X352827Y383287D01*
X357887Y378227D01*
X357887Y371073D01*
X352827Y366013D01*
X345673Y366013D01*
G37*
%LPD*%
%LPC*%
G36*
X815573Y480313D02*
X815573Y480313D01*
X810513Y485373D01*
X810513Y492527D01*
X815573Y497587D01*
X822727Y497587D01*
X827787Y492527D01*
X827787Y485373D01*
X822727Y480313D01*
X815573Y480313D01*
G37*
%LPD*%
%LPC*%
G36*
X726673Y416813D02*
X726673Y416813D01*
X721613Y421873D01*
X721613Y429027D01*
X726673Y434087D01*
X733827Y434087D01*
X738887Y429027D01*
X738887Y421873D01*
X733827Y416813D01*
X726673Y416813D01*
G37*
%LPD*%
%LPC*%
G36*
X806048Y416813D02*
X806048Y416813D01*
X800988Y421873D01*
X800988Y429027D01*
X806048Y434087D01*
X813202Y434087D01*
X818262Y429027D01*
X818262Y421873D01*
X813202Y416813D01*
X806048Y416813D01*
G37*
%LPD*%
%LPC*%
G36*
X345673Y340613D02*
X345673Y340613D01*
X340613Y345673D01*
X340613Y352827D01*
X345673Y357887D01*
X352827Y357887D01*
X357887Y352827D01*
X357887Y345673D01*
X352827Y340613D01*
X345673Y340613D01*
G37*
%LPD*%
%LPC*%
G36*
X599673Y391413D02*
X599673Y391413D01*
X594613Y396473D01*
X594613Y403627D01*
X599673Y408687D01*
X606827Y408687D01*
X611887Y403627D01*
X611887Y396473D01*
X606827Y391413D01*
X599673Y391413D01*
G37*
%LPD*%
%LPC*%
G36*
X529823Y385063D02*
X529823Y385063D01*
X524763Y390123D01*
X524763Y397277D01*
X529823Y402337D01*
X536977Y402337D01*
X542037Y397277D01*
X542037Y390123D01*
X536977Y385063D01*
X529823Y385063D01*
G37*
%LPD*%
%LPC*%
G36*
X498073Y385063D02*
X498073Y385063D01*
X493013Y390123D01*
X493013Y397277D01*
X498073Y402337D01*
X505227Y402337D01*
X510287Y397277D01*
X510287Y390123D01*
X505227Y385063D01*
X498073Y385063D01*
G37*
%LPD*%
%LPC*%
G36*
X453623Y385063D02*
X453623Y385063D01*
X448563Y390123D01*
X448563Y397277D01*
X453623Y402337D01*
X460777Y402337D01*
X465837Y397277D01*
X465837Y390123D01*
X460777Y385063D01*
X453623Y385063D01*
G37*
%LPD*%
%LPC*%
G36*
X453623Y334263D02*
X453623Y334263D01*
X448563Y339323D01*
X448563Y346477D01*
X453623Y351537D01*
X460777Y351537D01*
X465837Y346477D01*
X465837Y339323D01*
X460777Y334263D01*
X453623Y334263D01*
G37*
%LPD*%
%LPC*%
G36*
X529823Y334263D02*
X529823Y334263D01*
X524763Y339323D01*
X524763Y346477D01*
X529823Y351537D01*
X536977Y351537D01*
X542037Y346477D01*
X542037Y339323D01*
X536977Y334263D01*
X529823Y334263D01*
G37*
%LPD*%
%LPC*%
G36*
X850498Y381888D02*
X850498Y381888D01*
X845438Y386948D01*
X845438Y394102D01*
X850498Y399162D01*
X857652Y399162D01*
X862712Y394102D01*
X862712Y386948D01*
X857652Y381888D01*
X850498Y381888D01*
G37*
%LPD*%
%LPC*%
G36*
X825098Y381888D02*
X825098Y381888D01*
X820038Y386948D01*
X820038Y394102D01*
X825098Y399162D01*
X832252Y399162D01*
X837312Y394102D01*
X837312Y386948D01*
X832252Y381888D01*
X825098Y381888D01*
G37*
%LPD*%
%LPC*%
G36*
X981299Y190909D02*
X981299Y190909D01*
X981299Y208451D01*
X986369Y208451D01*
X998841Y195979D01*
X998841Y190909D01*
X981299Y190909D01*
G37*
%LPD*%
%LPC*%
G36*
X956259Y190909D02*
X956259Y190909D01*
X956259Y195979D01*
X968731Y208451D01*
X973801Y208451D01*
X973801Y190909D01*
X956259Y190909D01*
G37*
%LPD*%
%LPC*%
G36*
X866999Y96019D02*
X866999Y96019D01*
X866999Y113561D01*
X884541Y113561D01*
X884541Y108491D01*
X872069Y96019D01*
X866999Y96019D01*
G37*
%LPD*%
%LPC*%
G36*
X981299Y165869D02*
X981299Y165869D01*
X981299Y183411D01*
X998841Y183411D01*
X998841Y178341D01*
X986369Y165869D01*
X981299Y165869D01*
G37*
%LPD*%
%LPC*%
G36*
X866999Y235719D02*
X866999Y235719D01*
X866999Y253261D01*
X884541Y253261D01*
X884541Y248191D01*
X872069Y235719D01*
X866999Y235719D01*
G37*
%LPD*%
%LPC*%
G36*
X968731Y165869D02*
X968731Y165869D01*
X956259Y178341D01*
X956259Y183411D01*
X973801Y183411D01*
X973801Y165869D01*
X968731Y165869D01*
G37*
%LPD*%
%LPC*%
G36*
X854431Y96019D02*
X854431Y96019D01*
X841959Y108491D01*
X841959Y113561D01*
X859501Y113561D01*
X859501Y96019D01*
X854431Y96019D01*
G37*
%LPD*%
%LPC*%
G36*
X854431Y235719D02*
X854431Y235719D01*
X841959Y248191D01*
X841959Y253261D01*
X859501Y253261D01*
X859501Y235719D01*
X854431Y235719D01*
G37*
%LPD*%
%LPC*%
G36*
X980613Y96573D02*
X980613Y96573D01*
X980613Y113801D01*
X985369Y113801D01*
X997841Y101329D01*
X997841Y96573D01*
X980613Y96573D01*
G37*
%LPD*%
%LPC*%
G36*
X866313Y26723D02*
X866313Y26723D01*
X866313Y43951D01*
X871069Y43951D01*
X883541Y31479D01*
X883541Y26723D01*
X866313Y26723D01*
G37*
%LPD*%
%LPC*%
G36*
X866313Y166423D02*
X866313Y166423D01*
X866313Y183651D01*
X871069Y183651D01*
X883541Y171179D01*
X883541Y166423D01*
X866313Y166423D01*
G37*
%LPD*%
%LPC*%
G36*
X840959Y26723D02*
X840959Y26723D01*
X840959Y31479D01*
X853431Y43951D01*
X858187Y43951D01*
X858187Y26723D01*
X840959Y26723D01*
G37*
%LPD*%
%LPC*%
G36*
X840959Y166423D02*
X840959Y166423D01*
X840959Y171179D01*
X853431Y183651D01*
X858187Y183651D01*
X858187Y166423D01*
X840959Y166423D01*
G37*
%LPD*%
%LPC*%
G36*
X955259Y96573D02*
X955259Y96573D01*
X955259Y101329D01*
X967731Y113801D01*
X972487Y113801D01*
X972487Y96573D01*
X955259Y96573D01*
G37*
%LPD*%
%LPC*%
G36*
X980613Y71219D02*
X980613Y71219D01*
X980613Y88447D01*
X997841Y88447D01*
X997841Y83691D01*
X985369Y71219D01*
X980613Y71219D01*
G37*
%LPD*%
%LPC*%
G36*
X967731Y71219D02*
X967731Y71219D01*
X955259Y83691D01*
X955259Y88447D01*
X972487Y88447D01*
X972487Y71219D01*
X967731Y71219D01*
G37*
%LPD*%
%LPC*%
G36*
X376681Y503681D02*
X376681Y503681D01*
X376681Y516052D01*
X377944Y515642D01*
X379147Y515029D01*
X380240Y514235D01*
X381195Y513280D01*
X381989Y512187D01*
X382602Y510984D01*
X383019Y509699D01*
X383231Y508365D01*
X383231Y503681D01*
X376681Y503681D01*
G37*
%LPD*%
%LPC*%
G36*
X325881Y427481D02*
X325881Y427481D01*
X325881Y439852D01*
X327144Y439442D01*
X328347Y438829D01*
X329440Y438035D01*
X330395Y437080D01*
X331189Y435987D01*
X331802Y434784D01*
X332219Y433499D01*
X332431Y432165D01*
X332431Y427481D01*
X325881Y427481D01*
G37*
%LPD*%
%LPC*%
G36*
X325881Y423419D02*
X325881Y423419D01*
X332431Y423419D01*
X332431Y418735D01*
X332219Y417401D01*
X331802Y416116D01*
X331189Y414913D01*
X330395Y413820D01*
X329440Y412865D01*
X328347Y412071D01*
X327144Y411458D01*
X325881Y411048D01*
X325881Y423419D01*
G37*
%LPD*%
%LPC*%
G36*
X376681Y499619D02*
X376681Y499619D01*
X383231Y499619D01*
X383231Y494935D01*
X383019Y493601D01*
X382602Y492316D01*
X381989Y491113D01*
X381195Y490020D01*
X380240Y489065D01*
X379147Y488271D01*
X377944Y487658D01*
X376681Y487248D01*
X376681Y499619D01*
G37*
%LPD*%
%LPC*%
G36*
X315269Y427481D02*
X315269Y427481D01*
X315269Y432165D01*
X315481Y433499D01*
X315898Y434784D01*
X316511Y435987D01*
X317305Y437080D01*
X318260Y438035D01*
X319353Y438829D01*
X320556Y439442D01*
X321819Y439852D01*
X321819Y427481D01*
X315269Y427481D01*
G37*
%LPD*%
%LPC*%
G36*
X366069Y503681D02*
X366069Y503681D01*
X366069Y508365D01*
X366281Y509699D01*
X366698Y510984D01*
X367311Y512187D01*
X368105Y513280D01*
X369060Y514235D01*
X370153Y515029D01*
X371356Y515642D01*
X372619Y516052D01*
X372619Y503681D01*
X366069Y503681D01*
G37*
%LPD*%
%LPC*%
G36*
X320556Y411458D02*
X320556Y411458D01*
X319353Y412071D01*
X318260Y412865D01*
X317305Y413820D01*
X316511Y414913D01*
X315898Y416116D01*
X315481Y417401D01*
X315269Y418735D01*
X315269Y423419D01*
X321819Y423419D01*
X321819Y411048D01*
X320556Y411458D01*
G37*
%LPD*%
%LPC*%
G36*
X148081Y389381D02*
X148081Y389381D01*
X148081Y397892D01*
X150417Y397892D01*
X156592Y391717D01*
X156592Y389381D01*
X148081Y389381D01*
G37*
%LPD*%
%LPC*%
G36*
X135508Y389381D02*
X135508Y389381D01*
X135508Y391717D01*
X141683Y397892D01*
X144019Y397892D01*
X144019Y389381D01*
X135508Y389381D01*
G37*
%LPD*%
%LPC*%
G36*
X148081Y376808D02*
X148081Y376808D01*
X148081Y385319D01*
X156592Y385319D01*
X156592Y382983D01*
X150417Y376808D01*
X148081Y376808D01*
G37*
%LPD*%
%LPC*%
G36*
X141683Y376808D02*
X141683Y376808D01*
X135508Y382983D01*
X135508Y385319D01*
X144019Y385319D01*
X144019Y376808D01*
X141683Y376808D01*
G37*
%LPD*%
%LPC*%
G36*
X148081Y325881D02*
X148081Y325881D01*
X148081Y334201D01*
X148519Y334132D01*
X150097Y333619D01*
X151575Y332866D01*
X152917Y331891D01*
X154091Y330717D01*
X155066Y329375D01*
X155819Y327897D01*
X156332Y326319D01*
X156401Y325881D01*
X148081Y325881D01*
G37*
%LPD*%
%LPC*%
G36*
X148081Y321819D02*
X148081Y321819D01*
X156401Y321819D01*
X156332Y321381D01*
X155819Y319803D01*
X155066Y318325D01*
X154091Y316983D01*
X152917Y315809D01*
X151575Y314834D01*
X150097Y314081D01*
X148519Y313568D01*
X148081Y313499D01*
X148081Y321819D01*
G37*
%LPD*%
%LPC*%
G36*
X135699Y325881D02*
X135699Y325881D01*
X135768Y326319D01*
X136281Y327897D01*
X137034Y329375D01*
X138009Y330717D01*
X139183Y331891D01*
X140525Y332866D01*
X142003Y333619D01*
X143581Y334132D01*
X144019Y334201D01*
X144019Y325881D01*
X135699Y325881D01*
G37*
%LPD*%
%LPC*%
G36*
X143581Y313568D02*
X143581Y313568D01*
X142003Y314081D01*
X140525Y314834D01*
X139183Y315809D01*
X138009Y316983D01*
X137034Y318325D01*
X136281Y319803D01*
X135768Y321381D01*
X135699Y321819D01*
X144019Y321819D01*
X144019Y313499D01*
X143581Y313568D01*
G37*
%LPD*%
%LPC*%
G36*
X326389Y313689D02*
X326389Y313689D01*
X326389Y321311D01*
X328059Y321311D01*
X334011Y315359D01*
X334011Y313689D01*
X326389Y313689D01*
G37*
%LPD*%
%LPC*%
G36*
X326389Y256539D02*
X326389Y256539D01*
X326389Y264161D01*
X328059Y264161D01*
X334011Y258209D01*
X334011Y256539D01*
X326389Y256539D01*
G37*
%LPD*%
%LPC*%
G36*
X313689Y256539D02*
X313689Y256539D01*
X313689Y258209D01*
X319641Y264161D01*
X321311Y264161D01*
X321311Y256539D01*
X313689Y256539D01*
G37*
%LPD*%
%LPC*%
G36*
X313689Y313689D02*
X313689Y313689D01*
X313689Y315359D01*
X319641Y321311D01*
X321311Y321311D01*
X321311Y313689D01*
X313689Y313689D01*
G37*
%LPD*%
%LPC*%
G36*
X326389Y300989D02*
X326389Y300989D01*
X326389Y308611D01*
X334011Y308611D01*
X334011Y306941D01*
X328059Y300989D01*
X326389Y300989D01*
G37*
%LPD*%
%LPC*%
G36*
X326389Y243839D02*
X326389Y243839D01*
X326389Y251461D01*
X334011Y251461D01*
X334011Y249791D01*
X328059Y243839D01*
X326389Y243839D01*
G37*
%LPD*%
%LPC*%
G36*
X319641Y243839D02*
X319641Y243839D01*
X313689Y249791D01*
X313689Y251461D01*
X321311Y251461D01*
X321311Y243839D01*
X319641Y243839D01*
G37*
%LPD*%
%LPC*%
G36*
X319641Y300989D02*
X319641Y300989D01*
X313689Y306941D01*
X313689Y308611D01*
X321311Y308611D01*
X321311Y300989D01*
X319641Y300989D01*
G37*
%LPD*%
%LPC*%
G36*
X46735Y440435D02*
X46735Y440435D01*
X46735Y447803D01*
X48448Y447803D01*
X54103Y442148D01*
X54103Y440435D01*
X46735Y440435D01*
G37*
%LPD*%
%LPC*%
G36*
X72135Y415035D02*
X72135Y415035D01*
X72135Y422403D01*
X73848Y422403D01*
X79503Y416748D01*
X79503Y415035D01*
X72135Y415035D01*
G37*
%LPD*%
%LPC*%
G36*
X46735Y389635D02*
X46735Y389635D01*
X46735Y397003D01*
X48448Y397003D01*
X54103Y391348D01*
X54103Y389635D01*
X46735Y389635D01*
G37*
%LPD*%
%LPC*%
G36*
X72135Y440435D02*
X72135Y440435D01*
X72135Y447803D01*
X73848Y447803D01*
X79503Y442148D01*
X79503Y440435D01*
X72135Y440435D01*
G37*
%LPD*%
%LPC*%
G36*
X46735Y415035D02*
X46735Y415035D01*
X46735Y422403D01*
X48448Y422403D01*
X54103Y416748D01*
X54103Y415035D01*
X46735Y415035D01*
G37*
%LPD*%
%LPC*%
G36*
X72135Y389635D02*
X72135Y389635D01*
X72135Y397003D01*
X73848Y397003D01*
X79503Y391348D01*
X79503Y389635D01*
X72135Y389635D01*
G37*
%LPD*%
%LPC*%
G36*
X72135Y428497D02*
X72135Y428497D01*
X72135Y435865D01*
X79503Y435865D01*
X79503Y434152D01*
X73848Y428497D01*
X72135Y428497D01*
G37*
%LPD*%
%LPC*%
G36*
X46735Y377697D02*
X46735Y377697D01*
X46735Y385065D01*
X54103Y385065D01*
X54103Y383352D01*
X48448Y377697D01*
X46735Y377697D01*
G37*
%LPD*%
%LPC*%
G36*
X46735Y428497D02*
X46735Y428497D01*
X46735Y435865D01*
X54103Y435865D01*
X54103Y434152D01*
X48448Y428497D01*
X46735Y428497D01*
G37*
%LPD*%
%LPC*%
G36*
X34797Y415035D02*
X34797Y415035D01*
X34797Y416748D01*
X40452Y422403D01*
X42165Y422403D01*
X42165Y415035D01*
X34797Y415035D01*
G37*
%LPD*%
%LPC*%
G36*
X72135Y403097D02*
X72135Y403097D01*
X72135Y410465D01*
X79503Y410465D01*
X79503Y408752D01*
X73848Y403097D01*
X72135Y403097D01*
G37*
%LPD*%
%LPC*%
G36*
X72135Y377697D02*
X72135Y377697D01*
X72135Y385065D01*
X79503Y385065D01*
X79503Y383352D01*
X73848Y377697D01*
X72135Y377697D01*
G37*
%LPD*%
%LPC*%
G36*
X60197Y440435D02*
X60197Y440435D01*
X60197Y442148D01*
X65852Y447803D01*
X67565Y447803D01*
X67565Y440435D01*
X60197Y440435D01*
G37*
%LPD*%
%LPC*%
G36*
X46735Y403097D02*
X46735Y403097D01*
X46735Y410465D01*
X54103Y410465D01*
X54103Y408752D01*
X48448Y403097D01*
X46735Y403097D01*
G37*
%LPD*%
%LPC*%
G36*
X60197Y415035D02*
X60197Y415035D01*
X60197Y416748D01*
X65852Y422403D01*
X67565Y422403D01*
X67565Y415035D01*
X60197Y415035D01*
G37*
%LPD*%
%LPC*%
G36*
X60197Y389635D02*
X60197Y389635D01*
X60197Y391348D01*
X65852Y397003D01*
X67565Y397003D01*
X67565Y389635D01*
X60197Y389635D01*
G37*
%LPD*%
%LPC*%
G36*
X34797Y440435D02*
X34797Y440435D01*
X34797Y442148D01*
X40452Y447803D01*
X42165Y447803D01*
X42165Y440435D01*
X34797Y440435D01*
G37*
%LPD*%
%LPC*%
G36*
X34797Y389635D02*
X34797Y389635D01*
X34797Y391348D01*
X40452Y397003D01*
X42165Y397003D01*
X42165Y389635D01*
X34797Y389635D01*
G37*
%LPD*%
%LPC*%
G36*
X40452Y403097D02*
X40452Y403097D01*
X34797Y408752D01*
X34797Y410465D01*
X42165Y410465D01*
X42165Y403097D01*
X40452Y403097D01*
G37*
%LPD*%
%LPC*%
G36*
X65852Y403097D02*
X65852Y403097D01*
X60197Y408752D01*
X60197Y410465D01*
X67565Y410465D01*
X67565Y403097D01*
X65852Y403097D01*
G37*
%LPD*%
%LPC*%
G36*
X65852Y377697D02*
X65852Y377697D01*
X60197Y383352D01*
X60197Y385065D01*
X67565Y385065D01*
X67565Y377697D01*
X65852Y377697D01*
G37*
%LPD*%
%LPC*%
G36*
X65852Y428497D02*
X65852Y428497D01*
X60197Y434152D01*
X60197Y435865D01*
X67565Y435865D01*
X67565Y428497D01*
X65852Y428497D01*
G37*
%LPD*%
%LPC*%
G36*
X40452Y377697D02*
X40452Y377697D01*
X34797Y383352D01*
X34797Y385065D01*
X42165Y385065D01*
X42165Y377697D01*
X40452Y377697D01*
G37*
%LPD*%
%LPC*%
G36*
X40452Y428497D02*
X40452Y428497D01*
X34797Y434152D01*
X34797Y435865D01*
X42165Y435865D01*
X42165Y428497D01*
X40452Y428497D01*
G37*
%LPD*%
%LPC*%
G36*
X427481Y478281D02*
X427481Y478281D01*
X427481Y485395D01*
X429238Y485395D01*
X434595Y480038D01*
X434595Y478281D01*
X427481Y478281D01*
G37*
%LPD*%
%LPC*%
G36*
X211581Y154431D02*
X211581Y154431D01*
X211581Y161545D01*
X213338Y161545D01*
X218695Y156188D01*
X218695Y154431D01*
X211581Y154431D01*
G37*
%LPD*%
%LPC*%
G36*
X875156Y313181D02*
X875156Y313181D01*
X875156Y320295D01*
X876913Y320295D01*
X882270Y314938D01*
X882270Y313181D01*
X875156Y313181D01*
G37*
%LPD*%
%LPC*%
G36*
X605281Y503681D02*
X605281Y503681D01*
X605281Y510795D01*
X607038Y510795D01*
X612395Y505438D01*
X612395Y503681D01*
X605281Y503681D01*
G37*
%LPD*%
%LPC*%
G36*
X992631Y417956D02*
X992631Y417956D01*
X992631Y425070D01*
X994388Y425070D01*
X999745Y419713D01*
X999745Y417956D01*
X992631Y417956D01*
G37*
%LPD*%
%LPC*%
G36*
X300481Y516381D02*
X300481Y516381D01*
X300481Y523495D01*
X302238Y523495D01*
X307595Y518138D01*
X307595Y516381D01*
X300481Y516381D01*
G37*
%LPD*%
%LPC*%
G36*
X821181Y465581D02*
X821181Y465581D01*
X821181Y472695D01*
X822938Y472695D01*
X828295Y467338D01*
X828295Y465581D01*
X821181Y465581D01*
G37*
%LPD*%
%LPC*%
G36*
X1002156Y465581D02*
X1002156Y465581D01*
X1002156Y472695D01*
X1003913Y472695D01*
X1009270Y467338D01*
X1009270Y465581D01*
X1002156Y465581D01*
G37*
%LPD*%
%LPC*%
G36*
X452881Y452881D02*
X452881Y452881D01*
X452881Y459995D01*
X454638Y459995D01*
X459995Y454638D01*
X459995Y452881D01*
X452881Y452881D01*
G37*
%LPD*%
%LPC*%
G36*
X579881Y402081D02*
X579881Y402081D01*
X579881Y409195D01*
X581638Y409195D01*
X586995Y403838D01*
X586995Y402081D01*
X579881Y402081D01*
G37*
%LPD*%
%LPC*%
G36*
X160781Y217931D02*
X160781Y217931D01*
X160781Y225045D01*
X162538Y225045D01*
X167895Y219688D01*
X167895Y217931D01*
X160781Y217931D01*
G37*
%LPD*%
%LPC*%
G36*
X805306Y392556D02*
X805306Y392556D01*
X805306Y399670D01*
X807063Y399670D01*
X812420Y394313D01*
X812420Y392556D01*
X805306Y392556D01*
G37*
%LPD*%
%LPC*%
G36*
X794130Y392556D02*
X794130Y392556D01*
X794130Y394313D01*
X799487Y399670D01*
X801244Y399670D01*
X801244Y392556D01*
X794130Y392556D01*
G37*
%LPD*%
%LPC*%
G36*
X863980Y313181D02*
X863980Y313181D01*
X863980Y314938D01*
X869337Y320295D01*
X871094Y320295D01*
X871094Y313181D01*
X863980Y313181D01*
G37*
%LPD*%
%LPC*%
G36*
X981455Y417956D02*
X981455Y417956D01*
X981455Y419713D01*
X986812Y425070D01*
X988569Y425070D01*
X988569Y417956D01*
X981455Y417956D01*
G37*
%LPD*%
%LPC*%
G36*
X992631Y406780D02*
X992631Y406780D01*
X992631Y413894D01*
X999745Y413894D01*
X999745Y412137D01*
X994388Y406780D01*
X992631Y406780D01*
G37*
%LPD*%
%LPC*%
G36*
X211581Y143255D02*
X211581Y143255D01*
X211581Y150369D01*
X218695Y150369D01*
X218695Y148612D01*
X213338Y143255D01*
X211581Y143255D01*
G37*
%LPD*%
%LPC*%
G36*
X160781Y206755D02*
X160781Y206755D01*
X160781Y213869D01*
X167895Y213869D01*
X167895Y212112D01*
X162538Y206755D01*
X160781Y206755D01*
G37*
%LPD*%
%LPC*%
G36*
X568705Y402081D02*
X568705Y402081D01*
X568705Y403838D01*
X574062Y409195D01*
X575819Y409195D01*
X575819Y402081D01*
X568705Y402081D01*
G37*
%LPD*%
%LPC*%
G36*
X810005Y465581D02*
X810005Y465581D01*
X810005Y467338D01*
X815362Y472695D01*
X817119Y472695D01*
X817119Y465581D01*
X810005Y465581D01*
G37*
%LPD*%
%LPC*%
G36*
X149605Y217931D02*
X149605Y217931D01*
X149605Y219688D01*
X154962Y225045D01*
X156719Y225045D01*
X156719Y217931D01*
X149605Y217931D01*
G37*
%LPD*%
%LPC*%
G36*
X579881Y390905D02*
X579881Y390905D01*
X579881Y398019D01*
X586995Y398019D01*
X586995Y396262D01*
X581638Y390905D01*
X579881Y390905D01*
G37*
%LPD*%
%LPC*%
G36*
X416305Y478281D02*
X416305Y478281D01*
X416305Y480038D01*
X421662Y485395D01*
X423419Y485395D01*
X423419Y478281D01*
X416305Y478281D01*
G37*
%LPD*%
%LPC*%
G36*
X594105Y503681D02*
X594105Y503681D01*
X594105Y505438D01*
X599462Y510795D01*
X601219Y510795D01*
X601219Y503681D01*
X594105Y503681D01*
G37*
%LPD*%
%LPC*%
G36*
X300481Y505205D02*
X300481Y505205D01*
X300481Y512319D01*
X307595Y512319D01*
X307595Y510562D01*
X302238Y505205D01*
X300481Y505205D01*
G37*
%LPD*%
%LPC*%
G36*
X200405Y154431D02*
X200405Y154431D01*
X200405Y156188D01*
X205762Y161545D01*
X207519Y161545D01*
X207519Y154431D01*
X200405Y154431D01*
G37*
%LPD*%
%LPC*%
G36*
X605281Y492505D02*
X605281Y492505D01*
X605281Y499619D01*
X612395Y499619D01*
X612395Y497862D01*
X607038Y492505D01*
X605281Y492505D01*
G37*
%LPD*%
%LPC*%
G36*
X452881Y441705D02*
X452881Y441705D01*
X452881Y448819D01*
X459995Y448819D01*
X459995Y447062D01*
X454638Y441705D01*
X452881Y441705D01*
G37*
%LPD*%
%LPC*%
G36*
X875156Y302005D02*
X875156Y302005D01*
X875156Y309119D01*
X882270Y309119D01*
X882270Y307362D01*
X876913Y302005D01*
X875156Y302005D01*
G37*
%LPD*%
%LPC*%
G36*
X289305Y516381D02*
X289305Y516381D01*
X289305Y518138D01*
X294662Y523495D01*
X296419Y523495D01*
X296419Y516381D01*
X289305Y516381D01*
G37*
%LPD*%
%LPC*%
G36*
X990980Y465581D02*
X990980Y465581D01*
X990980Y467338D01*
X996337Y472695D01*
X998094Y472695D01*
X998094Y465581D01*
X990980Y465581D01*
G37*
%LPD*%
%LPC*%
G36*
X1002156Y454405D02*
X1002156Y454405D01*
X1002156Y461519D01*
X1009270Y461519D01*
X1009270Y459762D01*
X1003913Y454405D01*
X1002156Y454405D01*
G37*
%LPD*%
%LPC*%
G36*
X805306Y381380D02*
X805306Y381380D01*
X805306Y388494D01*
X812420Y388494D01*
X812420Y386737D01*
X807063Y381380D01*
X805306Y381380D01*
G37*
%LPD*%
%LPC*%
G36*
X821181Y454405D02*
X821181Y454405D01*
X821181Y461519D01*
X828295Y461519D01*
X828295Y459762D01*
X822938Y454405D01*
X821181Y454405D01*
G37*
%LPD*%
%LPC*%
G36*
X815362Y454405D02*
X815362Y454405D01*
X810005Y459762D01*
X810005Y461519D01*
X817119Y461519D01*
X817119Y454405D01*
X815362Y454405D01*
G37*
%LPD*%
%LPC*%
G36*
X294662Y505205D02*
X294662Y505205D01*
X289305Y510562D01*
X289305Y512319D01*
X296419Y512319D01*
X296419Y505205D01*
X294662Y505205D01*
G37*
%LPD*%
%LPC*%
G36*
X205762Y143255D02*
X205762Y143255D01*
X200405Y148612D01*
X200405Y150369D01*
X207519Y150369D01*
X207519Y143255D01*
X205762Y143255D01*
G37*
%LPD*%
%LPC*%
G36*
X599462Y492505D02*
X599462Y492505D01*
X594105Y497862D01*
X594105Y499619D01*
X601219Y499619D01*
X601219Y492505D01*
X599462Y492505D01*
G37*
%LPD*%
%LPC*%
G36*
X574062Y390905D02*
X574062Y390905D01*
X568705Y396262D01*
X568705Y398019D01*
X575819Y398019D01*
X575819Y390905D01*
X574062Y390905D01*
G37*
%LPD*%
%LPC*%
G36*
X154962Y206755D02*
X154962Y206755D01*
X149605Y212112D01*
X149605Y213869D01*
X156719Y213869D01*
X156719Y206755D01*
X154962Y206755D01*
G37*
%LPD*%
%LPC*%
G36*
X421662Y467105D02*
X421662Y467105D01*
X416305Y472462D01*
X416305Y474219D01*
X423419Y474219D01*
X423419Y467105D01*
X421662Y467105D01*
G37*
%LPD*%
%LPC*%
G36*
X996337Y454405D02*
X996337Y454405D01*
X990980Y459762D01*
X990980Y461519D01*
X998094Y461519D01*
X998094Y454405D01*
X996337Y454405D01*
G37*
%LPD*%
%LPC*%
G36*
X986812Y406780D02*
X986812Y406780D01*
X981455Y412137D01*
X981455Y413894D01*
X988569Y413894D01*
X988569Y406780D01*
X986812Y406780D01*
G37*
%LPD*%
%LPC*%
G36*
X869337Y302005D02*
X869337Y302005D01*
X863980Y307362D01*
X863980Y309119D01*
X871094Y309119D01*
X871094Y302005D01*
X869337Y302005D01*
G37*
%LPD*%
%LPC*%
G36*
X447062Y441705D02*
X447062Y441705D01*
X441705Y447062D01*
X441705Y448819D01*
X448819Y448819D01*
X448819Y441705D01*
X447062Y441705D01*
G37*
%LPD*%
%LPC*%
G36*
X799487Y381380D02*
X799487Y381380D01*
X794130Y386737D01*
X794130Y388494D01*
X801244Y388494D01*
X801244Y381380D01*
X799487Y381380D01*
G37*
%LPD*%
%LPC*%
G36*
X976549Y92509D02*
X976549Y92509D01*
X976549Y92511D01*
X976551Y92511D01*
X976551Y92509D01*
X976549Y92509D01*
G37*
%LPD*%
%LPC*%
G36*
X862249Y162359D02*
X862249Y162359D01*
X862249Y162361D01*
X862251Y162361D01*
X862251Y162359D01*
X862249Y162359D01*
G37*
%LPD*%
D10*
X501650Y393700D03*
X501650Y342900D03*
X457200Y393700D03*
X457200Y342900D03*
X533400Y393700D03*
X533400Y342900D03*
D11*
X146050Y349250D03*
D12*
X146050Y323850D03*
D13*
X146050Y387350D03*
D12*
X146050Y412750D03*
D13*
X739775Y307975D03*
D12*
X739775Y333375D03*
D14*
X197104Y488950D02*
X183896Y488950D01*
X260096Y488950D02*
X273304Y488950D01*
X273304Y463550D02*
X260096Y463550D01*
X197104Y463550D02*
X183896Y463550D01*
D15*
X400050Y495610D02*
X400050Y507690D01*
X374650Y507690D02*
X374650Y495610D01*
X349250Y495610D02*
X349250Y507690D01*
X323850Y507690D02*
X323850Y495610D01*
X323850Y431490D02*
X323850Y419410D01*
X349250Y419410D02*
X349250Y431490D01*
X374650Y431490D02*
X374650Y419410D01*
X400050Y419410D02*
X400050Y431490D01*
X920750Y495610D02*
X920750Y507690D01*
X895350Y507690D02*
X895350Y495610D01*
X869950Y495610D02*
X869950Y507690D01*
X844550Y507690D02*
X844550Y495610D01*
X844550Y431490D02*
X844550Y419410D01*
X869950Y419410D02*
X869950Y431490D01*
X895350Y431490D02*
X895350Y419410D01*
X920750Y419410D02*
X920750Y431490D01*
D14*
X406654Y368300D02*
X393446Y368300D01*
X393446Y317500D02*
X406654Y317500D01*
X406654Y342900D02*
X393446Y342900D01*
X577850Y361696D02*
X577850Y374904D01*
X628650Y374904D02*
X628650Y361696D01*
X603250Y361696D02*
X603250Y374904D01*
D16*
X412900Y114700D03*
D17*
X412900Y139700D03*
X412900Y164700D03*
D18*
X342900Y184700D03*
X342900Y94700D03*
D16*
X133500Y114700D03*
D17*
X133500Y139700D03*
X133500Y164700D03*
D18*
X63500Y184700D03*
X63500Y94700D03*
D19*
X742950Y488950D03*
X723900Y476250D03*
X742950Y463550D03*
D10*
X730250Y400050D03*
X749300Y412750D03*
X730250Y425450D03*
D20*
X862250Y162360D03*
X863250Y257010D03*
D21*
X890250Y209550D03*
X809790Y209550D03*
D20*
X862250Y22660D03*
X863250Y117310D03*
D21*
X890250Y69850D03*
X809790Y69850D03*
D20*
X976550Y92510D03*
X977550Y187160D03*
D21*
X1004550Y139700D03*
X924090Y139700D03*
D22*
X171450Y438150D03*
X273050Y438150D03*
X171450Y514350D03*
X273050Y514350D03*
D23*
X549910Y95441D02*
X549910Y68390D01*
X596900Y68390D02*
X596900Y95441D01*
X643890Y95441D02*
X643890Y68390D01*
D19*
X158750Y114300D03*
X158750Y215900D03*
D22*
X425450Y425450D03*
X527050Y425450D03*
X450850Y450850D03*
X552450Y450850D03*
D10*
X603250Y501650D03*
X603250Y400050D03*
D19*
X577850Y400050D03*
X577850Y501650D03*
D24*
X552450Y476250D03*
X450850Y476250D03*
D10*
X971550Y488950D03*
X971550Y463550D03*
D24*
X809625Y425450D03*
X784225Y425450D03*
D14*
X667004Y501650D02*
X653796Y501650D01*
X653796Y450850D02*
X667004Y450850D01*
X667004Y476250D02*
X653796Y476250D01*
D19*
X692150Y400050D03*
X692150Y501650D03*
D22*
X450850Y501650D03*
X552450Y501650D03*
D19*
X1000125Y463550D03*
X1000125Y488950D03*
D22*
X854075Y390525D03*
X879475Y390525D03*
X803275Y390525D03*
X828675Y390525D03*
D25*
X44450Y463550D03*
X69850Y463550D03*
X44450Y438150D03*
X69850Y438150D03*
X44450Y412750D03*
X69850Y412750D03*
X44450Y387350D03*
X69850Y387350D03*
X44450Y361950D03*
X69850Y361950D03*
D19*
X209550Y127000D03*
X209550Y152400D03*
D24*
X349250Y349250D03*
X247650Y349250D03*
X349250Y374650D03*
X247650Y374650D03*
D14*
X216154Y387350D02*
X202946Y387350D01*
X202946Y336550D02*
X216154Y336550D01*
X216154Y361950D02*
X202946Y361950D01*
D19*
X819150Y463550D03*
X819150Y488950D03*
D10*
X298450Y514350D03*
X298450Y488950D03*
X425450Y476250D03*
X425450Y450850D03*
D26*
X577850Y311150D03*
X577850Y254000D03*
X552450Y311150D03*
X552450Y254000D03*
X603250Y311150D03*
X603250Y254000D03*
X527050Y254000D03*
X501650Y254000D03*
X476250Y254000D03*
X476250Y311150D03*
X527050Y311150D03*
X501650Y311150D03*
X298450Y311150D03*
X247650Y311150D03*
X273050Y311150D03*
X273050Y254000D03*
X298450Y254000D03*
X247650Y254000D03*
X323850Y311150D03*
X323850Y254000D03*
X349250Y311150D03*
X349250Y254000D03*
D15*
X921060Y387350D02*
X933140Y387350D01*
X933140Y361950D02*
X921060Y361950D01*
X921060Y336550D02*
X933140Y336550D01*
X933140Y311150D02*
X921060Y311150D01*
X997260Y311150D02*
X1009340Y311150D01*
X1009340Y336550D02*
X997260Y336550D01*
X997260Y361950D02*
X1009340Y361950D01*
X1009340Y387350D02*
X997260Y387350D01*
D24*
X838200Y311150D03*
X812800Y311150D03*
D22*
X873125Y311150D03*
X898525Y311150D03*
D24*
X990600Y415925D03*
X965200Y415925D03*
D27*
X38100Y63500D03*
X101600Y254000D03*
X222250Y63500D03*
X190500Y215900D03*
X406400Y63500D03*
X438150Y241300D03*
X501650Y73025D03*
X704850Y63500D03*
X673100Y241300D03*
X768350Y34925D03*
X781050Y241300D03*
X971550Y323850D03*
X946150Y501650D03*
X784225Y463550D03*
X784225Y301625D03*
X711200Y450850D03*
X482600Y501650D03*
X209550Y425450D03*
X317500Y393700D03*
X177800Y377825D03*
X50800Y323850D03*
X50800Y501650D03*
D28*
X349250Y463550D02*
X349250Y425450D01*
D27*
X349250Y463550D03*
D28*
X400050Y450850D02*
X400050Y501650D01*
X400050Y450850D02*
X425450Y425450D01*
X361950Y488950D02*
X349250Y501650D01*
X361950Y488950D02*
X361950Y387350D01*
X381000Y368300D01*
X381000Y349250D01*
X387350Y342900D01*
X400050Y342900D01*
X552450Y476250D02*
X565150Y463550D01*
X590550Y463550D01*
X676275Y377825D01*
X708025Y377825D01*
X730250Y400050D01*
X895350Y488950D02*
X895350Y501650D01*
X895350Y488950D02*
X885825Y479425D01*
X863600Y479425D01*
X828675Y444500D01*
X803275Y444500D01*
X784225Y425450D01*
D29*
X298450Y412750D02*
X298450Y488950D01*
D27*
X298450Y412750D03*
D28*
X739775Y333375D02*
X822325Y333375D01*
X879475Y390525D01*
X628650Y368300D02*
X628650Y361950D01*
X641350Y349250D01*
X704850Y349250D01*
X749300Y393700D01*
X749300Y412750D01*
D29*
X920750Y425450D02*
X965200Y425450D01*
X450850Y476250D02*
X425450Y450850D01*
X965200Y425450D02*
X965200Y415925D01*
X965200Y403225D01*
X981075Y387350D01*
X1003300Y387350D01*
X965200Y425450D02*
X971550Y431800D01*
X971550Y463550D01*
D28*
X603250Y527050D02*
X577850Y501650D01*
X603250Y527050D02*
X704850Y527050D01*
X723900Y508000D01*
X723900Y476250D01*
X971550Y488950D02*
X1000125Y488950D01*
X869950Y501650D02*
X869950Y527050D01*
X958850Y527050D01*
X971550Y514350D01*
X971550Y488950D01*
X742950Y488950D02*
X742950Y514350D01*
X755650Y527050D01*
X869950Y527050D01*
X920750Y501650D02*
X920750Y476250D01*
X908050Y463550D01*
X863600Y463550D01*
X844550Y444500D01*
X844550Y425450D01*
X501650Y342900D02*
X501650Y311150D01*
X374650Y393700D02*
X374650Y425450D01*
X374650Y393700D02*
X400050Y368300D01*
X501650Y368300D01*
X501650Y342900D01*
X501650Y368300D02*
X577850Y368300D01*
X222250Y361950D02*
X209550Y361950D01*
X222250Y361950D02*
X234950Y374650D01*
X247650Y374650D01*
X222250Y336550D02*
X209550Y336550D01*
X222250Y336550D02*
X234950Y349250D01*
X247650Y349250D01*
X603250Y254000D02*
X704850Y254000D01*
X736600Y222250D01*
X736600Y82550D01*
X749300Y69850D01*
X809790Y69850D01*
X596900Y158750D02*
X501650Y254000D01*
X596900Y158750D02*
X596900Y81915D01*
X644525Y139700D02*
X527050Y254000D01*
X644525Y139700D02*
X644525Y82550D01*
X643890Y81915D01*
X549910Y81915D02*
X549275Y111125D01*
X476250Y184150D01*
X476250Y254000D01*
X273050Y514350D02*
X241300Y514350D01*
X228600Y501650D01*
X228600Y438150D01*
X273050Y393700D01*
X273050Y349250D01*
X247650Y323850D01*
X247650Y311150D01*
X285750Y425450D02*
X273050Y438150D01*
X285750Y425450D02*
X285750Y336550D01*
X273050Y323850D01*
X273050Y311150D01*
X247650Y254000D02*
X247650Y107950D01*
X285750Y69850D01*
X381000Y69850D01*
X412750Y107950D01*
X412750Y108350D01*
X412900Y114700D01*
X381000Y127000D02*
X381000Y234950D01*
X361950Y254000D01*
X349250Y254000D01*
D27*
X381000Y127000D03*
D28*
X838200Y311150D02*
X863600Y336550D01*
X879475Y336550D01*
X904875Y361950D01*
X927100Y361950D01*
X298450Y254000D02*
X298450Y190500D01*
D27*
X298450Y190500D03*
M02*
