G04 EAGLE Gerber RS-274X export*
G75*
%MOMM*%
%FSLAX34Y34*%
%LPD*%
%INBoard Outline*%
%IPPOS*%
%AMOC8*
5,1,8,0,0,1.08239X$1,22.5*%
G01*
%ADD10C,0.000000*%
%ADD11C,1.000000*%
%ADD12C,0.254000*%


D10*
X1028700Y0D02*
X1028700Y279400D01*
X1016000Y279400D01*
X990600Y279400D02*
X533400Y279400D01*
X508000Y279400D02*
X38100Y279400D01*
X12700Y279400D02*
X0Y279400D01*
X0Y0D01*
X1028700Y0D01*
X12700Y285750D02*
X0Y285750D01*
X38100Y285750D02*
X508000Y285750D01*
X533400Y285750D02*
X990600Y285750D01*
X1016000Y285750D02*
X1028700Y285750D01*
X0Y285750D02*
X0Y539750D01*
X1028700Y539750D02*
X1028700Y285750D01*
X1028700Y539750D02*
X0Y539750D01*
X117284Y501650D02*
X117289Y502044D01*
X117303Y502438D01*
X117328Y502832D01*
X117361Y503225D01*
X117405Y503617D01*
X117458Y504007D01*
X117521Y504397D01*
X117593Y504784D01*
X117674Y505170D01*
X117765Y505554D01*
X117866Y505935D01*
X117976Y506314D01*
X118095Y506690D01*
X118223Y507062D01*
X118361Y507432D01*
X118507Y507798D01*
X118662Y508161D01*
X118827Y508519D01*
X118999Y508873D01*
X119181Y509223D01*
X119371Y509569D01*
X119570Y509910D01*
X119777Y510245D01*
X119992Y510576D01*
X120215Y510901D01*
X120446Y511221D01*
X120684Y511534D01*
X120931Y511842D01*
X121185Y512144D01*
X121446Y512439D01*
X121714Y512728D01*
X121990Y513010D01*
X122272Y513286D01*
X122561Y513554D01*
X122856Y513815D01*
X123158Y514069D01*
X123466Y514316D01*
X123779Y514554D01*
X124099Y514785D01*
X124424Y515008D01*
X124755Y515223D01*
X125090Y515430D01*
X125431Y515629D01*
X125777Y515819D01*
X126127Y516001D01*
X126481Y516173D01*
X126839Y516338D01*
X127202Y516493D01*
X127568Y516639D01*
X127938Y516777D01*
X128310Y516905D01*
X128686Y517024D01*
X129065Y517134D01*
X129446Y517235D01*
X129830Y517326D01*
X130216Y517407D01*
X130603Y517479D01*
X130993Y517542D01*
X131383Y517595D01*
X131775Y517639D01*
X132168Y517672D01*
X132562Y517697D01*
X132956Y517711D01*
X133350Y517716D01*
X133744Y517711D01*
X134138Y517697D01*
X134532Y517672D01*
X134925Y517639D01*
X135317Y517595D01*
X135707Y517542D01*
X136097Y517479D01*
X136484Y517407D01*
X136870Y517326D01*
X137254Y517235D01*
X137635Y517134D01*
X138014Y517024D01*
X138390Y516905D01*
X138762Y516777D01*
X139132Y516639D01*
X139498Y516493D01*
X139861Y516338D01*
X140219Y516173D01*
X140573Y516001D01*
X140923Y515819D01*
X141269Y515629D01*
X141610Y515430D01*
X141945Y515223D01*
X142276Y515008D01*
X142601Y514785D01*
X142921Y514554D01*
X143234Y514316D01*
X143542Y514069D01*
X143844Y513815D01*
X144139Y513554D01*
X144428Y513286D01*
X144710Y513010D01*
X144986Y512728D01*
X145254Y512439D01*
X145515Y512144D01*
X145769Y511842D01*
X146016Y511534D01*
X146254Y511221D01*
X146485Y510901D01*
X146708Y510576D01*
X146923Y510245D01*
X147130Y509910D01*
X147329Y509569D01*
X147519Y509223D01*
X147701Y508873D01*
X147873Y508519D01*
X148038Y508161D01*
X148193Y507798D01*
X148339Y507432D01*
X148477Y507062D01*
X148605Y506690D01*
X148724Y506314D01*
X148834Y505935D01*
X148935Y505554D01*
X149026Y505170D01*
X149107Y504784D01*
X149179Y504397D01*
X149242Y504007D01*
X149295Y503617D01*
X149339Y503225D01*
X149372Y502832D01*
X149397Y502438D01*
X149411Y502044D01*
X149416Y501650D01*
X149411Y501256D01*
X149397Y500862D01*
X149372Y500468D01*
X149339Y500075D01*
X149295Y499683D01*
X149242Y499293D01*
X149179Y498903D01*
X149107Y498516D01*
X149026Y498130D01*
X148935Y497746D01*
X148834Y497365D01*
X148724Y496986D01*
X148605Y496610D01*
X148477Y496238D01*
X148339Y495868D01*
X148193Y495502D01*
X148038Y495139D01*
X147873Y494781D01*
X147701Y494427D01*
X147519Y494077D01*
X147329Y493731D01*
X147130Y493390D01*
X146923Y493055D01*
X146708Y492724D01*
X146485Y492399D01*
X146254Y492079D01*
X146016Y491766D01*
X145769Y491458D01*
X145515Y491156D01*
X145254Y490861D01*
X144986Y490572D01*
X144710Y490290D01*
X144428Y490014D01*
X144139Y489746D01*
X143844Y489485D01*
X143542Y489231D01*
X143234Y488984D01*
X142921Y488746D01*
X142601Y488515D01*
X142276Y488292D01*
X141945Y488077D01*
X141610Y487870D01*
X141269Y487671D01*
X140923Y487481D01*
X140573Y487299D01*
X140219Y487127D01*
X139861Y486962D01*
X139498Y486807D01*
X139132Y486661D01*
X138762Y486523D01*
X138390Y486395D01*
X138014Y486276D01*
X137635Y486166D01*
X137254Y486065D01*
X136870Y485974D01*
X136484Y485893D01*
X136097Y485821D01*
X135707Y485758D01*
X135317Y485705D01*
X134925Y485661D01*
X134532Y485628D01*
X134138Y485603D01*
X133744Y485589D01*
X133350Y485584D01*
X132956Y485589D01*
X132562Y485603D01*
X132168Y485628D01*
X131775Y485661D01*
X131383Y485705D01*
X130993Y485758D01*
X130603Y485821D01*
X130216Y485893D01*
X129830Y485974D01*
X129446Y486065D01*
X129065Y486166D01*
X128686Y486276D01*
X128310Y486395D01*
X127938Y486523D01*
X127568Y486661D01*
X127202Y486807D01*
X126839Y486962D01*
X126481Y487127D01*
X126127Y487299D01*
X125777Y487481D01*
X125431Y487671D01*
X125090Y487870D01*
X124755Y488077D01*
X124424Y488292D01*
X124099Y488515D01*
X123779Y488746D01*
X123466Y488984D01*
X123158Y489231D01*
X122856Y489485D01*
X122561Y489746D01*
X122272Y490014D01*
X121990Y490290D01*
X121714Y490572D01*
X121446Y490861D01*
X121185Y491156D01*
X120931Y491458D01*
X120684Y491766D01*
X120446Y492079D01*
X120215Y492399D01*
X119992Y492724D01*
X119777Y493055D01*
X119570Y493390D01*
X119371Y493731D01*
X119181Y494077D01*
X118999Y494427D01*
X118827Y494781D01*
X118662Y495139D01*
X118507Y495502D01*
X118361Y495868D01*
X118223Y496238D01*
X118095Y496610D01*
X117976Y496986D01*
X117866Y497365D01*
X117765Y497746D01*
X117674Y498130D01*
X117593Y498516D01*
X117521Y498903D01*
X117458Y499293D01*
X117405Y499683D01*
X117361Y500075D01*
X117328Y500468D01*
X117303Y500862D01*
X117289Y501256D01*
X117284Y501650D01*
X117284Y63500D02*
X117289Y63894D01*
X117303Y64288D01*
X117328Y64682D01*
X117361Y65075D01*
X117405Y65467D01*
X117458Y65857D01*
X117521Y66247D01*
X117593Y66634D01*
X117674Y67020D01*
X117765Y67404D01*
X117866Y67785D01*
X117976Y68164D01*
X118095Y68540D01*
X118223Y68912D01*
X118361Y69282D01*
X118507Y69648D01*
X118662Y70011D01*
X118827Y70369D01*
X118999Y70723D01*
X119181Y71073D01*
X119371Y71419D01*
X119570Y71760D01*
X119777Y72095D01*
X119992Y72426D01*
X120215Y72751D01*
X120446Y73071D01*
X120684Y73384D01*
X120931Y73692D01*
X121185Y73994D01*
X121446Y74289D01*
X121714Y74578D01*
X121990Y74860D01*
X122272Y75136D01*
X122561Y75404D01*
X122856Y75665D01*
X123158Y75919D01*
X123466Y76166D01*
X123779Y76404D01*
X124099Y76635D01*
X124424Y76858D01*
X124755Y77073D01*
X125090Y77280D01*
X125431Y77479D01*
X125777Y77669D01*
X126127Y77851D01*
X126481Y78023D01*
X126839Y78188D01*
X127202Y78343D01*
X127568Y78489D01*
X127938Y78627D01*
X128310Y78755D01*
X128686Y78874D01*
X129065Y78984D01*
X129446Y79085D01*
X129830Y79176D01*
X130216Y79257D01*
X130603Y79329D01*
X130993Y79392D01*
X131383Y79445D01*
X131775Y79489D01*
X132168Y79522D01*
X132562Y79547D01*
X132956Y79561D01*
X133350Y79566D01*
X133744Y79561D01*
X134138Y79547D01*
X134532Y79522D01*
X134925Y79489D01*
X135317Y79445D01*
X135707Y79392D01*
X136097Y79329D01*
X136484Y79257D01*
X136870Y79176D01*
X137254Y79085D01*
X137635Y78984D01*
X138014Y78874D01*
X138390Y78755D01*
X138762Y78627D01*
X139132Y78489D01*
X139498Y78343D01*
X139861Y78188D01*
X140219Y78023D01*
X140573Y77851D01*
X140923Y77669D01*
X141269Y77479D01*
X141610Y77280D01*
X141945Y77073D01*
X142276Y76858D01*
X142601Y76635D01*
X142921Y76404D01*
X143234Y76166D01*
X143542Y75919D01*
X143844Y75665D01*
X144139Y75404D01*
X144428Y75136D01*
X144710Y74860D01*
X144986Y74578D01*
X145254Y74289D01*
X145515Y73994D01*
X145769Y73692D01*
X146016Y73384D01*
X146254Y73071D01*
X146485Y72751D01*
X146708Y72426D01*
X146923Y72095D01*
X147130Y71760D01*
X147329Y71419D01*
X147519Y71073D01*
X147701Y70723D01*
X147873Y70369D01*
X148038Y70011D01*
X148193Y69648D01*
X148339Y69282D01*
X148477Y68912D01*
X148605Y68540D01*
X148724Y68164D01*
X148834Y67785D01*
X148935Y67404D01*
X149026Y67020D01*
X149107Y66634D01*
X149179Y66247D01*
X149242Y65857D01*
X149295Y65467D01*
X149339Y65075D01*
X149372Y64682D01*
X149397Y64288D01*
X149411Y63894D01*
X149416Y63500D01*
X149411Y63106D01*
X149397Y62712D01*
X149372Y62318D01*
X149339Y61925D01*
X149295Y61533D01*
X149242Y61143D01*
X149179Y60753D01*
X149107Y60366D01*
X149026Y59980D01*
X148935Y59596D01*
X148834Y59215D01*
X148724Y58836D01*
X148605Y58460D01*
X148477Y58088D01*
X148339Y57718D01*
X148193Y57352D01*
X148038Y56989D01*
X147873Y56631D01*
X147701Y56277D01*
X147519Y55927D01*
X147329Y55581D01*
X147130Y55240D01*
X146923Y54905D01*
X146708Y54574D01*
X146485Y54249D01*
X146254Y53929D01*
X146016Y53616D01*
X145769Y53308D01*
X145515Y53006D01*
X145254Y52711D01*
X144986Y52422D01*
X144710Y52140D01*
X144428Y51864D01*
X144139Y51596D01*
X143844Y51335D01*
X143542Y51081D01*
X143234Y50834D01*
X142921Y50596D01*
X142601Y50365D01*
X142276Y50142D01*
X141945Y49927D01*
X141610Y49720D01*
X141269Y49521D01*
X140923Y49331D01*
X140573Y49149D01*
X140219Y48977D01*
X139861Y48812D01*
X139498Y48657D01*
X139132Y48511D01*
X138762Y48373D01*
X138390Y48245D01*
X138014Y48126D01*
X137635Y48016D01*
X137254Y47915D01*
X136870Y47824D01*
X136484Y47743D01*
X136097Y47671D01*
X135707Y47608D01*
X135317Y47555D01*
X134925Y47511D01*
X134532Y47478D01*
X134138Y47453D01*
X133744Y47439D01*
X133350Y47434D01*
X132956Y47439D01*
X132562Y47453D01*
X132168Y47478D01*
X131775Y47511D01*
X131383Y47555D01*
X130993Y47608D01*
X130603Y47671D01*
X130216Y47743D01*
X129830Y47824D01*
X129446Y47915D01*
X129065Y48016D01*
X128686Y48126D01*
X128310Y48245D01*
X127938Y48373D01*
X127568Y48511D01*
X127202Y48657D01*
X126839Y48812D01*
X126481Y48977D01*
X126127Y49149D01*
X125777Y49331D01*
X125431Y49521D01*
X125090Y49720D01*
X124755Y49927D01*
X124424Y50142D01*
X124099Y50365D01*
X123779Y50596D01*
X123466Y50834D01*
X123158Y51081D01*
X122856Y51335D01*
X122561Y51596D01*
X122272Y51864D01*
X121990Y52140D01*
X121714Y52422D01*
X121446Y52711D01*
X121185Y53006D01*
X120931Y53308D01*
X120684Y53616D01*
X120446Y53929D01*
X120215Y54249D01*
X119992Y54574D01*
X119777Y54905D01*
X119570Y55240D01*
X119371Y55581D01*
X119181Y55927D01*
X118999Y56277D01*
X118827Y56631D01*
X118662Y56989D01*
X118507Y57352D01*
X118361Y57718D01*
X118223Y58088D01*
X118095Y58460D01*
X117976Y58836D01*
X117866Y59215D01*
X117765Y59596D01*
X117674Y59980D01*
X117593Y60366D01*
X117521Y60753D01*
X117458Y61143D01*
X117405Y61533D01*
X117361Y61925D01*
X117328Y62318D01*
X117303Y62712D01*
X117289Y63106D01*
X117284Y63500D01*
X1012825Y282575D02*
X1012827Y282464D01*
X1012833Y282354D01*
X1012842Y282243D01*
X1012856Y282133D01*
X1012873Y282024D01*
X1012894Y281915D01*
X1012919Y281807D01*
X1012948Y281700D01*
X1012980Y281594D01*
X1013016Y281489D01*
X1013056Y281386D01*
X1013099Y281284D01*
X1013146Y281183D01*
X1013197Y281084D01*
X1013250Y280988D01*
X1013307Y280893D01*
X1013368Y280800D01*
X1013431Y280709D01*
X1013498Y280620D01*
X1013568Y280534D01*
X1013641Y280451D01*
X1013716Y280369D01*
X1013794Y280291D01*
X1013876Y280216D01*
X1013959Y280143D01*
X1014045Y280073D01*
X1014134Y280006D01*
X1014225Y279943D01*
X1014318Y279882D01*
X1014413Y279825D01*
X1014509Y279772D01*
X1014608Y279721D01*
X1014709Y279674D01*
X1014811Y279631D01*
X1014914Y279591D01*
X1015019Y279555D01*
X1015125Y279523D01*
X1015232Y279494D01*
X1015340Y279469D01*
X1015449Y279448D01*
X1015558Y279431D01*
X1015668Y279417D01*
X1015779Y279408D01*
X1015889Y279402D01*
X1016000Y279400D01*
X1012825Y282575D02*
X1012827Y282686D01*
X1012833Y282796D01*
X1012842Y282907D01*
X1012856Y283017D01*
X1012873Y283126D01*
X1012894Y283235D01*
X1012919Y283343D01*
X1012948Y283450D01*
X1012980Y283556D01*
X1013016Y283661D01*
X1013056Y283764D01*
X1013099Y283866D01*
X1013146Y283967D01*
X1013197Y284066D01*
X1013250Y284163D01*
X1013307Y284257D01*
X1013368Y284350D01*
X1013431Y284441D01*
X1013498Y284530D01*
X1013568Y284616D01*
X1013641Y284699D01*
X1013716Y284781D01*
X1013794Y284859D01*
X1013876Y284934D01*
X1013959Y285007D01*
X1014045Y285077D01*
X1014134Y285144D01*
X1014225Y285207D01*
X1014318Y285268D01*
X1014413Y285325D01*
X1014509Y285378D01*
X1014608Y285429D01*
X1014709Y285476D01*
X1014811Y285519D01*
X1014914Y285559D01*
X1015019Y285595D01*
X1015125Y285627D01*
X1015232Y285656D01*
X1015340Y285681D01*
X1015449Y285702D01*
X1015558Y285719D01*
X1015668Y285733D01*
X1015779Y285742D01*
X1015889Y285748D01*
X1016000Y285750D01*
X993775Y282575D02*
X993773Y282464D01*
X993767Y282354D01*
X993758Y282243D01*
X993744Y282133D01*
X993727Y282024D01*
X993706Y281915D01*
X993681Y281807D01*
X993652Y281700D01*
X993620Y281594D01*
X993584Y281489D01*
X993544Y281386D01*
X993501Y281284D01*
X993454Y281183D01*
X993403Y281084D01*
X993350Y280987D01*
X993293Y280893D01*
X993232Y280800D01*
X993169Y280709D01*
X993102Y280620D01*
X993032Y280534D01*
X992959Y280451D01*
X992884Y280369D01*
X992806Y280291D01*
X992724Y280216D01*
X992641Y280143D01*
X992555Y280073D01*
X992466Y280006D01*
X992375Y279943D01*
X992282Y279882D01*
X992188Y279825D01*
X992091Y279772D01*
X991992Y279721D01*
X991891Y279674D01*
X991789Y279631D01*
X991686Y279591D01*
X991581Y279555D01*
X991475Y279523D01*
X991368Y279494D01*
X991260Y279469D01*
X991151Y279448D01*
X991042Y279431D01*
X990932Y279417D01*
X990821Y279408D01*
X990711Y279402D01*
X990600Y279400D01*
X993775Y282575D02*
X993773Y282686D01*
X993767Y282796D01*
X993758Y282907D01*
X993744Y283017D01*
X993727Y283126D01*
X993706Y283235D01*
X993681Y283343D01*
X993652Y283450D01*
X993620Y283556D01*
X993584Y283661D01*
X993544Y283764D01*
X993501Y283866D01*
X993454Y283967D01*
X993403Y284066D01*
X993350Y284163D01*
X993293Y284257D01*
X993232Y284350D01*
X993169Y284441D01*
X993102Y284530D01*
X993032Y284616D01*
X992959Y284699D01*
X992884Y284781D01*
X992806Y284859D01*
X992724Y284934D01*
X992641Y285007D01*
X992555Y285077D01*
X992466Y285144D01*
X992375Y285207D01*
X992282Y285268D01*
X992188Y285325D01*
X992091Y285378D01*
X991992Y285429D01*
X991891Y285476D01*
X991789Y285519D01*
X991686Y285559D01*
X991581Y285595D01*
X991475Y285627D01*
X991368Y285656D01*
X991260Y285681D01*
X991151Y285702D01*
X991042Y285719D01*
X990932Y285733D01*
X990821Y285742D01*
X990711Y285748D01*
X990600Y285750D01*
X15875Y282575D02*
X15873Y282464D01*
X15867Y282354D01*
X15858Y282243D01*
X15844Y282133D01*
X15827Y282024D01*
X15806Y281915D01*
X15781Y281807D01*
X15752Y281700D01*
X15720Y281594D01*
X15684Y281489D01*
X15644Y281386D01*
X15601Y281284D01*
X15554Y281183D01*
X15503Y281084D01*
X15450Y280987D01*
X15393Y280893D01*
X15332Y280800D01*
X15269Y280709D01*
X15202Y280620D01*
X15132Y280534D01*
X15059Y280451D01*
X14984Y280369D01*
X14906Y280291D01*
X14824Y280216D01*
X14741Y280143D01*
X14655Y280073D01*
X14566Y280006D01*
X14475Y279943D01*
X14382Y279882D01*
X14287Y279825D01*
X14191Y279772D01*
X14092Y279721D01*
X13991Y279674D01*
X13889Y279631D01*
X13786Y279591D01*
X13681Y279555D01*
X13575Y279523D01*
X13468Y279494D01*
X13360Y279469D01*
X13251Y279448D01*
X13142Y279431D01*
X13032Y279417D01*
X12921Y279408D01*
X12811Y279402D01*
X12700Y279400D01*
X15875Y282575D02*
X15873Y282686D01*
X15867Y282796D01*
X15858Y282907D01*
X15844Y283017D01*
X15827Y283126D01*
X15806Y283235D01*
X15781Y283343D01*
X15752Y283450D01*
X15720Y283556D01*
X15684Y283661D01*
X15644Y283764D01*
X15601Y283866D01*
X15554Y283967D01*
X15503Y284066D01*
X15450Y284163D01*
X15393Y284257D01*
X15332Y284350D01*
X15269Y284441D01*
X15202Y284530D01*
X15132Y284616D01*
X15059Y284699D01*
X14984Y284781D01*
X14906Y284859D01*
X14824Y284934D01*
X14741Y285007D01*
X14655Y285077D01*
X14566Y285144D01*
X14475Y285207D01*
X14382Y285268D01*
X14287Y285325D01*
X14191Y285378D01*
X14092Y285429D01*
X13991Y285476D01*
X13889Y285519D01*
X13786Y285559D01*
X13681Y285595D01*
X13575Y285627D01*
X13468Y285656D01*
X13360Y285681D01*
X13251Y285702D01*
X13142Y285719D01*
X13032Y285733D01*
X12921Y285742D01*
X12811Y285748D01*
X12700Y285750D01*
X34925Y282575D02*
X34927Y282686D01*
X34933Y282796D01*
X34942Y282907D01*
X34956Y283017D01*
X34973Y283126D01*
X34994Y283235D01*
X35019Y283343D01*
X35048Y283450D01*
X35080Y283556D01*
X35116Y283661D01*
X35156Y283764D01*
X35199Y283866D01*
X35246Y283967D01*
X35297Y284066D01*
X35350Y284163D01*
X35407Y284257D01*
X35468Y284350D01*
X35531Y284441D01*
X35598Y284530D01*
X35668Y284616D01*
X35741Y284699D01*
X35816Y284781D01*
X35894Y284859D01*
X35976Y284934D01*
X36059Y285007D01*
X36145Y285077D01*
X36234Y285144D01*
X36325Y285207D01*
X36418Y285268D01*
X36513Y285325D01*
X36609Y285378D01*
X36708Y285429D01*
X36809Y285476D01*
X36911Y285519D01*
X37014Y285559D01*
X37119Y285595D01*
X37225Y285627D01*
X37332Y285656D01*
X37440Y285681D01*
X37549Y285702D01*
X37658Y285719D01*
X37768Y285733D01*
X37879Y285742D01*
X37989Y285748D01*
X38100Y285750D01*
X34925Y282575D02*
X34927Y282464D01*
X34933Y282354D01*
X34942Y282243D01*
X34956Y282133D01*
X34973Y282024D01*
X34994Y281915D01*
X35019Y281807D01*
X35048Y281700D01*
X35080Y281594D01*
X35116Y281489D01*
X35156Y281386D01*
X35199Y281284D01*
X35246Y281183D01*
X35297Y281084D01*
X35350Y280988D01*
X35407Y280893D01*
X35468Y280800D01*
X35531Y280709D01*
X35598Y280620D01*
X35668Y280534D01*
X35741Y280451D01*
X35816Y280369D01*
X35894Y280291D01*
X35976Y280216D01*
X36059Y280143D01*
X36145Y280073D01*
X36234Y280006D01*
X36325Y279943D01*
X36418Y279882D01*
X36512Y279825D01*
X36609Y279772D01*
X36708Y279721D01*
X36809Y279674D01*
X36911Y279631D01*
X37014Y279591D01*
X37119Y279555D01*
X37225Y279523D01*
X37332Y279494D01*
X37440Y279469D01*
X37549Y279448D01*
X37658Y279431D01*
X37768Y279417D01*
X37879Y279408D01*
X37989Y279402D01*
X38100Y279400D01*
X994450Y282575D02*
X994452Y282674D01*
X994458Y282774D01*
X994468Y282873D01*
X994482Y282971D01*
X994499Y283069D01*
X994521Y283166D01*
X994546Y283262D01*
X994575Y283357D01*
X994608Y283451D01*
X994645Y283543D01*
X994685Y283634D01*
X994729Y283723D01*
X994777Y283811D01*
X994828Y283896D01*
X994882Y283979D01*
X994939Y284061D01*
X995000Y284139D01*
X995064Y284216D01*
X995130Y284289D01*
X995200Y284360D01*
X995272Y284428D01*
X995347Y284494D01*
X995425Y284556D01*
X995505Y284615D01*
X995587Y284671D01*
X995671Y284723D01*
X995758Y284772D01*
X995846Y284818D01*
X995936Y284860D01*
X996028Y284899D01*
X996121Y284934D01*
X996215Y284965D01*
X996311Y284992D01*
X996408Y285015D01*
X996505Y285035D01*
X996603Y285051D01*
X996702Y285063D01*
X996801Y285071D01*
X996900Y285075D01*
X997000Y285075D01*
X997099Y285071D01*
X997198Y285063D01*
X997297Y285051D01*
X997395Y285035D01*
X997492Y285015D01*
X997589Y284992D01*
X997685Y284965D01*
X997779Y284934D01*
X997872Y284899D01*
X997964Y284860D01*
X998054Y284818D01*
X998142Y284772D01*
X998229Y284723D01*
X998313Y284671D01*
X998395Y284615D01*
X998475Y284556D01*
X998553Y284494D01*
X998628Y284428D01*
X998700Y284360D01*
X998770Y284289D01*
X998836Y284216D01*
X998900Y284139D01*
X998961Y284061D01*
X999018Y283979D01*
X999072Y283896D01*
X999123Y283811D01*
X999171Y283723D01*
X999215Y283634D01*
X999255Y283543D01*
X999292Y283451D01*
X999325Y283357D01*
X999354Y283262D01*
X999379Y283166D01*
X999401Y283069D01*
X999418Y282971D01*
X999432Y282873D01*
X999442Y282774D01*
X999448Y282674D01*
X999450Y282575D01*
X999448Y282476D01*
X999442Y282376D01*
X999432Y282277D01*
X999418Y282179D01*
X999401Y282081D01*
X999379Y281984D01*
X999354Y281888D01*
X999325Y281793D01*
X999292Y281699D01*
X999255Y281607D01*
X999215Y281516D01*
X999171Y281427D01*
X999123Y281339D01*
X999072Y281254D01*
X999018Y281171D01*
X998961Y281089D01*
X998900Y281011D01*
X998836Y280934D01*
X998770Y280861D01*
X998700Y280790D01*
X998628Y280722D01*
X998553Y280656D01*
X998475Y280594D01*
X998395Y280535D01*
X998313Y280479D01*
X998229Y280427D01*
X998142Y280378D01*
X998054Y280332D01*
X997964Y280290D01*
X997872Y280251D01*
X997779Y280216D01*
X997685Y280185D01*
X997589Y280158D01*
X997492Y280135D01*
X997395Y280115D01*
X997297Y280099D01*
X997198Y280087D01*
X997099Y280079D01*
X997000Y280075D01*
X996900Y280075D01*
X996801Y280079D01*
X996702Y280087D01*
X996603Y280099D01*
X996505Y280115D01*
X996408Y280135D01*
X996311Y280158D01*
X996215Y280185D01*
X996121Y280216D01*
X996028Y280251D01*
X995936Y280290D01*
X995846Y280332D01*
X995758Y280378D01*
X995671Y280427D01*
X995587Y280479D01*
X995505Y280535D01*
X995425Y280594D01*
X995347Y280656D01*
X995272Y280722D01*
X995200Y280790D01*
X995130Y280861D01*
X995064Y280934D01*
X995000Y281011D01*
X994939Y281089D01*
X994882Y281171D01*
X994828Y281254D01*
X994777Y281339D01*
X994729Y281427D01*
X994685Y281516D01*
X994645Y281607D01*
X994608Y281699D01*
X994575Y281793D01*
X994546Y281888D01*
X994521Y281984D01*
X994499Y282081D01*
X994482Y282179D01*
X994468Y282277D01*
X994458Y282376D01*
X994452Y282476D01*
X994450Y282575D01*
X1000800Y282575D02*
X1000802Y282674D01*
X1000808Y282774D01*
X1000818Y282873D01*
X1000832Y282971D01*
X1000849Y283069D01*
X1000871Y283166D01*
X1000896Y283262D01*
X1000925Y283357D01*
X1000958Y283451D01*
X1000995Y283543D01*
X1001035Y283634D01*
X1001079Y283723D01*
X1001127Y283811D01*
X1001178Y283896D01*
X1001232Y283979D01*
X1001289Y284061D01*
X1001350Y284139D01*
X1001414Y284216D01*
X1001480Y284289D01*
X1001550Y284360D01*
X1001622Y284428D01*
X1001697Y284494D01*
X1001775Y284556D01*
X1001855Y284615D01*
X1001937Y284671D01*
X1002021Y284723D01*
X1002108Y284772D01*
X1002196Y284818D01*
X1002286Y284860D01*
X1002378Y284899D01*
X1002471Y284934D01*
X1002565Y284965D01*
X1002661Y284992D01*
X1002758Y285015D01*
X1002855Y285035D01*
X1002953Y285051D01*
X1003052Y285063D01*
X1003151Y285071D01*
X1003250Y285075D01*
X1003350Y285075D01*
X1003449Y285071D01*
X1003548Y285063D01*
X1003647Y285051D01*
X1003745Y285035D01*
X1003842Y285015D01*
X1003939Y284992D01*
X1004035Y284965D01*
X1004129Y284934D01*
X1004222Y284899D01*
X1004314Y284860D01*
X1004404Y284818D01*
X1004492Y284772D01*
X1004579Y284723D01*
X1004663Y284671D01*
X1004745Y284615D01*
X1004825Y284556D01*
X1004903Y284494D01*
X1004978Y284428D01*
X1005050Y284360D01*
X1005120Y284289D01*
X1005186Y284216D01*
X1005250Y284139D01*
X1005311Y284061D01*
X1005368Y283979D01*
X1005422Y283896D01*
X1005473Y283811D01*
X1005521Y283723D01*
X1005565Y283634D01*
X1005605Y283543D01*
X1005642Y283451D01*
X1005675Y283357D01*
X1005704Y283262D01*
X1005729Y283166D01*
X1005751Y283069D01*
X1005768Y282971D01*
X1005782Y282873D01*
X1005792Y282774D01*
X1005798Y282674D01*
X1005800Y282575D01*
X1005798Y282476D01*
X1005792Y282376D01*
X1005782Y282277D01*
X1005768Y282179D01*
X1005751Y282081D01*
X1005729Y281984D01*
X1005704Y281888D01*
X1005675Y281793D01*
X1005642Y281699D01*
X1005605Y281607D01*
X1005565Y281516D01*
X1005521Y281427D01*
X1005473Y281339D01*
X1005422Y281254D01*
X1005368Y281171D01*
X1005311Y281089D01*
X1005250Y281011D01*
X1005186Y280934D01*
X1005120Y280861D01*
X1005050Y280790D01*
X1004978Y280722D01*
X1004903Y280656D01*
X1004825Y280594D01*
X1004745Y280535D01*
X1004663Y280479D01*
X1004579Y280427D01*
X1004492Y280378D01*
X1004404Y280332D01*
X1004314Y280290D01*
X1004222Y280251D01*
X1004129Y280216D01*
X1004035Y280185D01*
X1003939Y280158D01*
X1003842Y280135D01*
X1003745Y280115D01*
X1003647Y280099D01*
X1003548Y280087D01*
X1003449Y280079D01*
X1003350Y280075D01*
X1003250Y280075D01*
X1003151Y280079D01*
X1003052Y280087D01*
X1002953Y280099D01*
X1002855Y280115D01*
X1002758Y280135D01*
X1002661Y280158D01*
X1002565Y280185D01*
X1002471Y280216D01*
X1002378Y280251D01*
X1002286Y280290D01*
X1002196Y280332D01*
X1002108Y280378D01*
X1002021Y280427D01*
X1001937Y280479D01*
X1001855Y280535D01*
X1001775Y280594D01*
X1001697Y280656D01*
X1001622Y280722D01*
X1001550Y280790D01*
X1001480Y280861D01*
X1001414Y280934D01*
X1001350Y281011D01*
X1001289Y281089D01*
X1001232Y281171D01*
X1001178Y281254D01*
X1001127Y281339D01*
X1001079Y281427D01*
X1001035Y281516D01*
X1000995Y281607D01*
X1000958Y281699D01*
X1000925Y281793D01*
X1000896Y281888D01*
X1000871Y281984D01*
X1000849Y282081D01*
X1000832Y282179D01*
X1000818Y282277D01*
X1000808Y282376D01*
X1000802Y282476D01*
X1000800Y282575D01*
X1007150Y282575D02*
X1007152Y282674D01*
X1007158Y282774D01*
X1007168Y282873D01*
X1007182Y282971D01*
X1007199Y283069D01*
X1007221Y283166D01*
X1007246Y283262D01*
X1007275Y283357D01*
X1007308Y283451D01*
X1007345Y283543D01*
X1007385Y283634D01*
X1007429Y283723D01*
X1007477Y283811D01*
X1007528Y283896D01*
X1007582Y283979D01*
X1007639Y284061D01*
X1007700Y284139D01*
X1007764Y284216D01*
X1007830Y284289D01*
X1007900Y284360D01*
X1007972Y284428D01*
X1008047Y284494D01*
X1008125Y284556D01*
X1008205Y284615D01*
X1008287Y284671D01*
X1008371Y284723D01*
X1008458Y284772D01*
X1008546Y284818D01*
X1008636Y284860D01*
X1008728Y284899D01*
X1008821Y284934D01*
X1008915Y284965D01*
X1009011Y284992D01*
X1009108Y285015D01*
X1009205Y285035D01*
X1009303Y285051D01*
X1009402Y285063D01*
X1009501Y285071D01*
X1009600Y285075D01*
X1009700Y285075D01*
X1009799Y285071D01*
X1009898Y285063D01*
X1009997Y285051D01*
X1010095Y285035D01*
X1010192Y285015D01*
X1010289Y284992D01*
X1010385Y284965D01*
X1010479Y284934D01*
X1010572Y284899D01*
X1010664Y284860D01*
X1010754Y284818D01*
X1010842Y284772D01*
X1010929Y284723D01*
X1011013Y284671D01*
X1011095Y284615D01*
X1011175Y284556D01*
X1011253Y284494D01*
X1011328Y284428D01*
X1011400Y284360D01*
X1011470Y284289D01*
X1011536Y284216D01*
X1011600Y284139D01*
X1011661Y284061D01*
X1011718Y283979D01*
X1011772Y283896D01*
X1011823Y283811D01*
X1011871Y283723D01*
X1011915Y283634D01*
X1011955Y283543D01*
X1011992Y283451D01*
X1012025Y283357D01*
X1012054Y283262D01*
X1012079Y283166D01*
X1012101Y283069D01*
X1012118Y282971D01*
X1012132Y282873D01*
X1012142Y282774D01*
X1012148Y282674D01*
X1012150Y282575D01*
X1012148Y282476D01*
X1012142Y282376D01*
X1012132Y282277D01*
X1012118Y282179D01*
X1012101Y282081D01*
X1012079Y281984D01*
X1012054Y281888D01*
X1012025Y281793D01*
X1011992Y281699D01*
X1011955Y281607D01*
X1011915Y281516D01*
X1011871Y281427D01*
X1011823Y281339D01*
X1011772Y281254D01*
X1011718Y281171D01*
X1011661Y281089D01*
X1011600Y281011D01*
X1011536Y280934D01*
X1011470Y280861D01*
X1011400Y280790D01*
X1011328Y280722D01*
X1011253Y280656D01*
X1011175Y280594D01*
X1011095Y280535D01*
X1011013Y280479D01*
X1010929Y280427D01*
X1010842Y280378D01*
X1010754Y280332D01*
X1010664Y280290D01*
X1010572Y280251D01*
X1010479Y280216D01*
X1010385Y280185D01*
X1010289Y280158D01*
X1010192Y280135D01*
X1010095Y280115D01*
X1009997Y280099D01*
X1009898Y280087D01*
X1009799Y280079D01*
X1009700Y280075D01*
X1009600Y280075D01*
X1009501Y280079D01*
X1009402Y280087D01*
X1009303Y280099D01*
X1009205Y280115D01*
X1009108Y280135D01*
X1009011Y280158D01*
X1008915Y280185D01*
X1008821Y280216D01*
X1008728Y280251D01*
X1008636Y280290D01*
X1008546Y280332D01*
X1008458Y280378D01*
X1008371Y280427D01*
X1008287Y280479D01*
X1008205Y280535D01*
X1008125Y280594D01*
X1008047Y280656D01*
X1007972Y280722D01*
X1007900Y280790D01*
X1007830Y280861D01*
X1007764Y280934D01*
X1007700Y281011D01*
X1007639Y281089D01*
X1007582Y281171D01*
X1007528Y281254D01*
X1007477Y281339D01*
X1007429Y281427D01*
X1007385Y281516D01*
X1007345Y281607D01*
X1007308Y281699D01*
X1007275Y281793D01*
X1007246Y281888D01*
X1007221Y281984D01*
X1007199Y282081D01*
X1007182Y282179D01*
X1007168Y282277D01*
X1007158Y282376D01*
X1007152Y282476D01*
X1007150Y282575D01*
X16550Y282575D02*
X16552Y282674D01*
X16558Y282774D01*
X16568Y282873D01*
X16582Y282971D01*
X16599Y283069D01*
X16621Y283166D01*
X16646Y283262D01*
X16675Y283357D01*
X16708Y283451D01*
X16745Y283543D01*
X16785Y283634D01*
X16829Y283723D01*
X16877Y283811D01*
X16928Y283896D01*
X16982Y283979D01*
X17039Y284061D01*
X17100Y284139D01*
X17164Y284216D01*
X17230Y284289D01*
X17300Y284360D01*
X17372Y284428D01*
X17447Y284494D01*
X17525Y284556D01*
X17605Y284615D01*
X17687Y284671D01*
X17771Y284723D01*
X17858Y284772D01*
X17946Y284818D01*
X18036Y284860D01*
X18128Y284899D01*
X18221Y284934D01*
X18315Y284965D01*
X18411Y284992D01*
X18508Y285015D01*
X18605Y285035D01*
X18703Y285051D01*
X18802Y285063D01*
X18901Y285071D01*
X19000Y285075D01*
X19100Y285075D01*
X19199Y285071D01*
X19298Y285063D01*
X19397Y285051D01*
X19495Y285035D01*
X19592Y285015D01*
X19689Y284992D01*
X19785Y284965D01*
X19879Y284934D01*
X19972Y284899D01*
X20064Y284860D01*
X20154Y284818D01*
X20242Y284772D01*
X20329Y284723D01*
X20413Y284671D01*
X20495Y284615D01*
X20575Y284556D01*
X20653Y284494D01*
X20728Y284428D01*
X20800Y284360D01*
X20870Y284289D01*
X20936Y284216D01*
X21000Y284139D01*
X21061Y284061D01*
X21118Y283979D01*
X21172Y283896D01*
X21223Y283811D01*
X21271Y283723D01*
X21315Y283634D01*
X21355Y283543D01*
X21392Y283451D01*
X21425Y283357D01*
X21454Y283262D01*
X21479Y283166D01*
X21501Y283069D01*
X21518Y282971D01*
X21532Y282873D01*
X21542Y282774D01*
X21548Y282674D01*
X21550Y282575D01*
X21548Y282476D01*
X21542Y282376D01*
X21532Y282277D01*
X21518Y282179D01*
X21501Y282081D01*
X21479Y281984D01*
X21454Y281888D01*
X21425Y281793D01*
X21392Y281699D01*
X21355Y281607D01*
X21315Y281516D01*
X21271Y281427D01*
X21223Y281339D01*
X21172Y281254D01*
X21118Y281171D01*
X21061Y281089D01*
X21000Y281011D01*
X20936Y280934D01*
X20870Y280861D01*
X20800Y280790D01*
X20728Y280722D01*
X20653Y280656D01*
X20575Y280594D01*
X20495Y280535D01*
X20413Y280479D01*
X20329Y280427D01*
X20242Y280378D01*
X20154Y280332D01*
X20064Y280290D01*
X19972Y280251D01*
X19879Y280216D01*
X19785Y280185D01*
X19689Y280158D01*
X19592Y280135D01*
X19495Y280115D01*
X19397Y280099D01*
X19298Y280087D01*
X19199Y280079D01*
X19100Y280075D01*
X19000Y280075D01*
X18901Y280079D01*
X18802Y280087D01*
X18703Y280099D01*
X18605Y280115D01*
X18508Y280135D01*
X18411Y280158D01*
X18315Y280185D01*
X18221Y280216D01*
X18128Y280251D01*
X18036Y280290D01*
X17946Y280332D01*
X17858Y280378D01*
X17771Y280427D01*
X17687Y280479D01*
X17605Y280535D01*
X17525Y280594D01*
X17447Y280656D01*
X17372Y280722D01*
X17300Y280790D01*
X17230Y280861D01*
X17164Y280934D01*
X17100Y281011D01*
X17039Y281089D01*
X16982Y281171D01*
X16928Y281254D01*
X16877Y281339D01*
X16829Y281427D01*
X16785Y281516D01*
X16745Y281607D01*
X16708Y281699D01*
X16675Y281793D01*
X16646Y281888D01*
X16621Y281984D01*
X16599Y282081D01*
X16582Y282179D01*
X16568Y282277D01*
X16558Y282376D01*
X16552Y282476D01*
X16550Y282575D01*
X22900Y282575D02*
X22902Y282674D01*
X22908Y282774D01*
X22918Y282873D01*
X22932Y282971D01*
X22949Y283069D01*
X22971Y283166D01*
X22996Y283262D01*
X23025Y283357D01*
X23058Y283451D01*
X23095Y283543D01*
X23135Y283634D01*
X23179Y283723D01*
X23227Y283811D01*
X23278Y283896D01*
X23332Y283979D01*
X23389Y284061D01*
X23450Y284139D01*
X23514Y284216D01*
X23580Y284289D01*
X23650Y284360D01*
X23722Y284428D01*
X23797Y284494D01*
X23875Y284556D01*
X23955Y284615D01*
X24037Y284671D01*
X24121Y284723D01*
X24208Y284772D01*
X24296Y284818D01*
X24386Y284860D01*
X24478Y284899D01*
X24571Y284934D01*
X24665Y284965D01*
X24761Y284992D01*
X24858Y285015D01*
X24955Y285035D01*
X25053Y285051D01*
X25152Y285063D01*
X25251Y285071D01*
X25350Y285075D01*
X25450Y285075D01*
X25549Y285071D01*
X25648Y285063D01*
X25747Y285051D01*
X25845Y285035D01*
X25942Y285015D01*
X26039Y284992D01*
X26135Y284965D01*
X26229Y284934D01*
X26322Y284899D01*
X26414Y284860D01*
X26504Y284818D01*
X26592Y284772D01*
X26679Y284723D01*
X26763Y284671D01*
X26845Y284615D01*
X26925Y284556D01*
X27003Y284494D01*
X27078Y284428D01*
X27150Y284360D01*
X27220Y284289D01*
X27286Y284216D01*
X27350Y284139D01*
X27411Y284061D01*
X27468Y283979D01*
X27522Y283896D01*
X27573Y283811D01*
X27621Y283723D01*
X27665Y283634D01*
X27705Y283543D01*
X27742Y283451D01*
X27775Y283357D01*
X27804Y283262D01*
X27829Y283166D01*
X27851Y283069D01*
X27868Y282971D01*
X27882Y282873D01*
X27892Y282774D01*
X27898Y282674D01*
X27900Y282575D01*
X27898Y282476D01*
X27892Y282376D01*
X27882Y282277D01*
X27868Y282179D01*
X27851Y282081D01*
X27829Y281984D01*
X27804Y281888D01*
X27775Y281793D01*
X27742Y281699D01*
X27705Y281607D01*
X27665Y281516D01*
X27621Y281427D01*
X27573Y281339D01*
X27522Y281254D01*
X27468Y281171D01*
X27411Y281089D01*
X27350Y281011D01*
X27286Y280934D01*
X27220Y280861D01*
X27150Y280790D01*
X27078Y280722D01*
X27003Y280656D01*
X26925Y280594D01*
X26845Y280535D01*
X26763Y280479D01*
X26679Y280427D01*
X26592Y280378D01*
X26504Y280332D01*
X26414Y280290D01*
X26322Y280251D01*
X26229Y280216D01*
X26135Y280185D01*
X26039Y280158D01*
X25942Y280135D01*
X25845Y280115D01*
X25747Y280099D01*
X25648Y280087D01*
X25549Y280079D01*
X25450Y280075D01*
X25350Y280075D01*
X25251Y280079D01*
X25152Y280087D01*
X25053Y280099D01*
X24955Y280115D01*
X24858Y280135D01*
X24761Y280158D01*
X24665Y280185D01*
X24571Y280216D01*
X24478Y280251D01*
X24386Y280290D01*
X24296Y280332D01*
X24208Y280378D01*
X24121Y280427D01*
X24037Y280479D01*
X23955Y280535D01*
X23875Y280594D01*
X23797Y280656D01*
X23722Y280722D01*
X23650Y280790D01*
X23580Y280861D01*
X23514Y280934D01*
X23450Y281011D01*
X23389Y281089D01*
X23332Y281171D01*
X23278Y281254D01*
X23227Y281339D01*
X23179Y281427D01*
X23135Y281516D01*
X23095Y281607D01*
X23058Y281699D01*
X23025Y281793D01*
X22996Y281888D01*
X22971Y281984D01*
X22949Y282081D01*
X22932Y282179D01*
X22918Y282277D01*
X22908Y282376D01*
X22902Y282476D01*
X22900Y282575D01*
X29250Y282575D02*
X29252Y282674D01*
X29258Y282774D01*
X29268Y282873D01*
X29282Y282971D01*
X29299Y283069D01*
X29321Y283166D01*
X29346Y283262D01*
X29375Y283357D01*
X29408Y283451D01*
X29445Y283543D01*
X29485Y283634D01*
X29529Y283723D01*
X29577Y283811D01*
X29628Y283896D01*
X29682Y283979D01*
X29739Y284061D01*
X29800Y284139D01*
X29864Y284216D01*
X29930Y284289D01*
X30000Y284360D01*
X30072Y284428D01*
X30147Y284494D01*
X30225Y284556D01*
X30305Y284615D01*
X30387Y284671D01*
X30471Y284723D01*
X30558Y284772D01*
X30646Y284818D01*
X30736Y284860D01*
X30828Y284899D01*
X30921Y284934D01*
X31015Y284965D01*
X31111Y284992D01*
X31208Y285015D01*
X31305Y285035D01*
X31403Y285051D01*
X31502Y285063D01*
X31601Y285071D01*
X31700Y285075D01*
X31800Y285075D01*
X31899Y285071D01*
X31998Y285063D01*
X32097Y285051D01*
X32195Y285035D01*
X32292Y285015D01*
X32389Y284992D01*
X32485Y284965D01*
X32579Y284934D01*
X32672Y284899D01*
X32764Y284860D01*
X32854Y284818D01*
X32942Y284772D01*
X33029Y284723D01*
X33113Y284671D01*
X33195Y284615D01*
X33275Y284556D01*
X33353Y284494D01*
X33428Y284428D01*
X33500Y284360D01*
X33570Y284289D01*
X33636Y284216D01*
X33700Y284139D01*
X33761Y284061D01*
X33818Y283979D01*
X33872Y283896D01*
X33923Y283811D01*
X33971Y283723D01*
X34015Y283634D01*
X34055Y283543D01*
X34092Y283451D01*
X34125Y283357D01*
X34154Y283262D01*
X34179Y283166D01*
X34201Y283069D01*
X34218Y282971D01*
X34232Y282873D01*
X34242Y282774D01*
X34248Y282674D01*
X34250Y282575D01*
X34248Y282476D01*
X34242Y282376D01*
X34232Y282277D01*
X34218Y282179D01*
X34201Y282081D01*
X34179Y281984D01*
X34154Y281888D01*
X34125Y281793D01*
X34092Y281699D01*
X34055Y281607D01*
X34015Y281516D01*
X33971Y281427D01*
X33923Y281339D01*
X33872Y281254D01*
X33818Y281171D01*
X33761Y281089D01*
X33700Y281011D01*
X33636Y280934D01*
X33570Y280861D01*
X33500Y280790D01*
X33428Y280722D01*
X33353Y280656D01*
X33275Y280594D01*
X33195Y280535D01*
X33113Y280479D01*
X33029Y280427D01*
X32942Y280378D01*
X32854Y280332D01*
X32764Y280290D01*
X32672Y280251D01*
X32579Y280216D01*
X32485Y280185D01*
X32389Y280158D01*
X32292Y280135D01*
X32195Y280115D01*
X32097Y280099D01*
X31998Y280087D01*
X31899Y280079D01*
X31800Y280075D01*
X31700Y280075D01*
X31601Y280079D01*
X31502Y280087D01*
X31403Y280099D01*
X31305Y280115D01*
X31208Y280135D01*
X31111Y280158D01*
X31015Y280185D01*
X30921Y280216D01*
X30828Y280251D01*
X30736Y280290D01*
X30646Y280332D01*
X30558Y280378D01*
X30471Y280427D01*
X30387Y280479D01*
X30305Y280535D01*
X30225Y280594D01*
X30147Y280656D01*
X30072Y280722D01*
X30000Y280790D01*
X29930Y280861D01*
X29864Y280934D01*
X29800Y281011D01*
X29739Y281089D01*
X29682Y281171D01*
X29628Y281254D01*
X29577Y281339D01*
X29529Y281427D01*
X29485Y281516D01*
X29445Y281607D01*
X29408Y281699D01*
X29375Y281793D01*
X29346Y281888D01*
X29321Y281984D01*
X29299Y282081D01*
X29282Y282179D01*
X29268Y282277D01*
X29258Y282376D01*
X29252Y282476D01*
X29250Y282575D01*
X518200Y282575D02*
X518202Y282674D01*
X518208Y282774D01*
X518218Y282873D01*
X518232Y282971D01*
X518249Y283069D01*
X518271Y283166D01*
X518296Y283262D01*
X518325Y283357D01*
X518358Y283451D01*
X518395Y283543D01*
X518435Y283634D01*
X518479Y283723D01*
X518527Y283811D01*
X518578Y283896D01*
X518632Y283979D01*
X518689Y284061D01*
X518750Y284139D01*
X518814Y284216D01*
X518880Y284289D01*
X518950Y284360D01*
X519022Y284428D01*
X519097Y284494D01*
X519175Y284556D01*
X519255Y284615D01*
X519337Y284671D01*
X519421Y284723D01*
X519508Y284772D01*
X519596Y284818D01*
X519686Y284860D01*
X519778Y284899D01*
X519871Y284934D01*
X519965Y284965D01*
X520061Y284992D01*
X520158Y285015D01*
X520255Y285035D01*
X520353Y285051D01*
X520452Y285063D01*
X520551Y285071D01*
X520650Y285075D01*
X520750Y285075D01*
X520849Y285071D01*
X520948Y285063D01*
X521047Y285051D01*
X521145Y285035D01*
X521242Y285015D01*
X521339Y284992D01*
X521435Y284965D01*
X521529Y284934D01*
X521622Y284899D01*
X521714Y284860D01*
X521804Y284818D01*
X521892Y284772D01*
X521979Y284723D01*
X522063Y284671D01*
X522145Y284615D01*
X522225Y284556D01*
X522303Y284494D01*
X522378Y284428D01*
X522450Y284360D01*
X522520Y284289D01*
X522586Y284216D01*
X522650Y284139D01*
X522711Y284061D01*
X522768Y283979D01*
X522822Y283896D01*
X522873Y283811D01*
X522921Y283723D01*
X522965Y283634D01*
X523005Y283543D01*
X523042Y283451D01*
X523075Y283357D01*
X523104Y283262D01*
X523129Y283166D01*
X523151Y283069D01*
X523168Y282971D01*
X523182Y282873D01*
X523192Y282774D01*
X523198Y282674D01*
X523200Y282575D01*
X523198Y282476D01*
X523192Y282376D01*
X523182Y282277D01*
X523168Y282179D01*
X523151Y282081D01*
X523129Y281984D01*
X523104Y281888D01*
X523075Y281793D01*
X523042Y281699D01*
X523005Y281607D01*
X522965Y281516D01*
X522921Y281427D01*
X522873Y281339D01*
X522822Y281254D01*
X522768Y281171D01*
X522711Y281089D01*
X522650Y281011D01*
X522586Y280934D01*
X522520Y280861D01*
X522450Y280790D01*
X522378Y280722D01*
X522303Y280656D01*
X522225Y280594D01*
X522145Y280535D01*
X522063Y280479D01*
X521979Y280427D01*
X521892Y280378D01*
X521804Y280332D01*
X521714Y280290D01*
X521622Y280251D01*
X521529Y280216D01*
X521435Y280185D01*
X521339Y280158D01*
X521242Y280135D01*
X521145Y280115D01*
X521047Y280099D01*
X520948Y280087D01*
X520849Y280079D01*
X520750Y280075D01*
X520650Y280075D01*
X520551Y280079D01*
X520452Y280087D01*
X520353Y280099D01*
X520255Y280115D01*
X520158Y280135D01*
X520061Y280158D01*
X519965Y280185D01*
X519871Y280216D01*
X519778Y280251D01*
X519686Y280290D01*
X519596Y280332D01*
X519508Y280378D01*
X519421Y280427D01*
X519337Y280479D01*
X519255Y280535D01*
X519175Y280594D01*
X519097Y280656D01*
X519022Y280722D01*
X518950Y280790D01*
X518880Y280861D01*
X518814Y280934D01*
X518750Y281011D01*
X518689Y281089D01*
X518632Y281171D01*
X518578Y281254D01*
X518527Y281339D01*
X518479Y281427D01*
X518435Y281516D01*
X518395Y281607D01*
X518358Y281699D01*
X518325Y281793D01*
X518296Y281888D01*
X518271Y281984D01*
X518249Y282081D01*
X518232Y282179D01*
X518218Y282277D01*
X518208Y282376D01*
X518202Y282476D01*
X518200Y282575D01*
X524550Y282575D02*
X524552Y282674D01*
X524558Y282774D01*
X524568Y282873D01*
X524582Y282971D01*
X524599Y283069D01*
X524621Y283166D01*
X524646Y283262D01*
X524675Y283357D01*
X524708Y283451D01*
X524745Y283543D01*
X524785Y283634D01*
X524829Y283723D01*
X524877Y283811D01*
X524928Y283896D01*
X524982Y283979D01*
X525039Y284061D01*
X525100Y284139D01*
X525164Y284216D01*
X525230Y284289D01*
X525300Y284360D01*
X525372Y284428D01*
X525447Y284494D01*
X525525Y284556D01*
X525605Y284615D01*
X525687Y284671D01*
X525771Y284723D01*
X525858Y284772D01*
X525946Y284818D01*
X526036Y284860D01*
X526128Y284899D01*
X526221Y284934D01*
X526315Y284965D01*
X526411Y284992D01*
X526508Y285015D01*
X526605Y285035D01*
X526703Y285051D01*
X526802Y285063D01*
X526901Y285071D01*
X527000Y285075D01*
X527100Y285075D01*
X527199Y285071D01*
X527298Y285063D01*
X527397Y285051D01*
X527495Y285035D01*
X527592Y285015D01*
X527689Y284992D01*
X527785Y284965D01*
X527879Y284934D01*
X527972Y284899D01*
X528064Y284860D01*
X528154Y284818D01*
X528242Y284772D01*
X528329Y284723D01*
X528413Y284671D01*
X528495Y284615D01*
X528575Y284556D01*
X528653Y284494D01*
X528728Y284428D01*
X528800Y284360D01*
X528870Y284289D01*
X528936Y284216D01*
X529000Y284139D01*
X529061Y284061D01*
X529118Y283979D01*
X529172Y283896D01*
X529223Y283811D01*
X529271Y283723D01*
X529315Y283634D01*
X529355Y283543D01*
X529392Y283451D01*
X529425Y283357D01*
X529454Y283262D01*
X529479Y283166D01*
X529501Y283069D01*
X529518Y282971D01*
X529532Y282873D01*
X529542Y282774D01*
X529548Y282674D01*
X529550Y282575D01*
X529548Y282476D01*
X529542Y282376D01*
X529532Y282277D01*
X529518Y282179D01*
X529501Y282081D01*
X529479Y281984D01*
X529454Y281888D01*
X529425Y281793D01*
X529392Y281699D01*
X529355Y281607D01*
X529315Y281516D01*
X529271Y281427D01*
X529223Y281339D01*
X529172Y281254D01*
X529118Y281171D01*
X529061Y281089D01*
X529000Y281011D01*
X528936Y280934D01*
X528870Y280861D01*
X528800Y280790D01*
X528728Y280722D01*
X528653Y280656D01*
X528575Y280594D01*
X528495Y280535D01*
X528413Y280479D01*
X528329Y280427D01*
X528242Y280378D01*
X528154Y280332D01*
X528064Y280290D01*
X527972Y280251D01*
X527879Y280216D01*
X527785Y280185D01*
X527689Y280158D01*
X527592Y280135D01*
X527495Y280115D01*
X527397Y280099D01*
X527298Y280087D01*
X527199Y280079D01*
X527100Y280075D01*
X527000Y280075D01*
X526901Y280079D01*
X526802Y280087D01*
X526703Y280099D01*
X526605Y280115D01*
X526508Y280135D01*
X526411Y280158D01*
X526315Y280185D01*
X526221Y280216D01*
X526128Y280251D01*
X526036Y280290D01*
X525946Y280332D01*
X525858Y280378D01*
X525771Y280427D01*
X525687Y280479D01*
X525605Y280535D01*
X525525Y280594D01*
X525447Y280656D01*
X525372Y280722D01*
X525300Y280790D01*
X525230Y280861D01*
X525164Y280934D01*
X525100Y281011D01*
X525039Y281089D01*
X524982Y281171D01*
X524928Y281254D01*
X524877Y281339D01*
X524829Y281427D01*
X524785Y281516D01*
X524745Y281607D01*
X524708Y281699D01*
X524675Y281793D01*
X524646Y281888D01*
X524621Y281984D01*
X524599Y282081D01*
X524582Y282179D01*
X524568Y282277D01*
X524558Y282376D01*
X524552Y282476D01*
X524550Y282575D01*
X511850Y282575D02*
X511852Y282674D01*
X511858Y282774D01*
X511868Y282873D01*
X511882Y282971D01*
X511899Y283069D01*
X511921Y283166D01*
X511946Y283262D01*
X511975Y283357D01*
X512008Y283451D01*
X512045Y283543D01*
X512085Y283634D01*
X512129Y283723D01*
X512177Y283811D01*
X512228Y283896D01*
X512282Y283979D01*
X512339Y284061D01*
X512400Y284139D01*
X512464Y284216D01*
X512530Y284289D01*
X512600Y284360D01*
X512672Y284428D01*
X512747Y284494D01*
X512825Y284556D01*
X512905Y284615D01*
X512987Y284671D01*
X513071Y284723D01*
X513158Y284772D01*
X513246Y284818D01*
X513336Y284860D01*
X513428Y284899D01*
X513521Y284934D01*
X513615Y284965D01*
X513711Y284992D01*
X513808Y285015D01*
X513905Y285035D01*
X514003Y285051D01*
X514102Y285063D01*
X514201Y285071D01*
X514300Y285075D01*
X514400Y285075D01*
X514499Y285071D01*
X514598Y285063D01*
X514697Y285051D01*
X514795Y285035D01*
X514892Y285015D01*
X514989Y284992D01*
X515085Y284965D01*
X515179Y284934D01*
X515272Y284899D01*
X515364Y284860D01*
X515454Y284818D01*
X515542Y284772D01*
X515629Y284723D01*
X515713Y284671D01*
X515795Y284615D01*
X515875Y284556D01*
X515953Y284494D01*
X516028Y284428D01*
X516100Y284360D01*
X516170Y284289D01*
X516236Y284216D01*
X516300Y284139D01*
X516361Y284061D01*
X516418Y283979D01*
X516472Y283896D01*
X516523Y283811D01*
X516571Y283723D01*
X516615Y283634D01*
X516655Y283543D01*
X516692Y283451D01*
X516725Y283357D01*
X516754Y283262D01*
X516779Y283166D01*
X516801Y283069D01*
X516818Y282971D01*
X516832Y282873D01*
X516842Y282774D01*
X516848Y282674D01*
X516850Y282575D01*
X516848Y282476D01*
X516842Y282376D01*
X516832Y282277D01*
X516818Y282179D01*
X516801Y282081D01*
X516779Y281984D01*
X516754Y281888D01*
X516725Y281793D01*
X516692Y281699D01*
X516655Y281607D01*
X516615Y281516D01*
X516571Y281427D01*
X516523Y281339D01*
X516472Y281254D01*
X516418Y281171D01*
X516361Y281089D01*
X516300Y281011D01*
X516236Y280934D01*
X516170Y280861D01*
X516100Y280790D01*
X516028Y280722D01*
X515953Y280656D01*
X515875Y280594D01*
X515795Y280535D01*
X515713Y280479D01*
X515629Y280427D01*
X515542Y280378D01*
X515454Y280332D01*
X515364Y280290D01*
X515272Y280251D01*
X515179Y280216D01*
X515085Y280185D01*
X514989Y280158D01*
X514892Y280135D01*
X514795Y280115D01*
X514697Y280099D01*
X514598Y280087D01*
X514499Y280079D01*
X514400Y280075D01*
X514300Y280075D01*
X514201Y280079D01*
X514102Y280087D01*
X514003Y280099D01*
X513905Y280115D01*
X513808Y280135D01*
X513711Y280158D01*
X513615Y280185D01*
X513521Y280216D01*
X513428Y280251D01*
X513336Y280290D01*
X513246Y280332D01*
X513158Y280378D01*
X513071Y280427D01*
X512987Y280479D01*
X512905Y280535D01*
X512825Y280594D01*
X512747Y280656D01*
X512672Y280722D01*
X512600Y280790D01*
X512530Y280861D01*
X512464Y280934D01*
X512400Y281011D01*
X512339Y281089D01*
X512282Y281171D01*
X512228Y281254D01*
X512177Y281339D01*
X512129Y281427D01*
X512085Y281516D01*
X512045Y281607D01*
X512008Y281699D01*
X511975Y281793D01*
X511946Y281888D01*
X511921Y281984D01*
X511899Y282081D01*
X511882Y282179D01*
X511868Y282277D01*
X511858Y282376D01*
X511852Y282476D01*
X511850Y282575D01*
X530225Y282575D02*
X530227Y282464D01*
X530233Y282354D01*
X530242Y282243D01*
X530256Y282133D01*
X530273Y282024D01*
X530294Y281915D01*
X530319Y281807D01*
X530348Y281700D01*
X530380Y281594D01*
X530416Y281489D01*
X530456Y281386D01*
X530499Y281284D01*
X530546Y281183D01*
X530597Y281084D01*
X530650Y280988D01*
X530707Y280893D01*
X530768Y280800D01*
X530831Y280709D01*
X530898Y280620D01*
X530968Y280534D01*
X531041Y280451D01*
X531116Y280369D01*
X531194Y280291D01*
X531276Y280216D01*
X531359Y280143D01*
X531445Y280073D01*
X531534Y280006D01*
X531625Y279943D01*
X531718Y279882D01*
X531813Y279825D01*
X531909Y279772D01*
X532008Y279721D01*
X532109Y279674D01*
X532211Y279631D01*
X532314Y279591D01*
X532419Y279555D01*
X532525Y279523D01*
X532632Y279494D01*
X532740Y279469D01*
X532849Y279448D01*
X532958Y279431D01*
X533068Y279417D01*
X533179Y279408D01*
X533289Y279402D01*
X533400Y279400D01*
X530225Y282575D02*
X530227Y282686D01*
X530233Y282796D01*
X530242Y282907D01*
X530256Y283017D01*
X530273Y283126D01*
X530294Y283235D01*
X530319Y283343D01*
X530348Y283450D01*
X530380Y283556D01*
X530416Y283661D01*
X530456Y283764D01*
X530499Y283866D01*
X530546Y283967D01*
X530597Y284066D01*
X530650Y284163D01*
X530707Y284257D01*
X530768Y284350D01*
X530831Y284441D01*
X530898Y284530D01*
X530968Y284616D01*
X531041Y284699D01*
X531116Y284781D01*
X531194Y284859D01*
X531276Y284934D01*
X531359Y285007D01*
X531445Y285077D01*
X531534Y285144D01*
X531625Y285207D01*
X531718Y285268D01*
X531813Y285325D01*
X531909Y285378D01*
X532008Y285429D01*
X532109Y285476D01*
X532211Y285519D01*
X532314Y285559D01*
X532419Y285595D01*
X532525Y285627D01*
X532632Y285656D01*
X532740Y285681D01*
X532849Y285702D01*
X532958Y285719D01*
X533068Y285733D01*
X533179Y285742D01*
X533289Y285748D01*
X533400Y285750D01*
X511175Y282575D02*
X511173Y282686D01*
X511167Y282796D01*
X511158Y282907D01*
X511144Y283017D01*
X511127Y283126D01*
X511106Y283235D01*
X511081Y283343D01*
X511052Y283450D01*
X511020Y283556D01*
X510984Y283661D01*
X510944Y283764D01*
X510901Y283866D01*
X510854Y283967D01*
X510803Y284066D01*
X510750Y284163D01*
X510693Y284257D01*
X510632Y284350D01*
X510569Y284441D01*
X510502Y284530D01*
X510432Y284616D01*
X510359Y284699D01*
X510284Y284781D01*
X510206Y284859D01*
X510124Y284934D01*
X510041Y285007D01*
X509955Y285077D01*
X509866Y285144D01*
X509775Y285207D01*
X509682Y285268D01*
X509588Y285325D01*
X509491Y285378D01*
X509392Y285429D01*
X509291Y285476D01*
X509189Y285519D01*
X509086Y285559D01*
X508981Y285595D01*
X508875Y285627D01*
X508768Y285656D01*
X508660Y285681D01*
X508551Y285702D01*
X508442Y285719D01*
X508332Y285733D01*
X508221Y285742D01*
X508111Y285748D01*
X508000Y285750D01*
X511175Y282575D02*
X511173Y282464D01*
X511167Y282354D01*
X511158Y282243D01*
X511144Y282133D01*
X511127Y282024D01*
X511106Y281915D01*
X511081Y281807D01*
X511052Y281700D01*
X511020Y281594D01*
X510984Y281489D01*
X510944Y281386D01*
X510901Y281284D01*
X510854Y281183D01*
X510803Y281084D01*
X510750Y280987D01*
X510693Y280893D01*
X510632Y280800D01*
X510569Y280709D01*
X510502Y280620D01*
X510432Y280534D01*
X510359Y280451D01*
X510284Y280369D01*
X510206Y280291D01*
X510124Y280216D01*
X510041Y280143D01*
X509955Y280073D01*
X509866Y280006D01*
X509775Y279943D01*
X509682Y279882D01*
X509588Y279825D01*
X509491Y279772D01*
X509392Y279721D01*
X509291Y279674D01*
X509189Y279631D01*
X509086Y279591D01*
X508981Y279555D01*
X508875Y279523D01*
X508768Y279494D01*
X508660Y279469D01*
X508551Y279448D01*
X508442Y279431D01*
X508332Y279417D01*
X508221Y279408D01*
X508111Y279402D01*
X508000Y279400D01*
X16550Y282575D02*
X16552Y282674D01*
X16558Y282774D01*
X16568Y282873D01*
X16582Y282971D01*
X16599Y283069D01*
X16621Y283166D01*
X16646Y283262D01*
X16675Y283357D01*
X16708Y283451D01*
X16745Y283543D01*
X16785Y283634D01*
X16829Y283723D01*
X16877Y283811D01*
X16928Y283896D01*
X16982Y283979D01*
X17039Y284061D01*
X17100Y284139D01*
X17164Y284216D01*
X17230Y284289D01*
X17300Y284360D01*
X17372Y284428D01*
X17447Y284494D01*
X17525Y284556D01*
X17605Y284615D01*
X17687Y284671D01*
X17771Y284723D01*
X17858Y284772D01*
X17946Y284818D01*
X18036Y284860D01*
X18128Y284899D01*
X18221Y284934D01*
X18315Y284965D01*
X18411Y284992D01*
X18508Y285015D01*
X18605Y285035D01*
X18703Y285051D01*
X18802Y285063D01*
X18901Y285071D01*
X19000Y285075D01*
X19100Y285075D01*
X19199Y285071D01*
X19298Y285063D01*
X19397Y285051D01*
X19495Y285035D01*
X19592Y285015D01*
X19689Y284992D01*
X19785Y284965D01*
X19879Y284934D01*
X19972Y284899D01*
X20064Y284860D01*
X20154Y284818D01*
X20242Y284772D01*
X20329Y284723D01*
X20413Y284671D01*
X20495Y284615D01*
X20575Y284556D01*
X20653Y284494D01*
X20728Y284428D01*
X20800Y284360D01*
X20870Y284289D01*
X20936Y284216D01*
X21000Y284139D01*
X21061Y284061D01*
X21118Y283979D01*
X21172Y283896D01*
X21223Y283811D01*
X21271Y283723D01*
X21315Y283634D01*
X21355Y283543D01*
X21392Y283451D01*
X21425Y283357D01*
X21454Y283262D01*
X21479Y283166D01*
X21501Y283069D01*
X21518Y282971D01*
X21532Y282873D01*
X21542Y282774D01*
X21548Y282674D01*
X21550Y282575D01*
X21548Y282476D01*
X21542Y282376D01*
X21532Y282277D01*
X21518Y282179D01*
X21501Y282081D01*
X21479Y281984D01*
X21454Y281888D01*
X21425Y281793D01*
X21392Y281699D01*
X21355Y281607D01*
X21315Y281516D01*
X21271Y281427D01*
X21223Y281339D01*
X21172Y281254D01*
X21118Y281171D01*
X21061Y281089D01*
X21000Y281011D01*
X20936Y280934D01*
X20870Y280861D01*
X20800Y280790D01*
X20728Y280722D01*
X20653Y280656D01*
X20575Y280594D01*
X20495Y280535D01*
X20413Y280479D01*
X20329Y280427D01*
X20242Y280378D01*
X20154Y280332D01*
X20064Y280290D01*
X19972Y280251D01*
X19879Y280216D01*
X19785Y280185D01*
X19689Y280158D01*
X19592Y280135D01*
X19495Y280115D01*
X19397Y280099D01*
X19298Y280087D01*
X19199Y280079D01*
X19100Y280075D01*
X19000Y280075D01*
X18901Y280079D01*
X18802Y280087D01*
X18703Y280099D01*
X18605Y280115D01*
X18508Y280135D01*
X18411Y280158D01*
X18315Y280185D01*
X18221Y280216D01*
X18128Y280251D01*
X18036Y280290D01*
X17946Y280332D01*
X17858Y280378D01*
X17771Y280427D01*
X17687Y280479D01*
X17605Y280535D01*
X17525Y280594D01*
X17447Y280656D01*
X17372Y280722D01*
X17300Y280790D01*
X17230Y280861D01*
X17164Y280934D01*
X17100Y281011D01*
X17039Y281089D01*
X16982Y281171D01*
X16928Y281254D01*
X16877Y281339D01*
X16829Y281427D01*
X16785Y281516D01*
X16745Y281607D01*
X16708Y281699D01*
X16675Y281793D01*
X16646Y281888D01*
X16621Y281984D01*
X16599Y282081D01*
X16582Y282179D01*
X16568Y282277D01*
X16558Y282376D01*
X16552Y282476D01*
X16550Y282575D01*
D11*
X850750Y162550D02*
X875750Y162550D01*
X890250Y197050D02*
X890250Y222050D01*
X873250Y256550D02*
X853250Y256550D01*
X809250Y222050D02*
X809250Y197050D01*
X850750Y22850D02*
X875750Y22850D01*
X890250Y57350D02*
X890250Y82350D01*
X873250Y116850D02*
X853250Y116850D01*
X809250Y82350D02*
X809250Y57350D01*
X965050Y92700D02*
X990050Y92700D01*
X1004550Y127200D02*
X1004550Y152200D01*
X987550Y186700D02*
X967550Y186700D01*
X923550Y152200D02*
X923550Y127200D01*
D12*
X0Y0D02*
X1028700Y0D01*
X1028700Y279400D01*
X1016000Y279400D01*
X1015723Y279412D01*
X1015449Y279448D01*
X1015178Y279508D01*
X1014914Y279591D01*
X1014658Y279697D01*
X1014413Y279825D01*
X1014179Y279974D01*
X1013959Y280143D01*
X1013755Y280330D01*
X1013568Y280534D01*
X1013399Y280754D01*
X1013250Y280988D01*
X1013122Y281233D01*
X1013016Y281489D01*
X1012933Y281753D01*
X1012873Y282024D01*
X1012837Y282298D01*
X1012825Y282575D01*
X1012837Y282852D01*
X1012873Y283126D01*
X1012933Y283397D01*
X1013016Y283661D01*
X1013122Y283917D01*
X1013250Y284163D01*
X1013399Y284396D01*
X1013568Y284616D01*
X1013755Y284820D01*
X1013959Y285007D01*
X1014179Y285176D01*
X1014413Y285325D01*
X1014658Y285453D01*
X1014914Y285559D01*
X1015178Y285642D01*
X1015449Y285702D01*
X1015723Y285738D01*
X1016000Y285750D01*
X1028700Y285750D01*
X1028700Y539750D01*
X0Y539750D01*
X0Y285750D01*
X12700Y285750D01*
X12977Y285738D01*
X13251Y285702D01*
X13522Y285642D01*
X13786Y285559D01*
X14042Y285453D01*
X14288Y285325D01*
X14521Y285176D01*
X14741Y285007D01*
X14945Y284820D01*
X15132Y284616D01*
X15301Y284396D01*
X15450Y284163D01*
X15578Y283917D01*
X15684Y283661D01*
X15767Y283397D01*
X15827Y283126D01*
X15863Y282852D01*
X15875Y282575D01*
X15863Y282298D01*
X15827Y282024D01*
X15767Y281753D01*
X15684Y281489D01*
X15578Y281233D01*
X15450Y280988D01*
X15301Y280754D01*
X15132Y280534D01*
X14945Y280330D01*
X14741Y280143D01*
X14521Y279974D01*
X14288Y279825D01*
X14042Y279697D01*
X13786Y279591D01*
X13522Y279508D01*
X13251Y279448D01*
X12977Y279412D01*
X12700Y279400D01*
X0Y279400D01*
X0Y0D01*
X34925Y282575D02*
X34937Y282298D01*
X34973Y282024D01*
X35033Y281753D01*
X35116Y281489D01*
X35222Y281233D01*
X35350Y280988D01*
X35499Y280754D01*
X35668Y280534D01*
X35855Y280330D01*
X36059Y280143D01*
X36279Y279974D01*
X36513Y279825D01*
X36758Y279697D01*
X37014Y279591D01*
X37278Y279508D01*
X37549Y279448D01*
X37823Y279412D01*
X38100Y279400D01*
X508000Y279400D01*
X508277Y279412D01*
X508551Y279448D01*
X508822Y279508D01*
X509086Y279591D01*
X509342Y279697D01*
X509588Y279825D01*
X509821Y279974D01*
X510041Y280143D01*
X510245Y280330D01*
X510432Y280534D01*
X510601Y280754D01*
X510750Y280988D01*
X510878Y281233D01*
X510984Y281489D01*
X511067Y281753D01*
X511127Y282024D01*
X511163Y282298D01*
X511175Y282575D01*
X511163Y282852D01*
X511127Y283126D01*
X511067Y283397D01*
X510984Y283661D01*
X510878Y283917D01*
X510750Y284163D01*
X510601Y284396D01*
X510432Y284616D01*
X510245Y284820D01*
X510041Y285007D01*
X509821Y285176D01*
X509588Y285325D01*
X509342Y285453D01*
X509086Y285559D01*
X508822Y285642D01*
X508551Y285702D01*
X508277Y285738D01*
X508000Y285750D01*
X38100Y285750D01*
X37823Y285738D01*
X37549Y285702D01*
X37278Y285642D01*
X37014Y285559D01*
X36758Y285453D01*
X36513Y285325D01*
X36279Y285176D01*
X36059Y285007D01*
X35855Y284820D01*
X35668Y284616D01*
X35499Y284396D01*
X35350Y284163D01*
X35222Y283917D01*
X35116Y283661D01*
X35033Y283397D01*
X34973Y283126D01*
X34937Y282852D01*
X34925Y282575D01*
X530225Y282575D02*
X530237Y282298D01*
X530273Y282024D01*
X530333Y281753D01*
X530416Y281489D01*
X530522Y281233D01*
X530650Y280988D01*
X530799Y280754D01*
X530968Y280534D01*
X531155Y280330D01*
X531359Y280143D01*
X531579Y279974D01*
X531813Y279825D01*
X532058Y279697D01*
X532314Y279591D01*
X532578Y279508D01*
X532849Y279448D01*
X533123Y279412D01*
X533400Y279400D01*
X990600Y279400D01*
X990877Y279412D01*
X991151Y279448D01*
X991422Y279508D01*
X991686Y279591D01*
X991942Y279697D01*
X992188Y279825D01*
X992421Y279974D01*
X992641Y280143D01*
X992845Y280330D01*
X993032Y280534D01*
X993201Y280754D01*
X993350Y280988D01*
X993478Y281233D01*
X993584Y281489D01*
X993667Y281753D01*
X993727Y282024D01*
X993763Y282298D01*
X993775Y282575D01*
X993763Y282852D01*
X993727Y283126D01*
X993667Y283397D01*
X993584Y283661D01*
X993478Y283917D01*
X993350Y284163D01*
X993201Y284396D01*
X993032Y284616D01*
X992845Y284820D01*
X992641Y285007D01*
X992421Y285176D01*
X992188Y285325D01*
X991942Y285453D01*
X991686Y285559D01*
X991422Y285642D01*
X991151Y285702D01*
X990877Y285738D01*
X990600Y285750D01*
X533400Y285750D01*
X533123Y285738D01*
X532849Y285702D01*
X532578Y285642D01*
X532314Y285559D01*
X532058Y285453D01*
X531813Y285325D01*
X531579Y285176D01*
X531359Y285007D01*
X531155Y284820D01*
X530968Y284616D01*
X530799Y284396D01*
X530650Y284163D01*
X530522Y283917D01*
X530416Y283661D01*
X530333Y283397D01*
X530273Y283126D01*
X530237Y282852D01*
X530225Y282575D01*
X149416Y501124D02*
X149347Y500074D01*
X149209Y499032D01*
X149004Y498000D01*
X148732Y496984D01*
X148394Y495988D01*
X147991Y495016D01*
X147526Y494073D01*
X147000Y493162D01*
X146416Y492287D01*
X145775Y491453D01*
X145082Y490662D01*
X144338Y489918D01*
X143547Y489225D01*
X142713Y488584D01*
X141838Y488000D01*
X140927Y487474D01*
X139984Y487009D01*
X139012Y486606D01*
X138016Y486268D01*
X137000Y485996D01*
X135968Y485791D01*
X134926Y485653D01*
X133876Y485585D01*
X132824Y485585D01*
X131774Y485653D01*
X130732Y485791D01*
X129700Y485996D01*
X128684Y486268D01*
X127688Y486606D01*
X126716Y487009D01*
X125773Y487474D01*
X124862Y488000D01*
X123987Y488584D01*
X123153Y489225D01*
X122362Y489918D01*
X121618Y490662D01*
X120925Y491453D01*
X120284Y492287D01*
X119700Y493162D01*
X119174Y494073D01*
X118709Y495016D01*
X118306Y495988D01*
X117968Y496984D01*
X117696Y498000D01*
X117491Y499032D01*
X117353Y500074D01*
X117285Y501124D01*
X117285Y502176D01*
X117353Y503226D01*
X117491Y504268D01*
X117696Y505300D01*
X117968Y506316D01*
X118306Y507312D01*
X118709Y508284D01*
X119174Y509227D01*
X119700Y510138D01*
X120284Y511013D01*
X120925Y511847D01*
X121618Y512638D01*
X122362Y513382D01*
X123153Y514075D01*
X123987Y514716D01*
X124862Y515300D01*
X125773Y515826D01*
X126716Y516291D01*
X127688Y516694D01*
X128684Y517032D01*
X129700Y517304D01*
X130732Y517509D01*
X131774Y517647D01*
X132824Y517716D01*
X133876Y517716D01*
X134926Y517647D01*
X135968Y517509D01*
X137000Y517304D01*
X138016Y517032D01*
X139012Y516694D01*
X139984Y516291D01*
X140927Y515826D01*
X141838Y515300D01*
X142713Y514716D01*
X143547Y514075D01*
X144338Y513382D01*
X145082Y512638D01*
X145775Y511847D01*
X146416Y511013D01*
X147000Y510138D01*
X147526Y509227D01*
X147991Y508284D01*
X148394Y507312D01*
X148732Y506316D01*
X149004Y505300D01*
X149209Y504268D01*
X149347Y503226D01*
X149416Y502176D01*
X149416Y501124D01*
X149416Y62974D02*
X149347Y61924D01*
X149209Y60882D01*
X149004Y59850D01*
X148732Y58834D01*
X148394Y57838D01*
X147991Y56866D01*
X147526Y55923D01*
X147000Y55012D01*
X146416Y54137D01*
X145775Y53303D01*
X145082Y52512D01*
X144338Y51768D01*
X143547Y51075D01*
X142713Y50434D01*
X141838Y49850D01*
X140927Y49324D01*
X139984Y48859D01*
X139012Y48456D01*
X138016Y48118D01*
X137000Y47846D01*
X135968Y47641D01*
X134926Y47503D01*
X133876Y47435D01*
X132824Y47435D01*
X131774Y47503D01*
X130732Y47641D01*
X129700Y47846D01*
X128684Y48118D01*
X127688Y48456D01*
X126716Y48859D01*
X125773Y49324D01*
X124862Y49850D01*
X123987Y50434D01*
X123153Y51075D01*
X122362Y51768D01*
X121618Y52512D01*
X120925Y53303D01*
X120284Y54137D01*
X119700Y55012D01*
X119174Y55923D01*
X118709Y56866D01*
X118306Y57838D01*
X117968Y58834D01*
X117696Y59850D01*
X117491Y60882D01*
X117353Y61924D01*
X117285Y62974D01*
X117285Y64026D01*
X117353Y65076D01*
X117491Y66118D01*
X117696Y67150D01*
X117968Y68166D01*
X118306Y69162D01*
X118709Y70134D01*
X119174Y71077D01*
X119700Y71988D01*
X120284Y72863D01*
X120925Y73697D01*
X121618Y74488D01*
X122362Y75232D01*
X123153Y75925D01*
X123987Y76566D01*
X124862Y77150D01*
X125773Y77676D01*
X126716Y78141D01*
X127688Y78544D01*
X128684Y78882D01*
X129700Y79154D01*
X130732Y79359D01*
X131774Y79497D01*
X132824Y79566D01*
X133876Y79566D01*
X134926Y79497D01*
X135968Y79359D01*
X137000Y79154D01*
X138016Y78882D01*
X139012Y78544D01*
X139984Y78141D01*
X140927Y77676D01*
X141838Y77150D01*
X142713Y76566D01*
X143547Y75925D01*
X144338Y75232D01*
X145082Y74488D01*
X145775Y73697D01*
X146416Y72863D01*
X147000Y71988D01*
X147526Y71077D01*
X147991Y70134D01*
X148394Y69162D01*
X148732Y68166D01*
X149004Y67150D01*
X149209Y66118D01*
X149347Y65076D01*
X149416Y64026D01*
X149416Y62974D01*
X999450Y282378D02*
X999388Y281990D01*
X999267Y281615D01*
X999088Y281265D01*
X998857Y280946D01*
X998579Y280668D01*
X998260Y280437D01*
X997910Y280258D01*
X997535Y280137D01*
X997147Y280075D01*
X996753Y280075D01*
X996365Y280137D01*
X995990Y280258D01*
X995640Y280437D01*
X995321Y280668D01*
X995043Y280946D01*
X994812Y281265D01*
X994633Y281615D01*
X994512Y281990D01*
X994450Y282378D01*
X994450Y282772D01*
X994512Y283160D01*
X994633Y283535D01*
X994812Y283885D01*
X995043Y284204D01*
X995321Y284482D01*
X995640Y284713D01*
X995990Y284892D01*
X996365Y285013D01*
X996753Y285075D01*
X997147Y285075D01*
X997535Y285013D01*
X997910Y284892D01*
X998260Y284713D01*
X998579Y284482D01*
X998857Y284204D01*
X999088Y283885D01*
X999267Y283535D01*
X999388Y283160D01*
X999450Y282772D01*
X999450Y282378D01*
X1005800Y282378D02*
X1005738Y281990D01*
X1005617Y281615D01*
X1005438Y281265D01*
X1005207Y280946D01*
X1004929Y280668D01*
X1004610Y280437D01*
X1004260Y280258D01*
X1003885Y280137D01*
X1003497Y280075D01*
X1003103Y280075D01*
X1002715Y280137D01*
X1002340Y280258D01*
X1001990Y280437D01*
X1001671Y280668D01*
X1001393Y280946D01*
X1001162Y281265D01*
X1000983Y281615D01*
X1000862Y281990D01*
X1000800Y282378D01*
X1000800Y282772D01*
X1000862Y283160D01*
X1000983Y283535D01*
X1001162Y283885D01*
X1001393Y284204D01*
X1001671Y284482D01*
X1001990Y284713D01*
X1002340Y284892D01*
X1002715Y285013D01*
X1003103Y285075D01*
X1003497Y285075D01*
X1003885Y285013D01*
X1004260Y284892D01*
X1004610Y284713D01*
X1004929Y284482D01*
X1005207Y284204D01*
X1005438Y283885D01*
X1005617Y283535D01*
X1005738Y283160D01*
X1005800Y282772D01*
X1005800Y282378D01*
X1012150Y282378D02*
X1012088Y281990D01*
X1011967Y281615D01*
X1011788Y281265D01*
X1011557Y280946D01*
X1011279Y280668D01*
X1010960Y280437D01*
X1010610Y280258D01*
X1010235Y280137D01*
X1009847Y280075D01*
X1009453Y280075D01*
X1009065Y280137D01*
X1008690Y280258D01*
X1008340Y280437D01*
X1008021Y280668D01*
X1007743Y280946D01*
X1007512Y281265D01*
X1007333Y281615D01*
X1007212Y281990D01*
X1007150Y282378D01*
X1007150Y282772D01*
X1007212Y283160D01*
X1007333Y283535D01*
X1007512Y283885D01*
X1007743Y284204D01*
X1008021Y284482D01*
X1008340Y284713D01*
X1008690Y284892D01*
X1009065Y285013D01*
X1009453Y285075D01*
X1009847Y285075D01*
X1010235Y285013D01*
X1010610Y284892D01*
X1010960Y284713D01*
X1011279Y284482D01*
X1011557Y284204D01*
X1011788Y283885D01*
X1011967Y283535D01*
X1012088Y283160D01*
X1012150Y282772D01*
X1012150Y282378D01*
X21550Y282378D02*
X21488Y281990D01*
X21367Y281615D01*
X21188Y281265D01*
X20957Y280946D01*
X20679Y280668D01*
X20360Y280437D01*
X20010Y280258D01*
X19635Y280137D01*
X19247Y280075D01*
X18853Y280075D01*
X18465Y280137D01*
X18090Y280258D01*
X17740Y280437D01*
X17421Y280668D01*
X17143Y280946D01*
X16912Y281265D01*
X16733Y281615D01*
X16612Y281990D01*
X16550Y282378D01*
X16550Y282772D01*
X16612Y283160D01*
X16733Y283535D01*
X16912Y283885D01*
X17143Y284204D01*
X17421Y284482D01*
X17740Y284713D01*
X18090Y284892D01*
X18465Y285013D01*
X18853Y285075D01*
X19247Y285075D01*
X19635Y285013D01*
X20010Y284892D01*
X20360Y284713D01*
X20679Y284482D01*
X20957Y284204D01*
X21188Y283885D01*
X21367Y283535D01*
X21488Y283160D01*
X21550Y282772D01*
X21550Y282378D01*
X27900Y282378D02*
X27838Y281990D01*
X27717Y281615D01*
X27538Y281265D01*
X27307Y280946D01*
X27029Y280668D01*
X26710Y280437D01*
X26360Y280258D01*
X25985Y280137D01*
X25597Y280075D01*
X25203Y280075D01*
X24815Y280137D01*
X24440Y280258D01*
X24090Y280437D01*
X23771Y280668D01*
X23493Y280946D01*
X23262Y281265D01*
X23083Y281615D01*
X22962Y281990D01*
X22900Y282378D01*
X22900Y282772D01*
X22962Y283160D01*
X23083Y283535D01*
X23262Y283885D01*
X23493Y284204D01*
X23771Y284482D01*
X24090Y284713D01*
X24440Y284892D01*
X24815Y285013D01*
X25203Y285075D01*
X25597Y285075D01*
X25985Y285013D01*
X26360Y284892D01*
X26710Y284713D01*
X27029Y284482D01*
X27307Y284204D01*
X27538Y283885D01*
X27717Y283535D01*
X27838Y283160D01*
X27900Y282772D01*
X27900Y282378D01*
X34250Y282378D02*
X34188Y281990D01*
X34067Y281615D01*
X33888Y281265D01*
X33657Y280946D01*
X33379Y280668D01*
X33060Y280437D01*
X32710Y280258D01*
X32335Y280137D01*
X31947Y280075D01*
X31553Y280075D01*
X31165Y280137D01*
X30790Y280258D01*
X30440Y280437D01*
X30121Y280668D01*
X29843Y280946D01*
X29612Y281265D01*
X29433Y281615D01*
X29312Y281990D01*
X29250Y282378D01*
X29250Y282772D01*
X29312Y283160D01*
X29433Y283535D01*
X29612Y283885D01*
X29843Y284204D01*
X30121Y284482D01*
X30440Y284713D01*
X30790Y284892D01*
X31165Y285013D01*
X31553Y285075D01*
X31947Y285075D01*
X32335Y285013D01*
X32710Y284892D01*
X33060Y284713D01*
X33379Y284482D01*
X33657Y284204D01*
X33888Y283885D01*
X34067Y283535D01*
X34188Y283160D01*
X34250Y282772D01*
X34250Y282378D01*
X523200Y282378D02*
X523138Y281990D01*
X523017Y281615D01*
X522838Y281265D01*
X522607Y280946D01*
X522329Y280668D01*
X522010Y280437D01*
X521660Y280258D01*
X521285Y280137D01*
X520897Y280075D01*
X520503Y280075D01*
X520115Y280137D01*
X519740Y280258D01*
X519390Y280437D01*
X519071Y280668D01*
X518793Y280946D01*
X518562Y281265D01*
X518383Y281615D01*
X518262Y281990D01*
X518200Y282378D01*
X518200Y282772D01*
X518262Y283160D01*
X518383Y283535D01*
X518562Y283885D01*
X518793Y284204D01*
X519071Y284482D01*
X519390Y284713D01*
X519740Y284892D01*
X520115Y285013D01*
X520503Y285075D01*
X520897Y285075D01*
X521285Y285013D01*
X521660Y284892D01*
X522010Y284713D01*
X522329Y284482D01*
X522607Y284204D01*
X522838Y283885D01*
X523017Y283535D01*
X523138Y283160D01*
X523200Y282772D01*
X523200Y282378D01*
X529550Y282378D02*
X529488Y281990D01*
X529367Y281615D01*
X529188Y281265D01*
X528957Y280946D01*
X528679Y280668D01*
X528360Y280437D01*
X528010Y280258D01*
X527635Y280137D01*
X527247Y280075D01*
X526853Y280075D01*
X526465Y280137D01*
X526090Y280258D01*
X525740Y280437D01*
X525421Y280668D01*
X525143Y280946D01*
X524912Y281265D01*
X524733Y281615D01*
X524612Y281990D01*
X524550Y282378D01*
X524550Y282772D01*
X524612Y283160D01*
X524733Y283535D01*
X524912Y283885D01*
X525143Y284204D01*
X525421Y284482D01*
X525740Y284713D01*
X526090Y284892D01*
X526465Y285013D01*
X526853Y285075D01*
X527247Y285075D01*
X527635Y285013D01*
X528010Y284892D01*
X528360Y284713D01*
X528679Y284482D01*
X528957Y284204D01*
X529188Y283885D01*
X529367Y283535D01*
X529488Y283160D01*
X529550Y282772D01*
X529550Y282378D01*
X516850Y282378D02*
X516788Y281990D01*
X516667Y281615D01*
X516488Y281265D01*
X516257Y280946D01*
X515979Y280668D01*
X515660Y280437D01*
X515310Y280258D01*
X514935Y280137D01*
X514547Y280075D01*
X514153Y280075D01*
X513765Y280137D01*
X513390Y280258D01*
X513040Y280437D01*
X512721Y280668D01*
X512443Y280946D01*
X512212Y281265D01*
X512033Y281615D01*
X511912Y281990D01*
X511850Y282378D01*
X511850Y282772D01*
X511912Y283160D01*
X512033Y283535D01*
X512212Y283885D01*
X512443Y284204D01*
X512721Y284482D01*
X513040Y284713D01*
X513390Y284892D01*
X513765Y285013D01*
X514153Y285075D01*
X514547Y285075D01*
X514935Y285013D01*
X515310Y284892D01*
X515660Y284713D01*
X515979Y284482D01*
X516257Y284204D01*
X516488Y283885D01*
X516667Y283535D01*
X516788Y283160D01*
X516850Y282772D01*
X516850Y282378D01*
X21550Y282378D02*
X21488Y281990D01*
X21367Y281615D01*
X21188Y281265D01*
X20957Y280946D01*
X20679Y280668D01*
X20360Y280437D01*
X20010Y280258D01*
X19635Y280137D01*
X19247Y280075D01*
X18853Y280075D01*
X18465Y280137D01*
X18090Y280258D01*
X17740Y280437D01*
X17421Y280668D01*
X17143Y280946D01*
X16912Y281265D01*
X16733Y281615D01*
X16612Y281990D01*
X16550Y282378D01*
X16550Y282772D01*
X16612Y283160D01*
X16733Y283535D01*
X16912Y283885D01*
X17143Y284204D01*
X17421Y284482D01*
X17740Y284713D01*
X18090Y284892D01*
X18465Y285013D01*
X18853Y285075D01*
X19247Y285075D01*
X19635Y285013D01*
X20010Y284892D01*
X20360Y284713D01*
X20679Y284482D01*
X20957Y284204D01*
X21188Y283885D01*
X21367Y283535D01*
X21488Y283160D01*
X21550Y282772D01*
X21550Y282378D01*
M02*
