M48
;GenerationSoftware,Autodesk,EAGLE,9.6.2*%
;CreationDate,2022-05-18T20:21:20Z*%
FMAT,2
ICI,OFF
METRIC,TZ,000.000
T12C0.500
T11C0.600
T10C0.700
T9C0.813
T8C0.914
T7C1.016
T6C1.100
T5C1.500
T4C1.803
T3C2.100
T2C2.500
T1C3.213
%
G90
M71
T1
X13335Y6350
X13335Y50165
T2
X97655Y9251
X86225Y16236
X89025Y20955
X80979Y20955
X86225Y2266
X89025Y6985
X80979Y6985
X100455Y13970
X92409Y13970
T3
X34290Y18470
X34290Y9470
X6350Y18470
X6350Y9470
T4
X54991Y8191
X59690Y8191
X64389Y8191
T5
X86325Y25701
X86325Y11731
X97755Y18716
T6
X41290Y11470
X41290Y13970
X41290Y16470
X13350Y11470
X13350Y13970
X13350Y16470
T7
X55245Y25400
X29845Y31115
X57785Y25400
X57785Y31115
X34925Y25400
X34925Y31115
X55245Y31115
X32385Y25400
X60325Y31115
X60325Y25400
X52705Y25400
X50165Y25400
X47625Y25400
X47625Y31115
X52705Y31115
X50165Y31115
X32385Y31115
X24765Y31115
X27305Y31115
X27305Y25400
X29845Y25400
X24765Y25400
T8
X4445Y38735
X4445Y46355
X6985Y46355
X6985Y38735
X4445Y36195
X4445Y43815
X6985Y43815
X6985Y36195
X4445Y41275
X6985Y41275
T9
X96520Y41593
X69215Y40005
X99060Y41593
X89852Y31115
X87313Y31115
X81280Y31115
X83820Y31115
X42545Y45085
X42545Y47625
X29845Y48895
X29845Y51435
X40005Y36830
X40005Y31750
X40005Y34290
X57785Y36830
X62865Y36830
X60325Y36830
X81915Y48895
X81915Y46355
X20955Y36195
X20955Y33655
X20955Y38735
X19050Y46355
X26670Y46355
X26670Y48895
X19050Y48895
X73978Y33338
X74295Y48895
X72390Y47625
X74295Y46355
X73025Y40005
X74930Y41275
X73025Y42545
X73978Y30797
X14605Y41275
X14605Y38735
X14605Y32385
X14605Y34925
X53340Y34290
X53340Y39370
X45720Y34290
X24765Y37465
X45720Y39370
X50165Y34290
X50165Y39370
X17145Y43815
X27305Y43815
X17145Y51435
X27305Y51435
X34925Y37465
X24765Y34925
X34925Y34925
X15875Y11430
X15875Y21590
X42545Y42545
X52705Y42545
X45085Y45085
X55245Y45085
X60325Y50165
X60325Y40005
X57785Y40005
X57785Y50165
X55245Y47625
X45085Y47625
X97155Y48895
X97155Y46355
X80963Y42545
X78423Y42545
X66040Y50165
X66040Y45085
X66040Y47625
X20955Y15240
X69215Y50165
X45085Y50165
X55245Y50165
X100012Y46355
X100012Y48895
X85408Y39053
X87947Y39053
X80328Y39053
X82868Y39053
X20955Y12700
T10
X37465Y42545
X40005Y42545
X92075Y50165
X89535Y50165
X86995Y50165
X84455Y50165
X100330Y38735
X100330Y36195
X100330Y33655
X100330Y31115
X92710Y31115
X92710Y33655
X92710Y36195
X92710Y38735
X34925Y42545
X40005Y50165
X37465Y50165
X34925Y50165
X32385Y50165
X32385Y42545
X92075Y42545
X89535Y42545
X86995Y42545
X84455Y42545
T11
X34925Y46355
X5080Y50165
X5080Y32385
X17780Y37783
X31750Y39370
X20955Y42545
X3810Y6350
X71120Y45085
X78423Y30162
X78423Y46355
X94615Y50165
X97155Y32385
X78105Y24130
X76835Y3492
X67310Y24130
X70485Y6350
X50165Y7302
X43815Y24130
X40640Y6350
X19050Y21590
X22225Y6350
X10160Y25400
X48260Y50165
X29845Y19050
X38100Y12700
X29845Y41275
T12
X52070Y28257
X3175Y28257
X52705Y28257
X51435Y28257
X99695Y28257
X100330Y28257
X100965Y28257
X1905Y28257
X1905Y28257
X2540Y28257
M30